<svg width="11" height="11" viewBox="0 0 11 11" fill="none" xmlns="http://www.w3.org/2000/svg">
<path d="M5.12628 0C2.29442 0 0 2.3151 0 5.12629C0 7.95815 2.29442 10.2526 5.12628 10.2526C7.93747 10.2526 10.2526 7.95815 10.2526 5.12629C10.2526 2.3151 7.93747 0 5.12628 0V0ZM5.12628 9.42574C2.74917 9.42574 0.82682 7.5034 0.82682 5.12629C0.82682 2.76985 2.74917 0.82682 5.12628 0.82682C7.48272 0.82682 9.42575 2.76985 9.42575 5.12629C9.42575 7.5034 7.48272 9.42574 5.12628 9.42574ZM8.08217 3.51398C8.04083 3.2866 7.81345 3.14192 7.58607 3.20393C5.41567 3.72069 4.81622 3.72069 2.64582 3.20393C2.41844 3.14193 2.19107 3.28662 2.14973 3.51398C2.08772 3.74136 2.23241 3.94807 2.45979 4.01008C3.0799 4.15478 3.65868 4.27879 4.21678 4.36147C4.21678 6.6559 3.96873 7.0073 3.65868 7.7721C3.576 8.02015 3.70002 8.30955 3.94807 8.4129C4.19611 8.51625 4.4855 8.3922 4.58885 8.12351C4.79556 7.62742 4.96092 7.23468 5.08495 6.36652H5.14695C5.27097 7.23468 5.43634 7.62742 5.64304 8.12351C5.7464 8.39223 6.03578 8.51625 6.28383 8.4129C6.53187 8.30955 6.6559 8.02015 6.57322 7.7721C6.26316 7.0073 6.01511 6.6559 6.01511 4.36147C6.57322 4.27877 7.15199 4.15478 7.77211 4.01008C7.99948 3.94808 8.14417 3.74136 8.08216 3.51398H8.08217ZM4.32013 2.62516C4.32013 3.05924 4.67153 3.41064 5.12628 3.41064C5.56036 3.41064 5.91176 3.05924 5.91176 2.62516C5.91176 2.19108 5.56036 1.81901 5.12628 1.81901C4.67153 1.81901 4.32013 2.19108 4.32013 2.62516Z" fill="#808080"/>
</svg>
