<svg width="17" height="16" viewBox="0 0 17 16" fill="none" xmlns="http://www.w3.org/2000/svg">
<path d="M4.39271 9.41026C4.39271 9.41026 4.15663 8.65667 4.23456 7.75067L1.13604 5.5713C0.919495 6.33679 0.770508 7.17003 0.770508 7.97981C0.770508 10.8941 2.23491 13.401 4.48484 14.8023L6.64748 12.5476C5.30431 11.7572 4.59636 10.4043 4.39271 9.41026Z" fill="url(#paint0_linear_797_861)"/>
<path d="M13.324 11.9026C13.324 11.9026 12.8683 12.2614 12.0633 12.659C11.0935 13.1342 9.83763 13.3961 8.3005 13.1536C7.66528 13.0518 7.11734 12.8384 6.64214 12.5572L4.88558 13.1536L4.47949 14.812C5.66265 15.549 7.05915 15.9951 8.59628 15.9951C12.4609 15.9951 14.4587 13.7064 14.4587 13.7064L14.2899 12.5572L13.324 11.9026Z" fill="url(#paint1_linear_797_861)"/>
<path d="M16.3751 10.3699C16.6272 9.40015 15.9969 9.06557 15.541 9.70564C13.9468 11.7653 12.2988 12.5465 12.2988 12.5465L13.3242 14.6095C15.1919 13.4742 16.0647 11.5628 16.3751 10.3699Z" fill="url(#paint2_linear_797_861)"/>
<path d="M8.76226 3.05792C11.1868 3.05792 12.5445 4.74537 12.3166 5.53575L15.706 4.75506C15.6187 4.19743 15.3957 3.60585 14.9205 2.94639C13.684 1.22985 11.3904 0.0563965 8.41313 0.0563965C6.36465 0.0563965 4.1751 1.07205 2.74279 2.63571C2.7206 2.65994 1.72478 3.6577 1.13965 5.57078C2.27677 6.9371 4.23588 7.74953 4.23588 7.74953C4.27631 6.52705 4.75567 5.42464 5.2901 4.74149C5.79568 4.04353 6.88431 3.05792 8.76226 3.05792Z" fill="url(#paint3_linear_797_861)"/>
<path d="M9.21715 6.29223C10.8125 6.4377 12.0926 6.32616 12.3157 5.53578L15.7051 4.75024C15.8069 5.4291 15.6954 6.04493 15.4142 6.59286C14.9293 7.54811 13.363 8.75551 11.2683 9.10949C10.2141 9.2876 8.77851 9.18777 7.42303 8.93461C7.20981 8.89478 6.3312 8.66831 5.21217 8.19545C5.15576 7.53881 5.49239 6.10045 6.09761 5.3391C7.1274 5.85502 7.91553 6.06443 8.01683 6.08932C8.39392 6.18196 8.79225 6.25446 9.21715 6.29223Z" fill="url(#paint4_linear_797_861)"/>
<path d="M5.63925 4.32467C6.23385 3.70698 7.23802 3.05792 8.76198 3.05792C11.1865 3.05792 12.5442 4.74537 12.3163 5.53575C12.2246 5.86068 11.9543 6.07087 11.5568 6.19565C12.2711 5.99032 13.1927 5.39983 13.5994 4.47868C14.2859 2.92402 13.23 1.06011 10.5634 0.277547C9.8958 0.133664 9.17684 0.0563965 8.41286 0.0563965C6.59086 0.0563965 4.65726 0.859888 3.24414 2.13781L5.63925 4.32467Z" fill="url(#paint5_linear_797_861)"/>
<defs>
<linearGradient id="paint0_linear_797_861" x1="7.8707" y1="14.8023" x2="1.91302" y2="9.83566" gradientUnits="userSpaceOnUse">
<stop stop-color="#FFC300"/>
<stop offset="1" stop-color="#FF7A00"/>
</linearGradient>
<linearGradient id="paint1_linear_797_861" x1="10.8162" y1="13.3709" x2="-0.269083" y2="5.39385" gradientUnits="userSpaceOnUse">
<stop stop-color="#FFBB00"/>
<stop offset="1" stop-color="#FF7A00"/>
</linearGradient>
<linearGradient id="paint2_linear_797_861" x1="18.6735" y1="9.90075" x2="13.1086" y2="14.0253" gradientUnits="userSpaceOnUse">
<stop stop-color="#FF7A00"/>
<stop offset="1" stop-color="#FFBB00"/>
</linearGradient>
<linearGradient id="paint3_linear_797_861" x1="21.5156" y1="11.2001" x2="6.08321" y2="1.44372" gradientUnits="userSpaceOnUse">
<stop stop-color="#F8432E"/>
<stop offset="1" stop-color="#FF7A00"/>
</linearGradient>
<linearGradient id="paint4_linear_797_861" x1="15.7422" y1="3.16077" x2="6.14093" y2="7.46753" gradientUnits="userSpaceOnUse">
<stop stop-color="#FF6E00"/>
<stop offset="1" stop-color="#F8432E"/>
</linearGradient>
<linearGradient id="paint5_linear_797_861" x1="20.1362" y1="5.41573" x2="8.98893" y2="5.47349" gradientUnits="userSpaceOnUse">
<stop stop-color="#8E1607"/>
<stop offset="1" stop-color="#A62415" stop-opacity="0"/>
</linearGradient>
</defs>
</svg>
