<svg width="239" height="240" viewBox="0 0 239 240" fill="none" xmlns="http://www.w3.org/2000/svg">
<path fill-rule="evenodd" clip-rule="evenodd" d="M239 119.854C239 185.852 185.498 239.354 119.5 239.354C53.502 239.354 0 185.852 0 119.854C0 53.856 53.502 0.354004 119.5 0.354004C185.498 0.354004 239 53.856 239 119.854ZM211.853 114.152C211.853 151.627 181.473 182.007 143.998 182.007C106.523 182.007 76.1433 151.627 76.1433 114.152C76.1433 76.6766 106.523 46.297 143.998 46.297C181.473 46.297 211.853 76.6766 211.853 114.152Z" fill="url(#paint0_linear_2571_5509)"/>
<path fill-rule="evenodd" clip-rule="evenodd" d="M159.459 99.3269C184.068 74.7305 205.145 60.1027 218.314 62.9841C230.549 65.6503 234.456 85.227 236.959 97.7711L237.013 98.0396C242.261 124.389 238.999 176.537 197.605 210.219C173.376 229.936 149.074 239.353 119.499 239.353C44.1526 239.353 0.0112305 178.965 0.0112305 121.815C0.0112305 80.0888 16.5892 55.4065 31.7934 38.5716C47.1692 21.5527 69.8038 8.72716 93.1006 3.0869C111.995 -1.47436 132.435 1.0516 132.435 1.0516C81.7339 -3.93885 25.3313 35.2978 31.7934 89.8612C36.3345 128.204 75.6891 139.777 94.7189 137.068C116.642 133.953 134.188 124.61 159.459 99.3269ZM202.402 131.222C202.402 134.899 199.421 137.88 195.744 137.88C192.067 137.88 189.086 134.899 189.086 131.222C189.086 127.545 192.067 124.564 195.744 124.564C199.421 124.564 202.402 127.545 202.402 131.222Z" fill="url(#paint1_radial_2571_5509)"/>
<path d="M197.199 68.3241C197.199 68.3241 208.027 62.2746 214.771 66.5661C222.536 71.5071 228.743 87.1528 222.009 116.334C216.366 140.788 205.548 154.494 205.548 154.494C205.548 154.494 233.233 143.271 237.617 101.466C234.729 83.4115 231.13 74.4264 223.526 61.0116C211.093 57.9831 197.199 68.3241 197.199 68.3241Z" fill="url(#paint2_linear_2571_5509)"/>
<defs>
<linearGradient id="paint0_linear_2571_5509" x1="95.7618" y1="143.604" x2="206.838" y2="32.5157" gradientUnits="userSpaceOnUse">
<stop stop-color="#E95C3F"/>
<stop offset="1" stop-color="#FF5D69"/>
</linearGradient>
<radialGradient id="paint1_radial_2571_5509" cx="0" cy="0" r="1" gradientUnits="userSpaceOnUse" gradientTransform="translate(130.167 43.2677) rotate(89.2838) scale(196.198 196.198)">
<stop stop-color="#FFDA00"/>
<stop offset="0.83" stop-color="#FF9B00"/>
<stop offset="1" stop-color="#FF5D69"/>
</radialGradient>
<linearGradient id="paint2_linear_2571_5509" x1="138.064" y1="185.895" x2="249.14" y2="74.8179" gradientUnits="userSpaceOnUse">
<stop stop-color="#E95C3F"/>
<stop offset="1" stop-color="#FF5D69"/>
</linearGradient>
</defs>
</svg>
