<?xml version="1.0" encoding="UTF-8" standalone="no"?>
<svg width="14" height="14" viewBox="0 0 14 14" fill="none" version="1.1" id="svg4" sodipodi:docname="mail.svg" inkscape:version="1.1 (c68e22c387, 2021-05-23)"
    xmlns:inkscape="http://www.inkscape.org/namespaces/inkscape"
    xmlns:sodipodi="http://sodipodi.sourceforge.net/DTD/sodipodi-0.dtd"
    xmlns="http://www.w3.org/2000/svg"
    xmlns:svg="http://www.w3.org/2000/svg">
    <defs id="defs8" />
    <sodipodi:namedview id="namedview6" pagecolor="#505050" bordercolor="#ffffff" borderopacity="1" inkscape:pageshadow="0" inkscape:pageopacity="0" inkscape:pagecheckerboard="1" showgrid="false" inkscape:zoom="49.714286" inkscape:cx="9.0718391" inkscape:cy="6.6278736" inkscape:window-width="1920" inkscape:window-height="1017" inkscape:window-x="-8" inkscape:window-y="-8" inkscape:window-maximized="1" inkscape:current-layer="svg4" />
    <path d="M 11.875188,2.4999974 H 2.1250244 C 1.4922685,2.4999974 1,3.015695 1,3.6250266 v 6.7499914 c 0,0.632899 0.4922685,1.124985 1.1250244,1.124985 H 11.875188 C 12.484529,11.500003 13,11.007917 13,10.375018 V 3.6250266 C 13,3.015695 12.484529,2.4999974 11.875188,2.4999974 Z m 0,1.1250291 V 4.5858296 C 11.336129,5.0311519 10.492258,5.6876091 8.7109782,7.093849 8.3125145,7.3985864 7.539126,8.1483881 7.0000964,8.1249542 6.4376234,8.1476338 5.6640439,7.3985864 5.2655897,7.093849 3.48432,5.6876091 2.640639,5.0311519 2.1250244,4.5858296 V 3.6250266 Z M 2.1250244,10.375018 V 6.039119 C 2.640639,6.4608639 3.4140466,7.0702815 4.5625604,7.9843503 5.0781655,8.3828141 5.9923107,9.2736017 7.0000964,9.2501677 7.9844482,9.2728473 8.8749684,8.3828141 9.4140075,7.9843503 10.56254,7.0702815 11.336129,6.4608639 11.875188,6.039119 v 4.335899 z" fill="#808080" id="path2" style="stroke-width:0.95493" />
</svg>
