<svg width="73" height="72" viewBox="0 0 73 72" fill="none" xmlns="http://www.w3.org/2000/svg">
<g clip-path="url(#clip0_334_1680)">
<path d="M57.467 0H15.867C7.47226 0 0.666992 6.80527 0.666992 15.2V56.8C0.666992 65.1947 7.47226 72 15.867 72H57.467C65.8617 72 72.667 65.1947 72.667 56.8V15.2C72.667 6.80527 65.8617 0 57.467 0Z" fill="url(#paint0_linear_334_1680)"/>
<path d="M51.4986 15.3H31.6306H11.7666V46.3641H31.6306H51.4986V15.3Z" fill="#225180"/>
<path d="M51.499 25.7839H36.875H22.251V46.3639H36.875H51.499V25.7839Z" fill="#5AE1BF"/>
<path d="M42.119 41.3159L22.251 25.7839V56.8519L42.119 41.3159Z" fill="#2781EC"/>
<path d="M61.9871 56.8519L42.1191 41.3159V56.8519H61.9871Z" fill="#F83E54"/>
<path d="M61.9871 25.7839H42.1191V41.3159L61.9871 25.7839Z" fill="#F7E438"/>
<path d="M22.251 25.7839L42.119 41.3159V25.7839H22.251Z" fill="#5AE1BF"/>
<path d="M22.251 56.8519H42.119V41.3159L22.251 56.8519Z" fill="#225180"/>
<path d="M42.1191 41.3159L61.9871 56.8519V25.7839L42.1191 41.3159Z" fill="#FC8866"/>
<path style="mix-blend-mode:multiply" opacity="0.59" d="M61.987 56.8519V25.7839H42.119H22.251V56.8519H42.119H61.987Z" fill="url(#paint1_linear_334_1680)"/>
</g>
<defs>
<linearGradient id="paint0_linear_334_1680" x1="36.667" y1="1.408" x2="36.667" y2="72.216" gradientUnits="userSpaceOnUse">
<stop stop-color="white"/>
<stop offset="1" stop-color="#E6E8E9"/>
</linearGradient>
<linearGradient id="paint1_linear_334_1680" x1="42.119" y1="35.0079" x2="42.119" y2="216.8" gradientUnits="userSpaceOnUse">
<stop stop-color="white"/>
<stop offset="1"/>
</linearGradient>
<clipPath id="clip0_334_1680">
<rect x="0.666992" width="72" height="72" rx="15.12" fill="white"/>
</clipPath>
</defs>
</svg>
