<?xml version="1.0" encoding="UTF-8" standalone="no"?>
<svg width="14" height="14" viewBox="0 0 14 14" fill="none" version="1.1" id="svg4" sodipodi:docname="close.svg" inkscape:version="1.1 (c68e22c387, 2021-05-23)"
    xmlns:inkscape="http://www.inkscape.org/namespaces/inkscape"
    xmlns:sodipodi="http://sodipodi.sourceforge.net/DTD/sodipodi-0.dtd"
    xmlns="http://www.w3.org/2000/svg"
    xmlns:svg="http://www.w3.org/2000/svg">
    <defs id="defs8" />
    <sodipodi:namedview id="namedview6" pagecolor="#505050" bordercolor="#ffffff" borderopacity="1" inkscape:pageshadow="0" inkscape:pageopacity="0" inkscape:pagecheckerboard="1" showgrid="false" inkscape:zoom="27.341462" inkscape:cx="4.937556" inkscape:cy="9.0156115" inkscape:window-width="1920" inkscape:window-height="1017" inkscape:window-x="-8" inkscape:window-y="-8" inkscape:window-maximized="1" inkscape:current-layer="svg4" />
    <path d="m 8.7813254,6.9812291 4.0499776,-4.01241 c 0.224929,-0.2249461 0.224929,-0.6376468 0,-0.8625766 L 11.893918,1.1685462 c -0.22493,-0.22493959 -0.637369,-0.22493959 -0.862576,0 L 7.0189317,5.2185089 2.9686603,1.1685462 c -0.2249461,-0.22493959 -0.6373201,-0.22493959 -0.8622662,0 L 1.168706,2.1062425 c -0.22494124,0.2249298 -0.22494124,0.6373691 0,0.8625766 l 4.0502811,4.01241 -4.0502811,4.0502719 c -0.22494124,0.224946 -0.22494124,0.63732 0,0.862266 l 0.9376881,0.937695 c 0.2249461,0.224929 0.6373201,0.224929 0.8622662,0 L 7.0189317,8.7811738 11.031342,12.831462 c 0.224946,0.224929 0.637646,0.224929 0.862576,0 l 0.937385,-0.937695 c 0.224929,-0.224946 0.224929,-0.63732 0,-0.862266 z" fill="#000000" id="path2" style="stroke-width:1.63336" />
</svg>
