<?xml version="1.0" encoding="UTF-8" standalone="no"?>
<svg width="14" height="14" viewBox="0 0 14 14" fill="none" version="1.1" id="svg4" sodipodi:docname="group.svg" inkscape:version="1.1 (c68e22c387, 2021-05-23)"
   xmlns:inkscape="http://www.inkscape.org/namespaces/inkscape"
   xmlns:sodipodi="http://sodipodi.sourceforge.net/DTD/sodipodi-0.dtd"
   xmlns="http://www.w3.org/2000/svg"
   xmlns:svg="http://www.w3.org/2000/svg">
   <defs id="defs8" />
   <sodipodi:namedview id="namedview6" pagecolor="#505050" bordercolor="#ffffff" borderopacity="1" inkscape:pageshadow="0" inkscape:pageopacity="0" inkscape:pagecheckerboard="1" showgrid="false" height="16px" inkscape:zoom="29" inkscape:cx="8.7241379" inkscape:cy="7.4655172" inkscape:window-width="1920" inkscape:window-height="1017" inkscape:window-x="-8" inkscape:window-y="-8" inkscape:window-maximized="1" inkscape:current-layer="svg4" />
   <path d="m 11.21558,6.3991672 c 0.826241,0 1.502444,-0.6573738 1.502444,-1.5023753 0,-0.8262333 -0.676203,-1.5022299 -1.502444,-1.5022299 -0.845062,0 -1.5022142,0.6759966 -1.5022142,1.5022299 0,0.8450015 0.6571522,1.5023753 1.5022142,1.5023753 z m 0,-2.1032076 c 0.31928,0 0.600839,0.2815753 0.600839,0.6008323 0,0.338025 -0.281559,0.6009777 -0.600839,0.6009777 -0.338025,0 -0.600916,-0.2629527 -0.600916,-0.6009777 0,-0.319257 0.262891,-0.6008323 0.600916,-0.6008323 z M 2.8026425,6.3991672 c 0.8263481,0 1.5025207,-0.6573738 1.5025207,-1.5023753 0,-0.8262333 -0.6761726,-1.5022299 -1.5025207,-1.5022299 -0.8450016,0 -1.502227,0.6759966 -1.502227,1.5022299 0,0.8450015 0.6572254,1.5023753 1.502227,1.5023753 z m 0,-2.1032076 c 0.3192493,0 0.6009777,0.2815753 0.6009777,0.6008323 0,0.338025 -0.2817284,0.6009777 -0.6009777,0.6009777 -0.3380251,0 -0.6008324,-0.2629527 -0.6008324,-0.6009777 0,-0.319257 0.2628073,-0.6008323 0.6008324,-0.6008323 z M 10.239148,8.2582823 C 9.7133658,7.5071442 8.7180356,7.2066095 7.8353447,7.4883225 7.5725298,7.5634103 7.2909086,7.6009772 6.9904274,7.6009772 6.7087143,7.6009772 6.4269477,7.5634102 6.1641327,7.4883225 5.2814651,7.2066095 4.2674893,7.4883684 3.7605129,8.2582823 3.5351194,8.6150833 3.3848444,9.0280887 3.3848444,9.478868 v 0.826326 c 0,0.506961 0.4132199,0.901222 0.901543,0.901222 h 5.4082329 c 0.5069617,0 0.9012217,-0.394261 0.9012217,-0.901222 V 9.478868 C 10.614052,9.0280887 10.464473,8.6150833 10.239148,8.2582823 Z M 9.7133658,10.305194 H 4.3051632 V 9.478868 c 0,-0.6948179 0.5443902,-1.2581373 1.2204404,-1.2769131 0.4694325,0.2066176 0.9766231,0.3004125 1.4835996,0.3004125 0.4882006,0 0.9952382,-0.094399 1.4646706,-0.3004125 0.6760658,0.018163 1.239492,0.5820951 1.239492,1.2769131 z M 11.440904,7.0001448 h -0.450572 c -0.338025,0 -0.638636,0.1125399 -0.882629,0.2814912 0.243993,0.1878419 0.469393,0.4132659 0.638329,0.6760808 0.07513,-0.018163 0.150422,-0.055738 0.225478,-0.055738 h 0.450649 c 0.375592,0 0.676051,0.3192876 0.676051,0.6760888 0,0.2629379 0.206579,0.4506179 0.450649,0.4506179 0.262968,0 0.450802,-0.18768 0.450802,-0.4506179 0.01814,-0.8637774 -0.694872,-1.5773332 -1.558757,-1.5773332 z m -4.4317008,0 c 1.1454827,0 2.1031696,-0.9391022 2.1031696,-2.1033529 0,-1.1454827 -0.9576869,-2.1032076 -2.1031696,-2.1032076 -1.1642584,0 -2.1032077,0.9577249 -2.1032077,2.1032076 0,1.1642507 0.9389493,2.1033529 2.1032077,2.1033529 z m 0,-3.3050176 c 0.6572744,0 1.20181,0.5443826 1.20181,1.2016647 0,0.67605 -0.5445356,1.2018099 -1.20181,1.2018099 -0.6760502,0 -1.20181,-0.5257599 -1.20181,-1.2018099 0,-0.6572821 0.5257598,-1.2016647 1.20181,-1.2016647 z M 3.8917978,7.281636 C 3.6477588,7.1126847 3.3473541,7.0001448 3.0281048,7.0001448 H 2.5774786 c -0.8826678,0 -1.5774784,0.7135559 -1.5774784,1.5773336 0,0.2629297 0.1878365,0.4506178 0.4507715,0.4506178 0.2440414,0 0.4506261,-0.1876882 0.4506261,-0.4506178 0,-0.3568014 0.3005118,-0.6760889 0.6760808,-0.6760889 h 0.4506262 c 0.075088,0 0.150099,0.037575 0.2253092,0.055739 0.1689513,-0.2628152 0.3943448,-0.4882392 0.6383838,-0.676081 z" fill="#000000" id="path2" style="stroke-width:0.765112" />
</svg>
