<?xml version="1.0" encoding="UTF-8" standalone="no"?>
<svg width="14" height="14" viewBox="0 0 14 14" fill="none" version="1.1" id="svg4" sodipodi:docname="password.svg" inkscape:version="1.1 (c68e22c387, 2021-05-23)"
   xmlns:inkscape="http://www.inkscape.org/namespaces/inkscape"
   xmlns:sodipodi="http://sodipodi.sourceforge.net/DTD/sodipodi-0.dtd"
   xmlns="http://www.w3.org/2000/svg"
   xmlns:svg="http://www.w3.org/2000/svg">
   <defs id="defs8" />
   <sodipodi:namedview id="namedview6" pagecolor="#505050" bordercolor="#ffffff" borderopacity="1" inkscape:pageshadow="0" inkscape:pageopacity="0" inkscape:pagecheckerboard="1" showgrid="false" width="12px" inkscape:zoom="29" inkscape:cx="0.68965517" inkscape:cy="8.7068965" inkscape:window-width="1920" inkscape:window-height="1017" inkscape:window-x="-8" inkscape:window-y="-8" inkscape:window-maximized="1" inkscape:current-layer="svg4" />
   <path d="M 11.124984,5.4999876 H 10.374993 V 4.4218579 c 0,-1.8749944 -1.5000045,-3.3984212 -3.3749989,-3.42185803 -1.8749944,0 -3.3749877,1.52342673 -3.3749877,3.37498433 V 5.4999876 H 2.8750041 c -0.6328066,0 -1.1249921,0.5156224 -1.1249921,1.1249922 V 11.874985 C 1.750012,12.50779 2.2421975,13 2.8750041,13 h 8.2499799 c 0.609381,0 1.125004,-0.49221 1.125004,-1.125015 V 6.6249798 c 0,-0.6093698 -0.515623,-1.1249922 -1.125004,-1.1249922 z M 4.7499985,4.3749842 c 0,-1.2187396 1.0078192,-2.2499956 2.2499956,-2.2499956 1.2187509,0 2.2499956,1.031256 2.2499956,2.2499956 V 5.4999876 H 4.7499985 Z M 11.124984,11.874985 H 2.8750041 V 6.6249798 h 8.2499799 z" fill="#000000" id="path2" style="stroke-width:1.13386" />
</svg>
