<?xml version="1.0" encoding="UTF-8" standalone="no"?>
<svg width="14" height="14" viewBox="0 0 14 14" fill="none" version="1.1" id="svg4" sodipodi:docname="search.svg" inkscape:version="1.1 (c68e22c387, 2021-05-23)"
    xmlns:inkscape="http://www.inkscape.org/namespaces/inkscape"
    xmlns:sodipodi="http://sodipodi.sourceforge.net/DTD/sodipodi-0.dtd"
    xmlns="http://www.w3.org/2000/svg"
    xmlns:svg="http://www.w3.org/2000/svg">
    <defs id="defs8" />
    <sodipodi:namedview id="namedview6" pagecolor="#505050" bordercolor="#ffffff" borderopacity="1" inkscape:pageshadow="0" inkscape:pageopacity="0" inkscape:pagecheckerboard="1" showgrid="false" inkscape:zoom="46.4" inkscape:cx="7.0043103" inkscape:cy="7.4892241" inkscape:window-width="1920" inkscape:window-height="1017" inkscape:window-x="-8" inkscape:window-y="-8" inkscape:window-maximized="1" inkscape:current-layer="svg4" />
    <path d="M 12.900779,11.976444 10.069036,9.1447367 C 9.9981241,9.0984407 9.9286689,9.0506199 9.8583937,9.0506199 H 9.5541281 C 10.27977,8.2081335 10.747661,7.0847027 10.747661,5.8677029 c 0,-2.6679174 -2.1998268,-4.86770303 -4.8678813,-4.86770303 -2.6913485,0 -4.8676985,2.19978563 -4.8676985,4.86770303 0,2.6913394 2.17635,4.8679171 4.8676985,4.8679171 1.2169997,0 2.3169995,-0.444587 3.1829172,-1.1700921 v 0.30422 c 0,0.070912 0.023288,0.1401851 0.069584,0.2105511 l 2.8317161,2.831835 c 0.117156,0.117155 0.30422,0.117155 0.397798,0 l 0.538257,-0.538257 c 0.117156,-0.09394 0.117156,-0.280735 0,-0.397799 z M 5.8797797,9.6128655 c -2.082771,0 -3.7444495,-1.6617154 -3.7444495,-3.7446326 0,-2.0593398 1.6616785,-3.7444586 3.7444495,-3.7444586 2.0594861,0 3.7446324,1.6851188 3.7446324,3.7444586 0,2.0829172 -1.6851463,3.7446326 -3.7446324,3.7446326 z" fill="#000000" id="path2" style="stroke-width:0.913848" />
</svg>
