<?xml version="1.0" encoding="UTF-8" standalone="no"?>
<svg width="14" height="14" viewBox="0 0 14 14" fill="none" version="1.1" id="svg4" sodipodi:docname="settings-dark.svg" inkscape:version="1.1 (c68e22c387, 2021-05-23)"
    xmlns:inkscape="http://www.inkscape.org/namespaces/inkscape"
    xmlns:sodipodi="http://sodipodi.sourceforge.net/DTD/sodipodi-0.dtd"
    xmlns="http://www.w3.org/2000/svg"
    xmlns:svg="http://www.w3.org/2000/svg">
    <defs id="defs8" />
    <sodipodi:namedview id="namedview6" pagecolor="#505050" bordercolor="#ffffff" borderopacity="1" inkscape:pageshadow="0" inkscape:pageopacity="0" inkscape:pagecheckerboard="1" showgrid="false" inkscape:zoom="46.4" inkscape:cx="8.0172414" inkscape:cy="7.4892241" inkscape:window-width="1920" inkscape:window-height="1017" inkscape:window-x="-8" inkscape:window-y="-8" inkscape:window-maximized="1" inkscape:current-layer="svg4" width="14px" />
    <path d="M 11.758694,6.5276248 12.533538,6.0917335 C 12.751504,5.9711774 12.872781,5.7042203 12.800015,5.4378097 12.533621,4.4206776 11.976495,3.5003927 11.249995,2.749663 11.056367,2.5800997 10.765718,2.531647 10.547751,2.652733 L 9.7729068,3.1129375 C 9.5306853,2.9191271 9.2642913,2.7739432 8.9736416,2.652733 V 1.7566289 c 0,-0.2662748 -0.1695383,-0.4842296 -0.435924,-0.5568257 -0.9928938,-0.26640451 -2.0828413,-0.26640451 -3.0757264,0 C 5.1955805,1.2718753 5.0260916,1.4903541 5.0260916,1.7566289 V 2.652733 C 4.7355747,2.7732892 4.4690895,2.9191271 4.2269259,3.1129375 L 3.4520733,2.652733 C 3.2340242,2.5321768 2.943499,2.5806211 2.7496886,2.749663 2.0231976,3.5003927 1.4660713,4.4206776 1.1996648,5.4378097 1.1275927,5.7042203 1.2482374,5.9706476 1.4661624,6.0917335 L 2.241015,6.5276248 C 2.217422,6.6971965 2.217497,6.8424219 2.217497,7.0119852 c 0,0.1453248 -7.46e-5,0.2905749 0.023518,0.4358996 L 1.4661624,7.9080893 C 1.2482374,8.0286455 1.1270686,8.2956108 1.1996648,8.5620129 1.4660713,9.5791367 2.0231976,10.49943 2.7496886,11.250185 c 0.1938104,0.169372 0.4843356,0.217883 0.7023847,0.09694 l 0.7748526,-0.460107 c 0.2421636,0.193711 0.5086488,0.338994 0.7991657,0.460105 v 0.896038 c 0,0.266476 0.1694889,0.484277 0.4358996,0.557043 0.9928851,0.266395 2.0828326,0.266395 3.0757264,0 0.2663857,-0.07343 0.435924,-0.290567 0.435924,-0.557043 v -0.896038 c 0.2906497,-0.120614 0.5570437,-0.266394 0.7992652,-0.460105 l 0.7748442,0.460105 c 0.217967,0.120531 0.508616,0.07211 0.702244,-0.09694 0.7265,-0.750755 1.283626,-1.6710483 1.55002,-2.6881721 0.07342,-0.2664021 -0.04851,-0.5328376 -0.266477,-0.6539236 L 11.758694,7.4478848 c 0.0236,-0.2905169 0.0236,-0.6053719 0,-0.92026 z m -1.283543,1.5498623 1.065494,0.6056118 C 11.346851,9.191632 11.080623,9.6759925 10.717373,10.087752 L 9.6518793,9.482116 c -0.7750102,0.653899 -0.872031,0.726665 -1.8407027,1.065659 v 1.235198 c -0.2664024,0.04851 -0.5328297,0.07202 -0.823479,0.07202 -0.2664024,0 -0.5327634,-0.02351 -0.7991658,-0.07202 V 10.547775 C 5.2198855,10.208781 5.0987498,10.136015 4.3480201,9.482116 L 3.2825182,10.087752 C 2.9192769,9.6759925 2.6528496,9.191632 2.4590392,8.6830989 L 3.5245411,8.0774871 c -0.1936779,-1.017132 -0.1936779,-1.1381766 0,-2.155317 L 2.4590392,5.3167237 C 2.6528496,4.8081577 2.9192769,4.3238303 3.2825182,3.9121033 L 4.3480201,4.517558 C 5.1229885,3.8636672 5.2198855,3.7910256 6.1885318,3.4518988 V 2.2168334 c 0.2664024,-0.048486 0.5328297,-0.07198 0.823479,-0.07198 0.2664024,0 0.5327634,0.02481 0.7991658,0.07198 V 3.4518988 C 8.7798483,3.7910256 8.9009591,3.8636672 9.6518793,4.517558 L 10.717373,3.9121033 c 0.36325,0.411727 0.629478,0.8960544 0.823272,1.4046204 l -1.065494,0.6054464 c 0.193794,1.0171404 0.193794,1.138185 0,2.155317 z M 7.0120108,4.6629572 c -1.2835428,0 -2.3248722,1.0655847 -2.3248722,2.3248804 0,1.2835344 1.0413294,2.3249051 2.3248722,2.3249051 1.259296,0 2.3248805,-1.0413707 2.3248805,-2.3249051 0,-1.2592957 -1.0655845,-2.3248804 -2.3248805,-2.3248804 z m 0,3.4873123 c -0.6538907,0 -1.1624402,-0.5085411 -1.1624402,-1.1624319 0,-0.629652 0.5085495,-1.1624402 1.1624402,-1.1624402 0.6296437,0 1.1624402,0.5327882 1.1624402,1.1624402 0,0.6538908 -0.5327965,1.1624319 -1.1624402,1.1624319 z" fill="#000000" id="path2" style="stroke-width:0.827828" />
</svg>
