<svg width="9" height="9" viewBox="0 0 9 9" fill="none"
    xmlns="http://www.w3.org/2000/svg">
    <path d="M6.54106 0.0162354C5.64274 0.0162354 4.91395 0.745018 4.91395 1.64318C4.91395 1.81271 4.93135 1.98225 4.98205 2.13485L3.32075 3.18513C3.01571 2.89703 2.62615 2.72782 2.2024 2.72782C1.30423 2.72782 0.575439 3.45661 0.575439 4.35493C0.575439 5.25309 1.30407 5.98188 2.2024 5.98188C2.62615 5.98188 3.01571 5.81218 3.32075 5.54102L4.98205 6.5921C4.93135 6.74406 4.91395 6.91407 4.91395 7.06667C4.91395 7.96483 5.64274 8.69363 6.54106 8.69363C7.43922 8.69363 8.16801 7.96483 8.16801 7.06667C8.16801 6.16834 7.43922 5.43956 6.54106 5.43956C6.10037 5.43956 5.71064 5.60878 5.40561 5.89687L3.74431 4.84659C3.84562 4.5414 3.84562 4.18555 3.74431 3.88052L5.40561 2.82928C5.71064 3.10044 6.10037 3.27013 6.54106 3.27013C7.43922 3.27013 8.16801 2.54134 8.16801 1.64318C8.16801 0.745018 7.43922 0.0162354 6.54106 0.0162354Z" fill="#000000"/>
</svg>
