<svg width="8" height="12" viewBox="0 0 8 12" fill="none" xmlns="http://www.w3.org/2000/svg">
<path d="M6.01614 5.55067C6.01614 5.42665 5.89212 5.30264 5.7681 5.30264H2.29545C2.15075 5.30264 2.0474 5.42665 2.0474 5.55067V6.12946C2.0474 6.27415 2.15075 6.3775 2.29545 6.3775H5.7681C5.89212 6.3775 6.01614 6.27415 6.01614 6.12946V5.55067ZM5.7681 7.03896H2.29545C2.15075 7.03896 2.0474 7.16297 2.0474 7.287V7.86578C2.0474 8.01047 2.15075 8.11383 2.29545 8.11383H5.7681C5.89212 8.11383 6.01614 8.01047 6.01614 7.86578V7.287C6.01614 7.16297 5.89212 7.03896 5.7681 7.03896ZM8.00051 3.15289C8.00051 2.90485 7.87649 2.63614 7.69045 2.45011L5.9748 0.734451C5.78877 0.548421 5.52005 0.4244 5.272 0.4244H1.05522C0.497119 0.4244 0.0630341 0.87915 0.0630341 1.41658V10.0155C0.0630341 10.5736 0.497119 11.0077 1.05522 11.0077H7.00832C7.54576 11.0077 8.00051 10.5736 8.00051 10.0155V3.15289ZM5.35468 1.49926L6.92564 3.07022H5.35468V1.49926ZM7.00832 10.0155H1.05522V1.41658H4.3625V3.56631C4.3625 3.8557 4.5692 4.06241 4.85859 4.06241H7.00832V10.0155Z" fill="#808080"/>
</svg>
