<svg width="73" height="72" viewBox="0 0 73 72" fill="none" xmlns="http://www.w3.org/2000/svg">
<g clip-path="url(#clip0_802_553)">
<path d="M57.1333 0H15.5333C7.13852 0 0.333252 6.80527 0.333252 15.2V56.8C0.333252 65.1947 7.13852 72 15.5333 72H57.1333C65.528 72 72.3333 65.1947 72.3333 56.8V15.2C72.3333 6.80527 65.528 0 57.1333 0Z" fill="url(#paint0_linear_802_553)"/>
<path d="M21.1161 17.7135V54.3524V58H53.2688C54.4497 58 56.6683 57.987 56.6683 54.3524V21.7135C56.6683 19.5044 54.8774 17.7135 52.6683 17.7135H21.1161Z" fill="#E6E6E6"/>
<path d="M19.9993 14C17.7901 14 15.9993 15.7909 15.9993 18V54.3524C15.9993 56.2082 16.04 58 18.0402 58H53.6711C51.2706 58 51.551 55.5808 51.551 54.3524V18C51.551 15.7909 49.7602 14 47.551 14H19.9993Z" fill="white"/>
<rect x="18.2659" y="24.061" width="17.4683" height="11.6238" fill="#E6E6E6"/>
<rect x="36.8401" y="24.061" width="12.283" height="2.57634" fill="#E6E6E6"/>
<rect x="36.8401" y="28.585" width="12.283" height="2.57634" fill="#E6E6E6"/>
<rect x="36.8401" y="33.1089" width="12.283" height="2.57634" fill="#E6E6E6"/>
<rect x="18.2659" y="37.1831" width="30.8572" height="2.57634" fill="#E6E6E6"/>
<rect x="18.2659" y="41.7075" width="30.8572" height="2.57634" fill="#E6E6E6"/>
</g>
<defs>
<linearGradient id="paint0_linear_802_553" x1="36.3333" y1="0" x2="36.3333" y2="72" gradientUnits="userSpaceOnUse">
<stop stop-color="#128FFD"/>
<stop offset="1" stop-color="#2B72F9"/>
</linearGradient>
<clipPath id="clip0_802_553">
<rect x="0.333252" width="72" height="72" rx="15.12" fill="white"/>
</clipPath>
</defs>
</svg>
