<svg width="24" height="24" viewBox="0 0 24 24" fill="none" xmlns="http://www.w3.org/2000/svg">
<path d="M21.1667 3.12598H5.88889C5.16465 3.12598 4.54712 3.59046 4.31778 4.23709H2.83333C2.37309 4.23709 2 4.61018 2 5.07042V18.9293C2 20.0032 2.87056 20.8738 3.94444 20.8738H21.1667C21.6269 20.8738 22 20.5007 22 20.0404V3.95931C22 3.49907 21.6269 3.12598 21.1667 3.12598ZM3.66667 18.9293V5.90375H4.22222V18.9293C4.22222 19.0825 4.0976 19.2071 3.94444 19.2071C3.79128 19.2071 3.66667 19.0825 3.66667 18.9293ZM20.3333 19.2071H5.86882C5.88181 19.1164 5.88889 19.0237 5.88889 18.9293V4.79264H20.3333V19.2071ZM7.97222 11.4404H12.6944C12.9245 11.4404 13.1111 11.2538 13.1111 11.0237V7.69038C13.1111 7.46027 12.9245 7.27371 12.6944 7.27371H7.97222C7.74212 7.27371 7.55556 7.46027 7.55556 7.69038V11.0237C7.55556 11.2538 7.74212 11.4404 7.97222 11.4404ZM8.94444 8.6626H11.7222V10.0515H8.94444V8.6626ZM7.55556 13.5237V12.6904C7.55556 12.4603 7.74212 12.2737 7.97222 12.2737H12.6944C12.9245 12.2737 13.1111 12.4603 13.1111 12.6904V13.5237C13.1111 13.7538 12.9245 13.9404 12.6944 13.9404H7.97222C7.74212 13.9404 7.55556 13.7538 7.55556 13.5237ZM14.2222 13.5237V12.6904C14.2222 12.4603 14.4088 12.2737 14.6389 12.2737H18.25C18.4801 12.2737 18.6667 12.4603 18.6667 12.6904V13.5237C18.6667 13.7538 18.4801 13.9404 18.25 13.9404H14.6389C14.4088 13.9404 14.2222 13.7538 14.2222 13.5237ZM14.2222 8.52371V7.69038C14.2222 7.46027 14.4088 7.27371 14.6389 7.27371H18.25C18.4801 7.27371 18.6667 7.46027 18.6667 7.69038V8.52371C18.6667 8.75382 18.4801 8.94038 18.25 8.94038H14.6389C14.4088 8.94038 14.2222 8.75382 14.2222 8.52371ZM14.2222 11.0237V10.1904C14.2222 9.96027 14.4088 9.77371 14.6389 9.77371H18.25C18.4801 9.77371 18.6667 9.96027 18.6667 10.1904V11.0237C18.6667 11.2538 18.4801 11.4404 18.25 11.4404H14.6389C14.4088 11.4404 14.2222 11.2538 14.2222 11.0237Z" fill="#808080"/>
<path d="M7.55556 15.1365V15.9699C7.55556 16.2 7.74212 16.3865 7.97222 16.3865H12.6944C12.9245 16.3865 13.1111 16.2 13.1111 15.9699V15.1365C13.1111 14.9064 12.9245 14.7199 12.6944 14.7199H7.97222C7.74212 14.7199 7.55556 14.9064 7.55556 15.1365Z" fill="#808080"/>
<path d="M14.2222 15.1365V15.9699C14.2222 16.2 14.4088 16.3865 14.6389 16.3865H18.25C18.4801 16.3865 18.6667 16.2 18.6667 15.9699V15.1365C18.6667 14.9064 18.4801 14.7199 18.25 14.7199H14.6389C14.4088 14.7199 14.2222 14.9064 14.2222 15.1365Z" fill="#808080"/>
</svg>
