<svg width="73" height="72" viewBox="0 0 73 72" fill="none" xmlns="http://www.w3.org/2000/svg">
<g clip-path="url(#clip0_3001_5849)">
<path d="M57.1334 0H15.5334C7.13865 0 0.333374 6.80527 0.333374 15.2V56.8C0.333374 65.1947 7.13865 72 15.5334 72H57.1334C65.5281 72 72.3334 65.1947 72.3334 56.8V15.2C72.3334 6.80527 65.5281 0 57.1334 0Z" fill="url(#paint0_linear_3001_5849)"/>
<path d="M57.1334 0H15.5334C7.13865 0 0.333374 6.80527 0.333374 15.2V56.8C0.333374 65.1947 7.13865 72 15.5334 72H57.1334C65.5281 72 72.3334 65.1947 72.3334 56.8V15.2C72.3334 6.80527 65.5281 0 57.1334 0Z" fill="url(#paint1_linear_3001_5849)"/>
<path d="M21.1161 17.7135V54.3524V58H53.2688C54.4498 58 56.6683 57.987 56.6683 54.3524V21.7135C56.6683 19.5044 54.8775 17.7135 52.6683 17.7135H21.1161Z" fill="#E6E6E6"/>
<path d="M19.9994 14C17.7903 14 15.9994 15.7909 15.9994 18V54.3524C15.9994 56.2082 16.0401 58 18.0403 58H53.6713C51.2707 58 51.5512 55.5808 51.5512 54.3524V18C51.5512 15.7909 49.7603 14 47.5512 14H19.9994Z" fill="white"/>
<rect x="18.266" y="24.061" width="17.4683" height="11.6238" fill="#E6E6E6"/>
<rect x="36.8402" y="24.061" width="12.283" height="2.57634" fill="#E6E6E6"/>
<rect x="36.8402" y="28.585" width="12.283" height="2.57634" fill="#E6E6E6"/>
<rect x="36.8402" y="33.1089" width="12.283" height="2.57634" fill="#E6E6E6"/>
<rect x="18.266" y="37.1831" width="30.8572" height="2.57634" fill="#E6E6E6"/>
<rect x="18.266" y="41.7075" width="30.8572" height="2.57634" fill="#E6E6E6"/>
</g>
<defs>
<linearGradient id="paint0_linear_3001_5849" x1="36.3334" y1="0" x2="36.3334" y2="72" gradientUnits="userSpaceOnUse">
<stop stop-color="#128FFD"/>
<stop offset="1" stop-color="#2B72F9"/>
</linearGradient>
<linearGradient id="paint1_linear_3001_5849" x1="35.9196" y1="0" x2="35.9196" y2="72" gradientUnits="userSpaceOnUse">
<stop stop-color="#00C4FF"/>
<stop offset="1" stop-color="#0085FF"/>
</linearGradient>
<clipPath id="clip0_3001_5849">
<rect x="0.333374" width="72" height="72" rx="15.12" fill="white"/>
</clipPath>
</defs>
</svg>
