<svg width="16" height="12" viewBox="0 0 16 12" fill="none" xmlns="http://www.w3.org/2000/svg">
<path d="M13.3518 5.49791C14.4317 5.49791 15.3155 4.63872 15.3155 3.5343C15.3155 2.45441 14.4317 1.57088 13.3518 1.57088C12.2473 1.57088 11.3884 2.45441 11.3884 3.5343C11.3884 4.63872 12.2473 5.49791 13.3518 5.49791ZM13.3518 2.74901C13.7691 2.74901 14.1371 3.11703 14.1371 3.5343C14.1371 3.9761 13.7691 4.31978 13.3518 4.31978C12.91 4.31978 12.5664 3.9761 12.5664 3.5343C12.5664 3.11703 12.91 2.74901 13.3518 2.74901ZM2.35606 5.49791C3.4361 5.49791 4.31986 4.63872 4.31986 3.5343C4.31986 2.45441 3.4361 1.57088 2.35606 1.57088C1.25164 1.57088 0.392644 2.45441 0.392644 3.5343C0.392644 4.63872 1.25164 5.49791 2.35606 5.49791ZM2.35606 2.74901C2.77332 2.74901 3.14154 3.11703 3.14154 3.5343C3.14154 3.9761 2.77332 4.31978 2.35606 4.31978C1.91426 4.31978 1.57077 3.9761 1.57077 3.5343C1.57077 3.11703 1.91426 2.74901 2.35606 2.74901ZM12.0756 7.92778C11.3884 6.94604 10.0875 6.55324 8.93382 6.92144C8.59032 7.01958 8.22224 7.06868 7.82951 7.06868C7.46131 7.06868 7.09304 7.01958 6.74954 6.92144C5.59589 6.55324 4.27062 6.9215 3.608 7.92778C3.31341 8.39412 3.117 8.93392 3.117 9.52309V10.6031C3.117 11.2657 3.65708 11.781 4.29532 11.781H11.3639C12.0265 11.781 12.5418 11.2657 12.5418 10.6031V9.52309C12.5656 8.93392 12.3701 8.39412 12.0756 7.92778V7.92778ZM11.3884 10.6031H4.31986V9.52309C4.31986 8.61496 5.03138 7.8787 5.91498 7.85416C6.52853 8.12421 7.19143 8.2468 7.85405 8.2468C8.49213 8.2468 9.15483 8.12342 9.76838 7.85416C10.652 7.8779 11.3884 8.61496 11.3884 9.52309V10.6031ZM13.6463 6.28339H13.0574C12.6156 6.28339 12.2227 6.43048 11.9038 6.6513C12.2227 6.89681 12.5173 7.19144 12.7381 7.53494C12.8363 7.5112 12.9347 7.46209 13.0328 7.46209H13.6218C14.1127 7.46209 14.5054 7.8794 14.5054 8.34574C14.5054 8.6894 14.7754 8.9347 15.0944 8.9347C15.4381 8.9347 15.6836 8.6894 15.6836 8.34574C15.7073 7.21678 14.7754 6.28416 13.6463 6.28416V6.28339ZM7.85405 6.28339C9.3512 6.28339 10.6029 5.05598 10.6029 3.5343C10.6029 2.03715 9.3512 0.7854 7.85405 0.7854C6.33236 0.7854 5.10515 2.03715 5.10515 3.5343C5.10515 5.05598 6.33236 6.28339 7.85405 6.28339ZM7.85405 1.96372C8.71311 1.96372 9.42482 2.67523 9.42482 3.5343C9.42482 4.4179 8.71311 5.10507 7.85405 5.10507C6.97045 5.10507 6.28328 4.4179 6.28328 3.5343C6.28328 2.67523 6.97045 1.96372 7.85405 1.96372ZM3.77959 6.6513C3.46063 6.43048 3.068 6.28339 2.65074 6.28339H2.06177C0.90812 6.28339 0 7.21601 0 8.34497C0 8.68862 0.245503 8.93393 0.58916 8.93393C0.908123 8.93393 1.17813 8.68862 1.17813 8.34497C1.17813 7.87863 1.5709 7.46132 2.06177 7.46132H2.65074C2.74888 7.46132 2.84692 7.51043 2.94522 7.53417C3.16604 7.19067 3.46063 6.89604 3.77959 6.65053V6.6513Z" fill="#808080"/>
</svg>
