<svg width="72" height="72" viewBox="0 0 72 72" fill="none" xmlns="http://www.w3.org/2000/svg">
<g clip-path="url(#clip0_802_634)">
<path d="M56.7999 0H15.1999C6.80515 0 -0.00012207 6.80527 -0.00012207 15.2V56.8C-0.00012207 65.1947 6.80515 72 15.1999 72H56.7999C65.1946 72 71.9999 65.1947 71.9999 56.8V15.2C71.9999 6.80527 65.1946 0 56.7999 0Z" fill="url(#paint0_linear_802_634)"/>
<g clip-path="url(#clip1_802_634)">
<path d="M34.0551 30.3008C35.445 30.3008 36.5717 29.1741 36.5717 27.7843C36.5717 26.3944 35.445 25.2677 34.0551 25.2677C32.6653 25.2677 31.5386 26.3944 31.5386 27.7843C31.5386 29.1741 32.6653 30.3008 34.0551 30.3008Z" fill="white"/>
<path fill-rule="evenodd" clip-rule="evenodd" d="M23.3246 30.2342C23.6191 24.5129 28.4085 19.9704 34.1388 20.0125L34.1479 20.0126C39.9926 20.0967 44.7507 24.8481 44.7507 30.7449C44.7507 34.5452 42.779 37.9102 39.7545 39.8171V50.5813C39.7545 53.5172 37.3612 55.9105 34.4254 55.9105H29.6143C28.8989 55.9105 28.319 55.3306 28.319 54.6152V48.6199C28.319 47.9045 28.8989 47.3246 29.6143 47.3246H30.8356V45.1781H29.6143C28.8989 45.1781 28.319 44.5982 28.319 43.8828V39.8142C25.174 37.8181 23.167 34.2506 23.3239 30.25L23.3246 30.2342ZM30.9096 42.5875H32.1309C32.8462 42.5875 33.4261 43.1674 33.4261 43.8828V48.6199C33.4261 49.3352 32.8462 49.9151 32.1309 49.9151H30.9096V53.3199H34.4254C35.9305 53.3199 37.164 52.0864 37.164 50.5813V39.0717C37.164 38.5925 37.4286 38.1524 37.8519 37.9277C40.4372 36.5552 42.1601 33.8431 42.1601 30.7449C42.1601 26.2809 38.5568 22.6693 34.1152 22.603C29.7839 22.5736 26.1397 26.0198 25.9122 30.3595C25.7872 33.6225 27.5448 36.4936 30.226 37.93C30.6469 38.1555 30.9096 38.5942 30.9096 39.0717V42.5875Z" fill="white"/>
<path fill-rule="evenodd" clip-rule="evenodd" d="M39.0149 21.2889C39.0252 20.5736 39.6134 20.0021 40.3287 20.0124C46.1733 20.0965 50.9314 24.8479 50.9314 30.7446C50.9314 34.5874 48.9216 37.9152 45.9353 39.8131V50.581C45.9353 53.5169 43.542 55.9102 40.6061 55.9102H35.795C35.0797 55.9102 34.4998 55.3303 34.4998 54.6149C34.4998 53.8996 35.0797 53.3197 35.795 53.3197H40.6061C42.1112 53.3197 43.3447 52.0862 43.3447 50.581V39.0715C43.3447 38.5946 43.6067 38.1563 44.0268 37.9306C46.5898 36.5529 48.3408 33.8697 48.3408 30.7446C48.3408 26.2791 44.7351 22.6666 40.2914 22.6027C39.5761 22.5924 39.0046 22.0042 39.0149 21.2889Z" fill="white"/>
<path fill-rule="evenodd" clip-rule="evenodd" d="M38.7549 17.866C36.2136 17.866 34.1659 19.9136 34.1659 22.455C34.1659 23.7231 34.6835 24.8786 35.5259 25.721C36.0317 26.2269 36.0317 27.047 35.5259 27.5528C35.0201 28.0587 34.1999 28.0587 33.6941 27.5528C32.39 26.2487 31.5753 24.4436 31.5753 22.455C31.5753 18.4829 34.7828 15.2754 38.7549 15.2754C42.727 15.2754 45.9345 18.4829 45.9345 22.455C45.9345 23.1704 45.3546 23.7503 44.6392 23.7503C43.9239 23.7503 43.3439 23.1704 43.3439 22.455C43.3439 19.9136 41.2963 17.866 38.7549 17.866Z" fill="white"/>
</g>
</g>
<defs>
<linearGradient id="paint0_linear_802_634" x1="35.9999" y1="0" x2="35.9999" y2="72" gradientUnits="userSpaceOnUse">
<stop stop-color="#3FD479"/>
<stop offset="1" stop-color="#01B23D"/>
</linearGradient>
<clipPath id="clip0_802_634">
<rect x="-0.00012207" width="72" height="72" rx="15.12" fill="white"/>
</clipPath>
<clipPath id="clip1_802_634">
<rect width="41.4492" height="41.4492" fill="white" transform="translate(15.5507 15.2754)"/>
</clipPath>
</defs>
</svg>
