<svg width="24" height="24" viewBox="0 0 24 24" fill="none" xmlns="http://www.w3.org/2000/svg">
<path d="M19.0714 9.42855H17.7857V7.58033C17.7857 4.36605 15.2142 1.75446 12 1.71429C8.78569 1.71429 6.21428 4.32588 6.21428 7.49997V9.42855H4.92856C3.84375 9.42855 3 10.3125 3 11.3571V20.3571C3 21.4419 3.84375 22.2857 4.92856 22.2857H19.0714C20.116 22.2857 21 21.4419 21 20.3571V11.3571C21 10.3125 20.116 9.42855 19.0714 9.42855ZM8.14283 7.49997C8.14283 5.41071 9.87052 3.64284 12 3.64284C14.0893 3.64284 15.8571 5.41071 15.8571 7.49997V9.42855H8.14283V7.49997ZM19.0714 20.3571H4.92856V11.3571H19.0714V20.3571Z" fill="#000000"/>
</svg>
