<svg width="24" height="24" viewBox="0 0 24 24" fill="none" xmlns="http://www.w3.org/2000/svg">
<path d="M14.7905 3.2017C18.0565 3.2017 20.7436 5.88888 20.7436 9.15482C20.7436 12.4621 18.0565 15.1079 14.7905 15.1079C14.005 15.1079 13.2196 14.9839 12.5581 14.6945L10.8218 16.4308H9.49889V18.4152H7.51451V20.3996H3.54577V16.4308L9.08546 10.8911C8.9201 10.3537 8.83742 9.77492 8.83742 9.19616C8.83742 9.19616 8.83742 9.19616 8.83742 9.15476C8.83742 5.88882 11.4832 3.20164 14.7905 3.20164V3.2017ZM14.7905 1.21735C10.367 1.21735 6.85304 4.77266 6.85304 9.15482C6.85304 9.52688 6.85305 9.89896 6.89439 10.271L1.85079 15.356C1.64408 15.5214 1.5614 15.7694 1.5614 16.0588V21.3918C1.5614 21.9706 1.97481 22.384 2.55359 22.384H8.50668C9.04412 22.384 9.49889 21.9706 9.49889 21.3918V20.3996H10.4911C11.0285 20.3996 11.4832 19.9862 11.4832 19.4074V18.5806L13.1369 16.9269C13.6743 17.0509 14.2117 17.0923 14.7905 17.0923C19.1727 17.0923 22.728 13.5783 22.728 9.15486C22.728 4.7727 19.1727 1.21738 14.7905 1.21738V1.21735ZM14.7905 7.17044C14.7905 8.28666 15.6587 9.15482 16.7749 9.15482C17.8498 9.15482 18.7593 8.28666 18.7593 7.17044C18.7593 6.09558 17.8498 5.18608 16.7749 5.18608C15.6587 5.18608 14.7905 6.09558 14.7905 7.17044Z" fill="#808080"/>
</svg>
