<svg width="60" height="60" viewBox="0 0 60 60" fill="none" xmlns="http://www.w3.org/2000/svg">
<path d="M47.3333 0H12.6667C5.67106 0 0 5.67106 0 12.6667V47.3333C0 54.3289 5.67106 60 12.6667 60H47.3333C54.3289 60 60 54.3289 60 47.3333V12.6667C60 5.67106 54.3289 0 47.3333 0Z" fill="url(#paint0_linear_509_4068)"/>
<path d="M17.8115 15.6667V48.3334L29.999 36.1459L42.1888 48.3334V15.6667C42.1888 13.4576 40.398 11.6667 38.1888 11.6667H21.8115C19.6024 11.6667 17.8115 13.4576 17.8115 15.6667Z" fill="url(#paint1_linear_509_4068)"/>
<defs>
<linearGradient id="paint0_linear_509_4068" x1="30" y1="1.17333" x2="30" y2="60.18" gradientUnits="userSpaceOnUse">
<stop stop-color="white"/>
<stop offset="1" stop-color="#E6E8E9"/>
</linearGradient>
<linearGradient id="paint1_linear_509_4068" x1="27.7303" y1="11.6667" x2="27.7303" y2="35.8687" gradientUnits="userSpaceOnUse">
<stop stop-color="#F83E54"/>
<stop offset="1" stop-color="#F1374D"/>
</linearGradient>
</defs>
</svg>
