<svg width="73" height="72" viewBox="0 0 73 72" fill="none" xmlns="http://www.w3.org/2000/svg">
<g clip-path="url(#clip0_829_610)">
<path d="M57.6334 0H16.0334C7.63865 0 0.833374 6.80527 0.833374 15.2V56.8C0.833374 65.1947 7.63865 72 16.0334 72H57.6334C66.0281 72 72.8334 65.1947 72.8334 56.8V15.2C72.8334 6.80527 66.0281 0 57.6334 0Z" fill="url(#paint0_linear_829_610)"/>
<path d="M22.2072 18.8001V58.0001L36.8321 43.3751L51.4599 58.0001V18.8001C51.4599 16.1491 49.3109 14.0001 46.6599 14.0001H27.0071C24.3562 14.0001 22.2072 16.1491 22.2072 18.8001Z" fill="url(#paint1_linear_829_610)"/>
</g>
<defs>
<linearGradient id="paint0_linear_829_610" x1="36.8334" y1="1.408" x2="36.8334" y2="72.216" gradientUnits="userSpaceOnUse">
<stop stop-color="white"/>
<stop offset="1" stop-color="#E6E8E9"/>
</linearGradient>
<linearGradient id="paint1_linear_829_610" x1="34.1097" y1="14.0001" x2="34.1097" y2="43.0424" gradientUnits="userSpaceOnUse">
<stop stop-color="#F83E54"/>
<stop offset="1" stop-color="#F1374D"/>
</linearGradient>
<clipPath id="clip0_829_610">
<rect x="0.833374" width="72" height="72" fill="white"/>
</clipPath>
</defs>
</svg>
