<?xml version="1.0" encoding="UTF-8" standalone="no"?>
<svg width="14" height="14" viewBox="0 0 14 14" fill="none" version="1.1" id="svg4" sodipodi:docname="star.svg" inkscape:version="1.1 (c68e22c387, 2021-05-23)"
    xmlns:inkscape="http://www.inkscape.org/namespaces/inkscape"
    xmlns:sodipodi="http://sodipodi.sourceforge.net/DTD/sodipodi-0.dtd"
    xmlns="http://www.w3.org/2000/svg"
    xmlns:svg="http://www.w3.org/2000/svg">
    <defs id="defs8" />
    <sodipodi:namedview id="namedview6" pagecolor="#505050" bordercolor="#ffffff" borderopacity="1" inkscape:pageshadow="0" inkscape:pageopacity="0" inkscape:pagecheckerboard="1" showgrid="false" height="155px" inkscape:zoom="37.621622" inkscape:cx="6.0869253" inkscape:cy="5.8344109" inkscape:window-width="1920" inkscape:window-height="1017" inkscape:window-x="-8" inkscape:window-y="-8" inkscape:window-maximized="1" inkscape:current-layer="svg4" />
    <path d="M 12.397445,5.1042279 9.1208755,4.632987 7.639692,1.6481591 c -0.2468822,-0.5160892 -1.009927,-0.5385548 -1.2792544,0 L 4.9016681,4.632987 1.60258,5.1042279 C 1.0190925,5.1940871 0.79470019,5.9120928 1.2211725,6.3385683 L 3.5776404,8.650125 3.0164309,11.904296 c -0.089859,0.58353 0.5387643,1.032278 1.0549738,0.762951 l 2.9399218,-1.548418 2.9175313,1.548418 c 0.5160612,0.269327 1.1443882,-0.179421 1.0546382,-0.762951 l -0.561014,-3.254171 2.3564,-2.3115567 C 13.205271,5.9120928 12.980897,5.1940871 12.397445,5.1042279 Z M 9.255422,8.268563 9.7940768,11.365641 7.0113265,9.906817 4.2060059,11.365641 4.7445357,8.268563 2.4778933,6.0692253 5.5974709,5.6203749 7.0113265,2.7926716 8.402643,5.6203749 l 3.11943,0.4488504 z" fill="#808080" id="path2" style="stroke-width:0.0781792" />
</svg>
