<svg width="24" height="24" viewBox="0 0 24 24" fill="none" xmlns="http://www.w3.org/2000/svg">
<path d="M16.5677 3.88H7.43266C6.59179 3.88 5.91016 4.56164 5.91016 5.4025V20.12L12.0002 16.5675L18.0902 20.12V5.4025C18.0902 4.56164 17.4085 3.88 16.5677 3.88ZM16.5677 17.4693L12.0002 14.8049L7.43266 17.4693V5.59282C7.43266 5.54234 7.45271 5.49394 7.4884 5.45825C7.52409 5.42256 7.57249 5.4025 7.62297 5.4025H16.3773C16.4825 5.4025 16.5677 5.48761 16.5677 5.59269V17.4693Z" fill="#000000"/>
<path fill-rule="evenodd" clip-rule="evenodd" d="M5.81006 20.2941V5.4025C5.81006 4.50641 6.53647 3.78 7.43256 3.78H16.5676C17.4637 3.78 18.1901 4.50641 18.1901 5.4025V20.2941L12.0001 16.6833L5.81006 20.2941ZM12.0001 16.5675L18.0901 20.12V5.4025C18.0901 4.56163 17.4084 3.88 16.5676 3.88H7.43256C6.59169 3.88 5.91006 4.56163 5.91006 5.4025V20.12L12.0001 16.5675ZM12.0001 14.8049L16.5676 17.4693V5.59268C16.5676 5.4876 16.4824 5.4025 16.3772 5.4025H7.62287C7.5724 5.4025 7.52399 5.42255 7.4883 5.45824C7.45261 5.49393 7.43256 5.54234 7.43256 5.59281V17.4693L12.0001 14.8049ZM7.53256 17.2952L12.0001 14.6891L16.4676 17.2952V5.59268C16.4676 5.5429 16.4272 5.5025 16.3772 5.5025H7.62287C7.59892 5.5025 7.57595 5.51201 7.55901 5.52895C7.54207 5.54589 7.53256 5.56886 7.53256 5.59281V17.2952Z" fill="#000000"/>
</svg>
