<svg width="72" height="72" viewBox="0 0 72 72" fill="none" xmlns="http://www.w3.org/2000/svg">
<path d="M56.8001 0H15.2001C6.80533 0 6.10352e-05 6.80527 6.10352e-05 15.2V56.8C6.10352e-05 65.1947 6.80533 72 15.2001 72H56.8001C65.1948 72 72.0001 65.1947 72.0001 56.8V15.2C72.0001 6.80527 65.1948 0 56.8001 0Z" fill="url(#paint0_linear_3001_5765)"/>
<path d="M56.8001 0H15.2001C6.80533 0 6.10352e-05 6.80527 6.10352e-05 15.2V56.8C6.10352e-05 65.1947 6.80533 72 15.2001 72H56.8001C65.1948 72 72.0001 65.1947 72.0001 56.8V15.2C72.0001 6.80527 65.1948 0 56.8001 0Z" fill="url(#paint1_linear_3001_5765)"/>
<path d="M21.3737 58V18C21.3737 15.7909 23.1645 14 25.3737 14H35.9986V43.375L21.3737 58Z" fill="url(#paint2_linear_3001_5765)"/>
<path d="M21.3737 58V18C21.3737 15.7909 23.1645 14 25.3737 14H35.9986V43.375L21.3737 58Z" fill="url(#paint3_linear_3001_5765)"/>
<path d="M35.9986 14V43.375L50.6264 58V18C50.6264 15.7909 48.8356 14 46.6264 14H35.9986Z" fill="url(#paint4_linear_3001_5765)"/>
<path d="M35.9986 14V43.375L50.6264 58V18C50.6264 15.7909 48.8356 14 46.6264 14H35.9986Z" fill="url(#paint5_linear_3001_5765)"/>
<defs>
<linearGradient id="paint0_linear_3001_5765" x1="36.0001" y1="1.408" x2="36.0001" y2="72.216" gradientUnits="userSpaceOnUse">
<stop stop-color="white"/>
<stop offset="1" stop-color="#E6E8E9"/>
</linearGradient>
<linearGradient id="paint1_linear_3001_5765" x1="36.0419" y1="0" x2="36.0419" y2="72" gradientUnits="userSpaceOnUse">
<stop stop-color="white"/>
<stop offset="1" stop-color="#E8E9F6"/>
</linearGradient>
<linearGradient id="paint2_linear_3001_5765" x1="30.2479" y1="14" x2="30.2479" y2="58" gradientUnits="userSpaceOnUse">
<stop stop-color="#F83E54"/>
<stop offset="1" stop-color="#F1374D"/>
</linearGradient>
<linearGradient id="paint3_linear_3001_5765" x1="36" y1="22.1184" x2="36" y2="60.418" gradientUnits="userSpaceOnUse">
<stop stop-color="#FF3434"/>
<stop offset="1" stop-color="#FF0953"/>
</linearGradient>
<linearGradient id="paint4_linear_3001_5765" x1="30.2479" y1="14" x2="30.2479" y2="58" gradientUnits="userSpaceOnUse">
<stop stop-color="#F83E54"/>
<stop offset="1" stop-color="#F1374D"/>
</linearGradient>
<linearGradient id="paint5_linear_3001_5765" x1="36" y1="22.1184" x2="36" y2="60.418" gradientUnits="userSpaceOnUse">
<stop stop-color="#FF3434"/>
<stop offset="1" stop-color="#FF0953"/>
</linearGradient>
</defs>
</svg>
