<svg width="73" height="72" viewBox="0 0 73 72" fill="none" xmlns="http://www.w3.org/2000/svg">
<path d="M57.133 0H15.533C7.13828 0 0.333008 6.80527 0.333008 15.2V56.8C0.333008 65.1947 7.13828 72 15.533 72H57.133C65.5277 72 72.333 65.1947 72.333 56.8V15.2C72.333 6.80527 65.5277 0 57.133 0Z" fill="url(#paint0_linear_509_2132)"/>
<path d="M36.3315 56.2629L44.4374 31.3293H28.2373L36.3315 56.2629Z" fill="#E24329"/>
<path d="M16.8837 31.3293L14.4152 38.9045C14.1919 39.5923 14.4331 40.3516 15.0227 40.7803L36.3316 56.2628L16.8837 31.3293Z" fill="#FCA326"/>
<path d="M16.8838 31.3295H28.2375L23.3512 16.3132C23.1011 15.545 22.0112 15.545 21.7521 16.3132L16.8838 31.3295Z" fill="#E24329"/>
<path d="M55.7916 31.3293L58.2512 38.9045C58.4746 39.5923 58.2334 40.3516 57.6438 40.7803L36.332 56.2629L55.7916 31.3293Z" fill="#FCA326"/>
<path d="M55.7912 31.3295H44.4375L49.3148 16.3132C49.5649 15.545 50.6548 15.545 50.9139 16.3132L55.7912 31.3295Z" fill="#E24329"/>
<path d="M36.332 56.2629L44.438 31.3293H55.7916L36.332 56.2629Z" fill="#FC6D26"/>
<path d="M36.3317 56.2629L16.8838 31.3293H28.2375L36.3317 56.2629Z" fill="#FC6D26"/>
<defs>
<linearGradient id="paint0_linear_509_2132" x1="36.333" y1="1.408" x2="36.333" y2="72.216" gradientUnits="userSpaceOnUse">
<stop stop-color="white"/>
<stop offset="1" stop-color="#E6E8E9"/>
</linearGradient>
</defs>
</svg>
