<svg width="73" height="72" viewBox="0 0 73 72" fill="none" xmlns="http://www.w3.org/2000/svg">
<path d="M57.1333 0H15.5333C7.13852 0 0.333252 6.80527 0.333252 15.2V56.8C0.333252 65.1947 7.13852 72 15.5333 72H57.1333C65.528 72 72.3333 65.1947 72.3333 56.8V15.2C72.3333 6.80527 65.528 0 57.1333 0Z" fill="url(#paint0_linear_797_1262)"/>
<path d="M38.3904 46.2856C38.3904 45.1928 37.4261 44.2285 36.3333 44.2285C35.1762 44.2285 34.2762 45.1928 34.2762 46.2856C34.2762 47.4428 35.1762 48.3428 36.3333 48.3428C37.4261 48.3428 38.3904 47.4428 38.3904 46.2856ZM46.619 22.6285C46.619 20.9571 45.2047 19.5429 43.5333 19.5429H29.1333C27.3976 19.5429 26.0476 20.9571 26.0476 22.6285V49.3714C26.0476 51.1071 27.3976 52.4571 29.1333 52.4571H43.5333C45.2047 52.4571 46.619 51.1071 46.619 49.3714V22.6285ZM43.5333 48.9858C43.5333 49.2429 43.3404 49.3714 43.1476 49.3714H29.519C29.2619 49.3714 29.1333 49.2429 29.1333 48.9858V23.0143C29.1333 22.8215 29.2619 22.6285 29.519 22.6285H43.1476C43.3404 22.6285 43.5333 22.8214 43.5333 23.0143L43.5333 48.9858Z" fill="white" fill-opacity="0.87"/>
<defs>
<linearGradient id="paint0_linear_797_1262" x1="36.3333" y1="6.588" x2="36.3333" y2="70.592" gradientUnits="userSpaceOnUse">
<stop stop-color="#FF7300"/>
<stop offset="0.37" stop-color="#FB6C09"/>
<stop offset="0.97" stop-color="#F15B23"/>
<stop offset="1" stop-color="#F15A24"/>
</linearGradient>
</defs>
</svg>
