<svg width="72" height="72" viewBox="0 0 72 72" fill="none" xmlns="http://www.w3.org/2000/svg">
<path d="M56.8 0H15.2C6.80527 0 0 6.80527 0 15.2V56.8C0 65.1947 6.80527 72 15.2 72H56.8C65.1947 72 72 65.1947 72 56.8V15.2C72 6.80527 65.1947 0 56.8 0Z" fill="url(#paint0_linear_797_1283)"/>
<path d="M54.8438 51.9246L45.7822 42.8632C45.5553 42.715 45.3331 42.562 45.1082 42.562H44.1345C46.4566 39.866 47.9538 36.2711 47.9538 32.3767C47.9538 23.8393 40.9144 16.8 32.3766 16.8C23.7643 16.8 16.8 23.8393 16.8 32.3767C16.8 40.9889 23.7643 47.954 32.3766 47.954C36.271 47.954 39.791 46.5313 42.562 44.2097V45.1832C42.562 45.4101 42.6365 45.6318 42.7846 45.857L51.8461 54.9188C52.221 55.2937 52.8196 55.2937 53.1191 54.9188L54.8415 53.1964C55.2164 52.8958 55.2164 52.2981 54.8415 51.9235L54.8438 51.9246ZM32.3766 44.3612C25.7118 44.3612 20.3944 39.0437 20.3944 32.3783C20.3944 25.7885 25.7118 20.3961 32.3766 20.3961C38.967 20.3961 44.3594 25.7885 44.3594 32.3783C44.3594 39.0437 38.967 44.3612 32.3766 44.3612Z" fill="white"/>
<defs>
<linearGradient id="paint0_linear_797_1283" x1="21.8422" y1="0" x2="21.8422" y2="72" gradientUnits="userSpaceOnUse">
<stop stop-color="#F83E54"/>
<stop offset="1" stop-color="#F1374D"/>
</linearGradient>
</defs>
</svg>
