<svg width="24" height="24" viewBox="0 0 24 24" fill="none" xmlns="http://www.w3.org/2000/svg">
<path d="M20 3.54777C20 2.16719 19.3948 1.73929 18.0455 2.14823C15.8682 2.80603 11.6235 4.15488 9.44786 4.81744C8.27288 5.17566 7.68537 5.93651 7.68376 7.14432C7.68376 9.17636 7.69665 14.3785 7.70472 16.4105V17.1935C7.66921 17.1935 7.64014 17.1856 7.60786 17.1808C7.09652 16.9578 6.53323 16.875 5.97781 16.9415C4.33317 17.1142 3 18.3839 3 19.7756C3 21.1673 4.33317 22.1531 5.97781 21.9804C7.62245 21.8076 8.95555 20.5364 8.95555 19.1448C8.95555 19.0893 8.95554 19.0338 8.94586 18.9783C8.95353 18.9434 8.95679 18.9077 8.95555 18.8721C8.95555 17.3156 8.95555 12.5874 8.95555 11.0309C8.95555 8.98774 8.95558 8.99087 10.9682 8.37746C12.5047 7.90194 16.1006 6.73215 17.6436 6.28833C18.089 6.15994 18.7379 5.87305 18.7492 6.76385C18.7718 8.3172 18.7492 13.0423 18.7492 14.6986C18.743 14.6978 18.7368 14.6984 18.7309 14.7003C18.725 14.7023 18.7197 14.7055 18.7153 14.7098C18.1723 14.4383 17.5593 14.3317 16.9544 14.4038C15.3098 14.5782 13.9767 15.8478 13.9767 17.2395C13.9767 18.6312 15.3098 19.617 16.9544 19.4443C18.5991 19.2715 19.9322 18.0003 19.9322 16.6087C19.9322 16.5944 19.9322 16.5801 19.9322 16.5642C19.9452 16.5033 19.9512 16.4411 19.95 16.3788C19.9661 13.1564 19.9935 6.76701 20 3.54777Z" fill="#0086FF"/>
</svg>
