<svg width="24" height="24" viewBox="0 0 24 24" fill="none" xmlns="http://www.w3.org/2000/svg">
<path d="M17.5 16.5C19.0194 16.5 20.25 15.2694 20.25 13.75C20.25 12.2306 19.0194 11 17.5 11C15.9806 11 14.75 12.2306 14.75 13.75C14.75 15.2694 15.9806 16.5 17.5 16.5ZM17.5 17.875C15.6644 17.875 12 18.7962 12 20.625V22H23V20.625C23 18.7962 19.3356 17.875 17.5 17.875Z" fill="#0086FF"/>
<path d="M8.17 6L10.17 8H19V9H21V8C21 6.9 20.1 6 19 6H11L9 4H3C1.9 4 1.01 4.9 1.01 6L1 18C1 19.1 1.9 20 3 20H10V18H3V6H8.17Z" fill="#0086FF"/>
</svg>
