<?xml version="1.0" encoding="UTF-8" standalone="no"?>
<svg width="14" height="14" viewBox="0 0 14 14" fill="none" version="1.1" id="svg4" sodipodi:docname="calendar.svg" inkscape:version="1.1 (c68e22c387, 2021-05-23)"
    xmlns:inkscape="http://www.inkscape.org/namespaces/inkscape"
    xmlns:sodipodi="http://sodipodi.sourceforge.net/DTD/sodipodi-0.dtd"
    xmlns="http://www.w3.org/2000/svg"
    xmlns:svg="http://www.w3.org/2000/svg">
    <defs id="defs8" />
    <sodipodi:namedview id="namedview6" pagecolor="#505050" bordercolor="#ffffff" borderopacity="1" inkscape:pageshadow="0" inkscape:pageopacity="0" inkscape:pagecheckerboard="1" showgrid="false" inkscape:zoom="26.769231" inkscape:cx="8.5545976" inkscape:cy="8.1623563" inkscape:window-width="1920" inkscape:window-height="1017" inkscape:window-x="-8" inkscape:window-y="-8" inkscape:window-maximized="1" inkscape:current-layer="svg4" height="14.56652px" width="14px" />
    <path d="m 5.2187612,7.7500892 c 0.1405831,0 0.2812139,-0.1164523 0.2812139,-0.2812139 V 6.5313367 c 0,-0.1405735 -0.140478,-0.2812043 -0.2812139,-0.2812043 H 4.2812226 c -0.16416,0 -0.2812043,0.140478 -0.2812043,0.2812043 v 0.9375386 c 0,0.1640072 0.1162899,0.2812139 0.2812043,0.2812139 z M 7.750001,7.4688753 V 6.5313367 c 0,-0.1405735 -0.140478,-0.2812043 -0.2812043,-0.2812043 H 6.5312485 c -0.16416,0 -0.2813857,0.140478 -0.2813857,0.2812043 v 0.9375386 c 0,0.1640072 0.1164713,0.2812139 0.2813857,0.2812139 h 0.9375482 c 0.1405735,0 0.2812043,-0.1164523 0.2812043,-0.2812139 z m 2.250026,0 V 6.5313367 c 0,-0.1405735 -0.1406593,-0.2812043 -0.2813855,-0.2812043 H 8.7812744 c -0.1641504,0 -0.2813858,0.140478 -0.2813858,0.2812043 v 0.9375386 c 0,0.1640072 0.1179897,0.2812139 0.2813858,0.2812139 h 0.9373671 c 0.1405734,0 0.2813855,-0.1164523 0.2813855,-0.2812139 z M 7.750001,9.7189108 V 8.7813626 c 0,-0.1405735 -0.140478,-0.2812043 -0.2812043,-0.2812043 H 6.5312485 c -0.16416,0 -0.2813857,0.140478 -0.2813857,0.2812043 v 0.9375482 c 0,0.1640072 0.1164713,0.2812042 0.2813857,0.2812042 h 0.9375482 c 0.1405735,0 0.2812043,-0.1179514 0.2812043,-0.2812042 z m -2.2500259,0 V 8.7813626 c 0,-0.1405735 -0.140478,-0.2812043 -0.2812139,-0.2812043 H 4.2812226 c -0.16416,0 -0.2812043,0.140478 -0.2812043,0.2812043 v 0.9375482 c 0,0.1640072 0.1162899,0.2812042 0.2812043,0.2812042 h 0.9375386 c 0.1405831,0 0.2812139,-0.1179514 0.2812139,-0.2812042 z m 4.5000519,0 V 8.7813626 c 0,-0.1405735 -0.1406592,-0.2812043 -0.2813855,-0.2812043 h -0.937367 c -0.1641505,0 -0.2813859,0.140478 -0.2813859,0.2812043 v 0.9375482 c 0,0.1640072 0.1179898,0.2812042 0.2813859,0.2812042 h 0.937367 c 0.1405735,0 0.2813855,-0.1179514 0.2813855,-0.2812042 z m 2.249988,-6.0937529 c 0,-0.6093237 -0.515847,-1.1250177 -1.12518,-1.1250177 H 10.000027 V 1.2813915 c 0,-0.1405764 -0.1406593,-0.28139156 -0.2813855,-0.28139156 H 8.7812744 c -0.1641504,0 -0.2813858,0.14066336 -0.2813858,0.28139156 V 2.5001402 H 5.4999751 V 1.2813915 c 0,-0.1405764 -0.140478,-0.28139156 -0.2812139,-0.28139156 H 4.2812226 c -0.16416,0 -0.2812043,0.14066336 -0.2812043,0.28139156 V 2.5001402 H 2.8750006 c -0.6329006,0 -1.1250158,0.515694 -1.1250158,1.1250177 V 11.875011 C 1.7499848,12.507931 2.2421,13 2.8750006,13 h 8.2498344 c 0.609333,0 1.12518,-0.492069 1.12518,-1.124989 z m -1.12518,8.1092891 c 0,0.09368 -0.06933,0.140564 -0.140373,0.140564 H 3.0156028 c -0.093716,0 -0.1406022,-0.04689 -0.1406022,-0.140564 V 4.7501756 h 8.2498344 z" fill="#808080" id="path2" style="stroke-width:0.954918" />
</svg>
