<svg width="12" height="12" viewBox="0 0 12 12" fill="none" xmlns="http://www.w3.org/2000/svg">
<path d="M7.39527 1.60085C9.02824 1.60085 10.3718 2.94444 10.3718 4.57741C10.3718 6.23105 9.02824 7.55396 7.39527 7.55396C7.00253 7.55396 6.60979 7.49196 6.27906 7.34725L5.4109 8.21542H4.74945V9.2076H3.75726V10.1998H1.77289V8.21542L4.54274 5.44557C4.46006 5.17685 4.41872 4.88746 4.41872 4.59808C4.41872 4.59808 4.41872 4.59808 4.41872 4.57738C4.41872 2.94441 5.74163 1.60082 7.39527 1.60082V1.60085ZM7.39527 0.608673C5.18353 0.608673 3.42653 2.38633 3.42653 4.57741C3.42653 4.76344 3.42653 4.94948 3.4472 5.13551L0.9254 7.67798C0.822047 7.76068 0.780708 7.88469 0.780708 8.02938V10.6959C0.780708 10.9853 0.987411 11.192 1.2768 11.192H4.25335C4.52207 11.192 4.74945 10.9853 4.74945 10.6959V10.1998H5.24554C5.51425 10.1998 5.74163 9.99308 5.74163 9.70369V9.29028L6.56845 8.46346C6.83716 8.52546 7.10588 8.54616 7.39527 8.54616C9.58634 8.54616 11.364 6.78917 11.364 4.57743C11.364 2.38635 9.58634 0.608688 7.39527 0.608688V0.608673ZM7.39527 3.58522C7.39527 4.14333 7.82935 4.57741 8.38745 4.57741C8.92489 4.57741 9.37964 4.14333 9.37964 3.58522C9.37964 3.04779 8.92489 2.59304 8.38745 2.59304C7.82935 2.59304 7.39527 3.04779 7.39527 3.58522Z" fill="#808080"/>
</svg>
