<svg width="72" height="72" viewBox="0 0 72 72" fill="none" xmlns="http://www.w3.org/2000/svg">
<path d="M56.8 0H15.2C6.80527 0 0 6.80527 0 15.2V56.8C0 65.1947 6.80527 72 15.2 72H56.8C65.1947 72 72 65.1947 72 56.8V15.2C72 6.80527 65.1947 0 56.8 0Z" fill="url(#paint0_linear_334_1852)"/>
<g clip-path="url(#clip0_334_1852)">
<path d="M34.0556 30.3009C35.4455 30.3009 36.5722 29.1742 36.5722 27.7844C36.5722 26.3945 35.4455 25.2678 34.0556 25.2678C32.6658 25.2678 31.5391 26.3945 31.5391 27.7844C31.5391 29.1742 32.6658 30.3009 34.0556 30.3009Z" fill="white"/>
<path fill-rule="evenodd" clip-rule="evenodd" d="M23.3247 30.2342C23.6192 24.5128 28.4086 19.9704 34.1389 20.0125L34.1481 20.0126C39.9927 20.0967 44.7508 24.8481 44.7508 30.7448C44.7508 34.5451 42.7792 37.9102 39.7547 39.817V50.5813C39.7547 53.5171 37.3613 55.9104 34.4255 55.9104H29.6144C28.899 55.9104 28.3191 55.3305 28.3191 54.6152V48.6198C28.3191 47.9045 28.899 47.3245 29.6144 47.3245H30.8357V45.1781H29.6144C28.899 45.1781 28.3191 44.5981 28.3191 43.8828V39.8141C25.1742 37.818 23.1671 34.2505 23.324 30.25L23.3247 30.2342ZM30.9097 42.5875H32.131C32.8463 42.5875 33.4263 43.1674 33.4263 43.8828V48.6198C33.4263 49.3352 32.8463 49.9151 32.131 49.9151H30.9097V53.3199H34.4255C35.9306 53.3199 37.1641 52.0864 37.1641 50.5813V39.0717C37.1641 38.5924 37.4287 38.1523 37.852 37.9276C40.4373 36.5552 42.1602 33.8431 42.1602 30.7448C42.1602 26.2808 38.5569 22.6693 34.1153 22.603C29.784 22.5736 26.1399 26.0198 25.9123 30.3594C25.7874 33.6225 27.5449 36.4936 30.2261 37.9299C30.647 38.1554 30.9097 38.5942 30.9097 39.0717V42.5875Z" fill="white"/>
<path fill-rule="evenodd" clip-rule="evenodd" d="M39.0151 21.2889C39.0254 20.5736 39.6136 20.0021 40.3289 20.0123C46.1736 20.0964 50.9316 24.8478 50.9316 30.7446C50.9316 34.5874 48.9219 37.9152 45.9355 39.813V50.581C45.9355 53.5169 43.5422 55.9102 40.6064 55.9102H35.7953C35.0799 55.9102 34.5 55.3303 34.5 54.6149C34.5 53.8995 35.0799 53.3196 35.7953 53.3196H40.6064C42.1115 53.3196 43.345 52.0861 43.345 50.581V39.0715C43.345 38.5946 43.607 38.1563 44.027 37.9305C46.59 36.5529 48.3411 33.8697 48.3411 30.7446C48.3411 26.2791 44.7353 22.6666 40.2917 22.6027C39.5764 22.5924 39.0048 22.0042 39.0151 21.2889Z" fill="white"/>
<path fill-rule="evenodd" clip-rule="evenodd" d="M38.7548 17.866C36.2134 17.866 34.1658 19.9136 34.1658 22.455C34.1658 23.7231 34.6834 24.8786 35.5258 25.721C36.0316 26.2269 36.0316 27.047 35.5258 27.5528C35.0199 28.0587 34.1998 28.0587 33.694 27.5528C32.3899 26.2487 31.5752 24.4436 31.5752 22.455C31.5752 18.4829 34.7827 15.2754 38.7548 15.2754C42.7269 15.2754 45.9344 18.4829 45.9344 22.455C45.9344 23.1704 45.3545 23.7503 44.6391 23.7503C43.9237 23.7503 43.3438 23.1704 43.3438 22.455C43.3438 19.9136 41.2962 17.866 38.7548 17.866Z" fill="white"/>
</g>
<defs>
<linearGradient id="paint0_linear_334_1852" x1="36" y1="0" x2="36" y2="72" gradientUnits="userSpaceOnUse">
<stop stop-color="#3FD479"/>
<stop offset="1" stop-color="#01B23D"/>
</linearGradient>
<clipPath id="clip0_334_1852">
<rect width="41.4492" height="41.4492" fill="white" transform="translate(15.5508 15.2754)"/>
</clipPath>
</defs>
</svg>
