<svg width="14" height="13" viewBox="0 0 14 13" fill="none" xmlns="http://www.w3.org/2000/svg">
<path d="M13.0627 1.39899L12.1301 0.466265C11.8355 0.171679 11.4182 0 11.0254 0C10.6329 0 10.2157 0.171679 9.92112 0.466265L8.08021 2.30717L7.24565 3.14154L1.25705 9.13014L0.962564 11.9283C0.913493 12.272 1.18349 12.5664 1.52699 12.5664C1.55073 12.5664 1.57609 12.5664 1.59984 12.5664L4.39782 12.2719L10.3866 6.28308L11.2212 5.44871L13.0619 3.60781C13.6754 2.99426 13.6754 2.01254 13.0619 1.39899H13.0627ZM3.8587 11.1428L2.21431 11.3146L2.38609 9.67022L8.05567 3.97591L8.81661 3.21516L10.3138 4.71231L9.55282 5.47306L3.8587 11.1428ZM12.2283 2.77344L11.1483 3.87794L9.65098 2.38079L10.7557 1.30083C10.8538 1.20269 10.9764 1.17735 11.0254 1.17735C11.0745 1.17735 11.1974 1.2011 11.2956 1.30083L12.2283 2.23355C12.3755 2.38077 12.3755 2.62607 12.2283 2.77344V2.77344Z" fill="black"/>
</svg>
