<?xml version="1.0" encoding="UTF-8" standalone="no"?>
<svg width="16" height="16" viewBox="0 0 16 16" fill="none" version="1.1" id="svg4" sodipodi:docname="notes.svg" inkscape:version="1.1 (c68e22c387, 2021-05-23)"
   xmlns:inkscape="http://www.inkscape.org/namespaces/inkscape"
   xmlns:sodipodi="http://sodipodi.sourceforge.net/DTD/sodipodi-0.dtd"
   xmlns="http://www.w3.org/2000/svg"
   xmlns:svg="http://www.w3.org/2000/svg">
   <defs id="defs8" />
   <sodipodi:namedview id="namedview6" pagecolor="#505050" bordercolor="#ffffff" borderopacity="1" inkscape:pageshadow="0" inkscape:pageopacity="0" inkscape:pagecheckerboard="1" showgrid="false" inkscape:zoom="26.76923" inkscape:cx="8.7040232" inkscape:cy="12.383621" inkscape:window-width="1920" inkscape:window-height="1017" inkscape:window-x="-8" inkscape:window-y="-8" inkscape:window-maximized="1" inkscape:current-layer="svg4" />
   <path d="M 14.487627,2.5585896 13.448634,1.5194574 C 13.120425,1.1912645 12.655519,1 12.217907,1 11.78063,1 11.315835,1.1912645 10.987649,1.5194574 L 8.9367247,3.5703766 8.0069565,4.4999332 1.335165,11.171725 1.0070835,14.289104 C 0.95241438,14.672014 1.2532131,15 1.6359003,15 c 0.026448,0 0.054701,0 0.081161,0 l 3.1171791,-0.328097 6.6719916,-6.6720367 0.929813,-0.9295566 2.05069,-2.0509135 c 0.68349,-0.683545 0.68349,-1.7772616 0,-2.4608066 z M 4.2336164,13.413993 2.4016311,13.605392 2.5930081,11.773418 8.9093852,5.4294898 9.7571347,4.5819519 11.425127,6.2498997 10.577333,7.0974376 Z M 13.558037,4.0898396 12.354828,5.3203431 10.686691,3.6523953 11.91744,2.4492313 c 0.109291,-0.109336 0.245877,-0.1375669 0.300467,-0.1375669 0.0547,0 0.191623,0.02646 0.301025,0.1375669 l 1.039105,1.0391265 c 0.163993,0.1640152 0.163993,0.4372995 0,0.6014818 z" fill="#808080" id="path2" style="stroke-width:1.11408" />
</svg>
