<svg width="12" height="13" viewBox="0 0 12 13" fill="none" xmlns="http://www.w3.org/2000/svg">
<path d="M4.1091 7.06864C4.25632 7.06864 4.40359 6.94669 4.40359 6.77415V5.79235C4.40359 5.64514 4.25648 5.49787 4.1091 5.49787H3.1273C2.95539 5.49787 2.83282 5.64498 2.83282 5.79235V6.77415C2.83282 6.9459 2.9546 7.06864 3.1273 7.06864H4.1091ZM6.75984 6.77415V5.79235C6.75984 5.64514 6.61273 5.49787 6.46536 5.49787H5.48355C5.31164 5.49787 5.18888 5.64498 5.18888 5.79235V6.77415C5.18888 6.9459 5.31085 7.06864 5.48355 7.06864H6.46536C6.61257 7.06864 6.75984 6.94669 6.75984 6.77415ZM9.11609 6.77415V5.79235C9.11609 5.64514 8.96879 5.49787 8.82142 5.49787H7.8398C7.6679 5.49787 7.54513 5.64498 7.54513 5.79235V6.77415C7.54513 6.9459 7.66869 7.06864 7.8398 7.06864H8.82142C8.96863 7.06864 9.11609 6.94669 9.11609 6.77415ZM6.75984 9.13041V8.1486C6.75984 8.00139 6.61273 7.85412 6.46536 7.85412H5.48355C5.31164 7.85412 5.18888 8.00123 5.18888 8.1486V9.13041C5.18888 9.30216 5.31085 9.42489 5.48355 9.42489H6.46536C6.61257 9.42489 6.75984 9.30137 6.75984 9.13041ZM4.40359 9.13041V8.1486C4.40359 8.00139 4.25648 7.85412 4.1091 7.85412H3.1273C2.95539 7.85412 2.83282 8.00123 2.83282 8.1486V9.13041C2.83282 9.30216 2.9546 9.42489 3.1273 9.42489H4.1091C4.25632 9.42489 4.40359 9.30137 4.40359 9.13041ZM9.11609 9.13041V8.1486C9.11609 8.00139 8.96879 7.85412 8.82142 7.85412H7.8398C7.6679 7.85412 7.54513 8.00123 7.54513 8.1486V9.13041C7.54513 9.30216 7.66869 9.42489 7.8398 9.42489H8.82142C8.96863 9.42489 9.11609 9.30137 9.11609 9.13041ZM11.4723 2.74897C11.4723 2.11088 10.9321 1.57084 10.294 1.57084H9.11609V0.294554C9.11609 0.147341 8.96879 -0.00012207 8.82142 -0.00012207H7.8398C7.6679 -0.00012207 7.54513 0.147182 7.54513 0.294554V1.57084H4.40359V0.294554C4.40359 0.147341 4.25648 -0.00012207 4.1091 -0.00012207H3.1273C2.95539 -0.00012207 2.83282 0.147182 2.83282 0.294554V1.57084H1.65469C0.99191 1.57084 0.476562 2.11088 0.476562 2.74897V11.3883C0.476562 12.0511 0.99191 12.5664 1.65469 12.5664H10.294C10.9321 12.5664 11.4723 12.0511 11.4723 11.3883V2.74897ZM10.294 11.2411C10.294 11.3392 10.2214 11.3883 10.147 11.3883H1.80193C1.70379 11.3883 1.65469 11.3392 1.65469 11.2411V3.9271H10.294V11.2411Z" fill="black"/>
</svg>
