<svg width="7" height="12" viewBox="0 0 7 12" fill="none" xmlns="http://www.w3.org/2000/svg">
<path d="M4.03177 9.2076C4.03177 8.8562 3.72171 8.54614 3.37032 8.54614C2.99825 8.54614 2.70886 8.8562 2.70886 9.2076C2.70886 9.57967 2.99825 9.86906 3.37032 9.86906C3.72171 9.86906 4.03177 9.57967 4.03177 9.2076ZM6.6776 1.60085C6.6776 1.06342 6.22284 0.608673 5.68541 0.608673H1.05522C0.497119 0.608673 0.0630341 1.06342 0.0630341 1.60085V10.1998C0.0630341 10.7579 0.497119 11.192 1.05522 11.192H5.68541C6.22284 11.192 6.6776 10.7579 6.6776 10.1998V1.60085ZM5.68541 10.0758C5.68541 10.1585 5.6234 10.1998 5.56139 10.1998H1.17924C1.09656 10.1998 1.05522 10.1585 1.05522 10.0758V1.72488C1.05522 1.66288 1.09655 1.60085 1.17924 1.60085H5.56139C5.6234 1.60085 5.68541 1.66285 5.68541 1.72488V10.0758Z" fill="#808080"/>
</svg>
