<svg width="25" height="24" viewBox="0 0 25 24" fill="none" xmlns="http://www.w3.org/2000/svg">
<path d="M7.59998 19H17.6C17.5333 18.1833 17.2833 17.4333 16.85 16.75C16.4166 16.0667 15.85 15.525 15.15 15.125L16.1 13.425C16.1333 13.3583 16.1416 13.2833 16.125 13.2C16.1083 13.1167 16.0583 13.0583 15.975 13.025C15.9083 12.9917 15.8376 12.9833 15.763 13C15.6876 13.0167 15.6333 13.0583 15.6 13.125L14.625 14.875C14.2916 14.7417 13.9583 14.6373 13.625 14.562C13.2916 14.4873 12.95 14.45 12.6 14.45C12.25 14.45 11.9083 14.4873 11.575 14.562C11.2416 14.6373 10.9083 14.7417 10.575 14.875L9.59998 13.125C9.56664 13.0417 9.51264 13 9.43798 13C9.36264 13 9.28331 13.0167 9.19998 13.05L9.09998 13.425L10.05 15.125C9.34998 15.525 8.78331 16.0667 8.34998 16.75C7.91664 17.4333 7.66664 18.1833 7.59998 19ZM10.35 17.5C10.2166 17.5 10.1 17.45 9.99998 17.35C9.89998 17.25 9.84998 17.1333 9.84998 17C9.84998 16.8667 9.89998 16.75 9.99998 16.65C10.1 16.55 10.2166 16.5 10.35 16.5C10.4833 16.5 10.6 16.55 10.7 16.65C10.8 16.75 10.85 16.8667 10.85 17C10.85 17.1333 10.8 17.25 10.7 17.35C10.6 17.45 10.4833 17.5 10.35 17.5ZM14.85 17.5C14.7166 17.5 14.6 17.45 14.5 17.35C14.4 17.25 14.35 17.1333 14.35 17C14.35 16.8667 14.4 16.75 14.5 16.65C14.6 16.55 14.7166 16.5 14.85 16.5C14.9833 16.5 15.1 16.55 15.2 16.65C15.3 16.75 15.35 16.8667 15.35 17C15.35 17.1333 15.3 17.25 15.2 17.35C15.1 17.45 14.9833 17.5 14.85 17.5ZM6.59998 22C6.04998 22 5.57931 21.8043 5.18798 21.413C4.79598 21.021 4.59998 20.55 4.59998 20V4C4.59998 3.45 4.79598 2.979 5.18798 2.587C5.57931 2.19567 6.04998 2 6.59998 2H14.6L20.6 8V20C20.6 20.55 20.4043 21.021 20.013 21.413C19.621 21.8043 19.15 22 18.6 22H6.59998ZM13.6 9V4H6.59998V20H18.6V9H13.6Z" fill="#0086FF"/>
</svg>
