<svg width="24" height="24" viewBox="0 0 24 24" fill="none" xmlns="http://www.w3.org/2000/svg">
<path d="M7 19H17C16.9333 18.1833 16.6833 17.4333 16.25 16.75C15.8167 16.0667 15.25 15.525 14.55 15.125L15.5 13.425C15.5333 13.3583 15.5417 13.2833 15.525 13.2C15.5083 13.1167 15.4583 13.0583 15.375 13.025C15.3083 12.9917 15.2377 12.9833 15.163 13C15.0877 13.0167 15.0333 13.0583 15 13.125L14.025 14.875C13.6917 14.7417 13.3583 14.6373 13.025 14.562C12.6917 14.4873 12.35 14.45 12 14.45C11.65 14.45 11.3083 14.4873 10.975 14.562C10.6417 14.6373 10.3083 14.7417 9.975 14.875L9 13.125C8.96667 13.0417 8.91267 13 8.838 13C8.76267 13 8.68333 13.0167 8.6 13.05L8.5 13.425L9.45 15.125C8.75 15.525 8.18333 16.0667 7.75 16.75C7.31667 17.4333 7.06667 18.1833 7 19ZM9.75 17.5C9.61667 17.5 9.5 17.45 9.4 17.35C9.3 17.25 9.25 17.1333 9.25 17C9.25 16.8667 9.3 16.75 9.4 16.65C9.5 16.55 9.61667 16.5 9.75 16.5C9.88333 16.5 10 16.55 10.1 16.65C10.2 16.75 10.25 16.8667 10.25 17C10.25 17.1333 10.2 17.25 10.1 17.35C10 17.45 9.88333 17.5 9.75 17.5ZM14.25 17.5C14.1167 17.5 14 17.45 13.9 17.35C13.8 17.25 13.75 17.1333 13.75 17C13.75 16.8667 13.8 16.75 13.9 16.65C14 16.55 14.1167 16.5 14.25 16.5C14.3833 16.5 14.5 16.55 14.6 16.65C14.7 16.75 14.75 16.8667 14.75 17C14.75 17.1333 14.7 17.25 14.6 17.35C14.5 17.45 14.3833 17.5 14.25 17.5ZM6 22C5.45 22 4.97933 21.8043 4.588 21.413C4.196 21.021 4 20.55 4 20V4C4 3.45 4.196 2.979 4.588 2.587C4.97933 2.19567 5.45 2 6 2H14L20 8V20C20 20.55 19.8043 21.021 19.413 21.413C19.021 21.8043 18.55 22 18 22H6ZM13 9V4H6V20H18V9H13Z" fill="#0086FF"/>
</svg>
