<svg width="25" height="24" viewBox="0 0 25 24" fill="none" xmlns="http://www.w3.org/2000/svg">
<path d="M20.2 2H8.20001C7.10001 2 6.20001 2.9 6.20001 4V16C6.20001 17.1 7.10001 18 8.20001 18H20.2C21.3 18 22.2 17.1 22.2 16V4C22.2 2.9 21.3 2 20.2 2ZM20.2 16H8.20001V4H20.2V16ZM4.20001 6H2.20001V20C2.20001 21.1 3.10001 22 4.20001 22H18.2V20H4.20001V6Z" fill="#0086FF"/>
<path d="M14.8619 11.6124H13.1802C13.1802 11.2686 13.2037 10.9659 13.2505 10.7042C13.3013 10.4385 13.3873 10.2003 13.5084 9.98932C13.6295 9.77838 13.7935 9.58307 14.0005 9.40338C14.1841 9.25104 14.3423 9.10455 14.4752 8.96393C14.608 8.8233 14.7095 8.68073 14.7798 8.53619C14.8502 8.39166 14.8853 8.23737 14.8853 8.0733C14.8853 7.87018 14.856 7.70416 14.7974 7.57526C14.7427 7.44635 14.6588 7.35065 14.5455 7.28815C14.4361 7.22174 14.2974 7.18854 14.1295 7.18854C13.9927 7.18854 13.8638 7.22174 13.7427 7.28815C13.6255 7.35455 13.5298 7.45807 13.4556 7.59869C13.3814 7.73541 13.3404 7.91705 13.3326 8.14362H11.3463C11.358 7.56158 11.4869 7.08893 11.733 6.72565C11.983 6.35846 12.315 6.09088 12.7291 5.92291C13.147 5.75104 13.6138 5.6651 14.1295 5.6651C14.6998 5.6651 15.19 5.75299 15.6002 5.92877C16.0103 6.10455 16.3248 6.36627 16.5435 6.71393C16.7623 7.05768 16.8716 7.48151 16.8716 7.98541C16.8716 8.32135 16.8072 8.61432 16.6783 8.86432C16.5533 9.11041 16.3834 9.34088 16.1685 9.55573C15.9576 9.76666 15.7213 9.99323 15.4595 10.2354C15.233 10.4346 15.0787 10.6378 14.9966 10.8448C14.9146 11.0479 14.8697 11.3038 14.8619 11.6124ZM12.94 13.3936C12.94 13.1124 13.0416 12.878 13.2447 12.6905C13.4478 12.4991 13.7115 12.4034 14.0357 12.4034C14.3599 12.4034 14.6236 12.4991 14.8267 12.6905C15.0298 12.878 15.1314 13.1124 15.1314 13.3936C15.1314 13.6749 15.0298 13.9112 14.8267 14.1026C14.6236 14.2901 14.3599 14.3839 14.0357 14.3839C13.7115 14.3839 13.4478 14.2901 13.2447 14.1026C13.0416 13.9112 12.94 13.6749 12.94 13.3936Z" fill="#0086FF"/>
</svg>
