<svg width="24" height="24" viewBox="0 0 24 24" fill="none" xmlns="http://www.w3.org/2000/svg">
<path d="M20 2H8C6.9 2 6 2.9 6 4V16C6 17.1 6.9 18 8 18H20C21.1 18 22 17.1 22 16V4C22 2.9 21.1 2 20 2ZM20 16H8V4H20V16ZM4 6H2V20C2 21.1 2.9 22 4 22H18V20H4V6Z" fill="#0086FF"/>
<path d="M14.6619 11.6124H12.9802C12.9802 11.2686 13.0037 10.9659 13.0505 10.7042C13.1013 10.4385 13.1873 10.2003 13.3083 9.98932C13.4294 9.77838 13.5935 9.58307 13.8005 9.40338C13.9841 9.25104 14.1423 9.10455 14.2751 8.96393C14.408 8.8233 14.5095 8.68073 14.5798 8.53619C14.6501 8.39166 14.6853 8.23737 14.6853 8.0733C14.6853 7.87018 14.656 7.70416 14.5974 7.57526C14.5427 7.44635 14.4587 7.35065 14.3455 7.28815C14.2361 7.22174 14.0974 7.18854 13.9294 7.18854C13.7927 7.18854 13.6638 7.22174 13.5427 7.28815C13.4255 7.35455 13.3298 7.45807 13.2556 7.59869C13.1814 7.73541 13.1404 7.91705 13.1326 8.14362H11.1462C11.158 7.56158 11.2869 7.08893 11.533 6.72565C11.783 6.35846 12.115 6.09088 12.5291 5.92291C12.947 5.75104 13.4138 5.6651 13.9294 5.6651C14.4998 5.6651 14.99 5.75299 15.4001 5.92877C15.8103 6.10455 16.1248 6.36627 16.3435 6.71393C16.5623 7.05768 16.6716 7.48151 16.6716 7.98541C16.6716 8.32135 16.6072 8.61432 16.4783 8.86432C16.3533 9.11041 16.1833 9.34088 15.9685 9.55573C15.7576 9.76666 15.5212 9.99323 15.2595 10.2354C15.033 10.4346 14.8787 10.6378 14.7966 10.8448C14.7146 11.0479 14.6697 11.3038 14.6619 11.6124ZM12.74 13.3936C12.74 13.1124 12.8416 12.878 13.0447 12.6905C13.2478 12.4991 13.5115 12.4034 13.8357 12.4034C14.1599 12.4034 14.4236 12.4991 14.6267 12.6905C14.8298 12.878 14.9314 13.1124 14.9314 13.3936C14.9314 13.6749 14.8298 13.9112 14.6267 14.1026C14.4236 14.2901 14.1599 14.3839 13.8357 14.3839C13.5115 14.3839 13.2478 14.2901 13.0447 14.1026C12.8416 13.9112 12.74 13.6749 12.74 13.3936Z" fill="#0086FF"/>
</svg>
