<svg width="24" height="24" viewBox="0 0 24 24" fill="none" xmlns="http://www.w3.org/2000/svg">
<path d="M8.17 6L10.17 8H19V9H21V8C21 6.9 20.1 6 19 6H11L9 4H3C1.9 4 1.01 4.9 1.01 6L1 18C1 19.1 1.9 20 3 20H10V18H3V6H8.17Z" fill="#0086FF"/>
<path fill-rule="evenodd" clip-rule="evenodd" d="M23 20.4213L23.037 18H21L20.963 19.963H14.037V13.037H16V11H13.5787C12.7133 11 12 11.7133 12 12.5787V20.4213C12 21.2867 12.7133 22 13.5787 22H21.4213C22.2867 22 23 21.2867 23 20.4213Z" fill="#0086FF"/>
<path fill-rule="evenodd" clip-rule="evenodd" d="M23 11H18V13.037H19.5226L14.7752 17.7845L16.2155 19.2248L20.963 14.4774V16H23V11Z" fill="#0086FF"/>
</svg>
