<svg width="24" height="24" viewBox="0 0 24 24" fill="none" xmlns="http://www.w3.org/2000/svg">
<path d="M8.17 4L10.17 6H19V9H21V6C21 4.9 20.1 4 19 4H11L9 2H3C1.9 2 1.01 2.9 1.01 4L1 16C1 17.1 1.9 18 3 18H10V16H3V4H8.17Z" fill="#0086FF"/>
<path fill-rule="evenodd" clip-rule="evenodd" d="M23 20.4213L23.037 18H21L20.963 19.963H14.037V13.037H16V11H13.5787C12.7133 11 12 11.7133 12 12.5787V20.4213C12 21.2867 12.7133 22 13.5787 22H21.4213C22.2867 22 23 21.2867 23 20.4213Z" fill="#0086FF"/>
<path fill-rule="evenodd" clip-rule="evenodd" d="M23 11H18V13.037H19.5226L14.7752 17.7845L16.2155 19.2248L20.963 14.4774V16H23V11Z" fill="#0086FF"/>
</svg>
