<svg width="24" height="24" viewBox="0 0 24 24" fill="none" xmlns="http://www.w3.org/2000/svg">
<path d="M8.17 4L10.17 6H19V9H21V6C21 4.9 20.1 4 19 4H11L9 2H3C1.9 2 1.01 2.9 1.01 4L1 16C1 17.1 1.9 18 3 18H12V16H3V4H8.17Z" fill="#0086FF"/>
<path fill-rule="evenodd" clip-rule="evenodd" d="M22 16V14.5C22 12.567 20.4331 11 18.5 11C16.5669 11 15 12.567 15 14.5V16H15.3369C15.8987 17.1825 17.1038 18 18.5 18C19.8962 18 21.1013 17.1825 21.6631 16H22ZM18.5 13C19.3284 13 20 13.6716 20 14.5V17H17V14.5C17 13.6716 17.6716 13 18.5 13Z" fill="#0086FF"/>
<rect x="14" y="16" width="9" height="6" rx="1" fill="#0086FF"/>
</svg>
