<svg width="25" height="24" viewBox="0 0 25 24" fill="none" xmlns="http://www.w3.org/2000/svg">
<path d="M8.97005 4L10.97 6H19.8V9H21.8V6C21.8 4.9 20.9 4 19.8 4H11.8L9.80005 2H3.80005C2.70005 2 1.81005 2.9 1.81005 4L1.80005 16C1.80005 17.1 2.70005 18 3.80005 18H10.8V16H3.80005V4H8.97005Z" fill="#0086FF"/>
<path fill-rule="evenodd" clip-rule="evenodd" d="M14.175 22H22.425C22.8046 22 23.1287 21.8657 23.3972 21.5972C23.6658 21.3286 23.8 21.0046 23.8 20.625V12.375C23.8 11.9954 23.6658 11.6714 23.3972 11.4028C23.1287 11.1343 22.8046 11 22.425 11H19.3313C19.4244 11 19.505 11.034 19.573 11.1021C19.641 11.1701 19.675 11.2507 19.675 11.3438C19.675 11.4368 19.641 11.5174 19.573 11.5854C19.505 11.6535 19.4244 11.6875 19.3313 11.6875H18.9875V12.375H19.3313C19.4244 12.375 19.505 12.409 19.573 12.4771C19.641 12.5451 19.675 12.6257 19.675 12.7188C19.675 12.8118 19.641 12.8924 19.573 12.9604C19.505 13.0285 19.4244 13.0625 19.3313 13.0625H18.9875V13.75H19.3313C19.4244 13.75 19.505 13.784 19.573 13.8521C19.641 13.9201 19.675 14.0007 19.675 14.0938C19.675 14.1868 19.641 14.2674 19.573 14.3354C19.505 14.4035 19.4244 14.4375 19.3313 14.4375H18.9875V15.125H19.3313C19.4244 15.125 19.505 15.159 19.573 15.2271C19.641 15.2951 19.675 15.3757 19.675 15.4688C19.675 15.5618 19.641 15.6424 19.573 15.7104C19.505 15.7785 19.4244 15.8125 19.3313 15.8125H18.9875V16.5H19.3313C19.4244 16.5 19.505 16.534 19.573 16.6021C19.641 16.6701 19.675 16.7507 19.675 16.8438C19.675 16.9368 19.641 17.0174 19.573 17.0854C19.5168 17.1416 19.4521 17.1746 19.3788 17.1844C19.6337 17.3656 19.8 17.6634 19.8 18V20C19.8 20.5523 19.3523 21 18.8 21H17.8C17.2478 21 16.8 20.5523 16.8 20V18C16.8 17.5118 17.1499 17.1053 17.6125 17.0175V16.5H17.2688C17.1757 16.5 17.0951 16.466 17.0271 16.3979C16.9591 16.3299 16.925 16.2493 16.925 16.1562C16.925 16.0632 16.9591 15.9826 17.0271 15.9146C17.0951 15.8465 17.1757 15.8125 17.2688 15.8125H17.6125V15.125H17.2688C17.1757 15.125 17.0951 15.091 17.0271 15.0229C16.9591 14.9549 16.925 14.8743 16.925 14.7812C16.925 14.6882 16.9591 14.6076 17.0271 14.5396C17.0951 14.4715 17.1757 14.4375 17.2688 14.4375H17.6125V13.75H17.2688C17.1757 13.75 17.0951 13.716 17.0271 13.6479C16.9591 13.5799 16.925 13.4993 16.925 13.4062C16.925 13.3132 16.9591 13.2326 17.0271 13.1646C17.0951 13.0965 17.1757 13.0625 17.2688 13.0625H17.6125V12.375H17.2688C17.1757 12.375 17.0951 12.341 17.0271 12.2729C16.9591 12.2049 16.925 12.1243 16.925 12.0312C16.925 11.9382 16.9591 11.8576 17.0271 11.7896C17.0951 11.7215 17.1757 11.6875 17.2688 11.6875H17.6125V11H14.175C13.7955 11 13.4714 11.1343 13.2029 11.4028C12.9343 11.6714 12.8 11.9954 12.8 12.375V20.625C12.8 21.0046 12.9343 21.3286 13.2029 21.5972C13.4714 21.8657 13.7955 22 14.175 22Z" fill="#0086FF"/>
<circle cx="18.3" cy="19.5" r="0.5" fill="#0086FF"/>
</svg>
