<svg width="24" height="24" viewBox="0 0 24 24" fill="none" xmlns="http://www.w3.org/2000/svg">
<path d="M17.5 16.5C19.0194 16.5 20.25 15.2694 20.25 13.75C20.25 12.2306 19.0194 11 17.5 11C15.9806 11 14.75 12.2306 14.75 13.75C14.75 15.2694 15.9806 16.5 17.5 16.5ZM17.5 17.875C15.6644 17.875 12 18.7962 12 20.625V22H23V20.625C23 18.7962 19.3356 17.875 17.5 17.875Z" fill="#0086FF"/>
<path d="M8.17 4L10.17 6H19V9H21V6C21 4.9 20.1 4 19 4H11L9 2H3C1.9 2 1.01 2.9 1.01 4L1 16C1 17.1 1.9 18 3 18H10V16H3V4H8.17Z" fill="#0086FF"/>
</svg>
