<svg width="25" height="24" viewBox="0 0 25 24" fill="none" xmlns="http://www.w3.org/2000/svg">
<path d="M14.3999 2H6.3999C5.2999 2 4.4099 2.9 4.4099 4L4.3999 20C4.3999 21.1 5.2899 22 6.3899 22H18.3999C19.4999 22 20.3999 21.1 20.3999 20V8L14.3999 2ZM6.3999 20V4H13.3999V9H18.3999V20H6.3999Z" fill="#44B04C"/>
<rect x="8.40405" y="11" width="1.00199" height="6.99448" fill="#44B04C"/>
<rect x="11.3999" y="11.0099" width="1.00199" height="6.99448" fill="#44B04C"/>
<rect x="15.4001" y="11.0099" width="1.00199" height="6.99448" fill="#44B04C"/>
<rect x="8.40405" y="11" width="7.99809" height="0.986206" fill="#44B04C"/>
<rect x="8.4314" y="14" width="7.99809" height="0.986206" fill="#44B04C"/>
<rect x="8.40088" y="17.0083" width="7.99809" height="0.986206" fill="#44B04C"/>
</svg>
