<svg width="73" height="72" viewBox="0 0 73 72" fill="none" xmlns="http://www.w3.org/2000/svg">
<g clip-path="url(#clip0_3001_5597)">
<rect x="0.333435" width="72" height="72" fill="url(#paint0_linear_3001_5597)"/>
<rect x="0.333435" width="72" height="72" fill="url(#paint1_linear_3001_5597)"/>
<rect x="0.333435" width="72" height="72" fill="#AF1571"/>
<rect x="0.333435" width="72" height="72" fill="#F2265F"/>
<rect x="0.333435" width="72" height="72" fill="url(#paint2_linear_3001_5597)"/>
<g filter="url(#filter0_d_3001_5597)">
<path d="M0.333435 18.6207H72.3334V38.4828C72.3334 47.3955 65.1082 54.6207 56.1955 54.6207H0.333435V18.6207Z" fill="#DF6B56"/>
<path d="M0.333435 18.6207H72.3334V38.4828C72.3334 47.3955 65.1082 54.6207 56.1955 54.6207H0.333435V18.6207Z" fill="#FF7401"/>
</g>
<g filter="url(#filter1_d_3001_5597)">
<path d="M0.333435 0H72.3334V21.1034C72.3334 30.0162 65.1082 37.2414 56.1955 37.2414H0.333435V0Z" fill="#0086FF"/>
<path d="M0.333435 0H72.3334V21.1034C72.3334 30.0162 65.1082 37.2414 56.1955 37.2414H0.333435V0Z" fill="#01C5FF"/>
</g>
<g filter="url(#filter2_d_3001_5597)">
<path d="M0.333435 0H57.4369C60.1793 0 62.4024 2.22314 62.4024 4.96552V67.0345C62.4024 69.7769 60.1793 72 57.4369 72H0.333435V0Z" fill="url(#paint3_linear_3001_5597)"/>
</g>
<g filter="url(#filter3_dd_3001_5597)">
<path fill-rule="evenodd" clip-rule="evenodd" d="M31.3405 17.3965C27.0218 17.4448 22.5766 21.1093 23.1003 26.1134C23.1508 26.5989 23.2013 27.1743 23.2528 27.7615C23.3237 28.5687 23.3964 29.3981 23.4739 30.0468C23.4759 30.0704 23.4786 30.0948 23.4813 30.1198C23.5022 30.3148 23.5267 30.542 23.3264 30.6278C22.8653 30.8307 22.8653 31.1351 22.8653 31.5501C22.8932 31.7883 22.9505 32.0222 23.0359 32.2464C23.0745 32.4341 23.1116 32.6221 23.1486 32.8102C23.24 33.2738 23.3314 33.7377 23.4462 34.1969C23.5003 34.7307 23.6997 35.2395 24.0226 35.668C24.4362 36.1169 24.7504 36.6479 24.9448 37.2265C25.1265 37.7402 25.3159 38.1024 25.5076 38.469C25.6807 38.8 25.8556 39.1346 26.0285 39.5876C26.1286 39.8273 26.1817 40.084 26.1852 40.3438C26.1803 40.5377 26.1747 40.7287 26.1691 40.9178C26.154 41.4347 26.1393 41.938 26.1393 42.4511C26.2043 43.8212 26.0285 45.7211 22.8605 47.0716C21.8253 47.5129 21.0104 47.7825 20.2229 48.043C19.2494 48.3651 18.3177 48.6733 17.0636 49.2749C17.0135 49.299 16.9574 49.3307 16.8974 49.3685C15.2971 50.1523 14.195 51.7969 14.195 53.699C14.195 54.1988 14.6002 54.604 15.1 54.604H47.6358C48.1356 54.604 48.5408 54.1988 48.5408 53.699C48.5408 51.6772 47.2955 49.9461 45.5302 49.2307C44.3141 48.663 43.4112 48.347 42.4752 48.0195C41.6666 47.7365 40.8332 47.4448 39.7517 46.9747C36.7809 45.6833 36.7054 43.5343 36.6771 42.731C36.6752 42.6777 36.6736 42.6303 36.6713 42.5895C36.6575 42.2697 36.6388 41.9514 36.62 41.6329C36.6074 41.4187 36.5948 41.2044 36.5837 40.9893C36.5138 40.3538 36.6341 39.7118 36.9295 39.1448C37.0211 38.969 37.1055 38.8093 37.1837 38.6612C37.5811 37.9087 37.8188 37.4587 38.027 36.7516C38.0581 36.5484 38.1366 36.3554 38.2559 36.188C38.3753 36.0206 38.5322 35.8836 38.7141 35.7879C38.7836 35.7534 38.8432 35.7018 38.8875 35.6382C38.9318 35.5745 38.9595 35.5007 38.9677 35.4236C39.0318 35.1881 39.0972 34.9526 39.1627 34.717C39.3704 33.9696 39.5787 33.2203 39.7469 32.4631C39.7502 32.4481 39.7536 32.4331 39.7569 32.4181C39.8928 31.8041 40.0364 31.1548 39.4243 30.6417C39.3621 30.5735 39.3167 30.4917 39.2919 30.4028C39.2671 30.3139 39.2635 30.2204 39.2813 30.1299C39.4012 28.9402 39.558 27.2524 39.6364 26.0627C39.9881 20.9923 35.7263 17.3475 31.3405 17.3965Z" fill="url(#paint4_linear_3001_5597)"/>
</g>
</g>
<defs>
<filter id="filter0_d_3001_5597" x="-2.14932" y="18.6207" width="76.9655" height="40.9655" filterUnits="userSpaceOnUse" color-interpolation-filters="sRGB">
<feFlood flood-opacity="0" result="BackgroundImageFix"/>
<feColorMatrix in="SourceAlpha" type="matrix" values="0 0 0 0 0 0 0 0 0 0 0 0 0 0 0 0 0 0 127 0" result="hardAlpha"/>
<feOffset dy="2.48276"/>
<feGaussianBlur stdDeviation="1.24138"/>
<feComposite in2="hardAlpha" operator="out"/>
<feColorMatrix type="matrix" values="0 0 0 0 0.117647 0 0 0 0 0.129412 0 0 0 0 0.341176 0 0 0 0.05 0"/>
<feBlend mode="normal" in2="BackgroundImageFix" result="effect1_dropShadow_3001_5597"/>
<feBlend mode="normal" in="SourceGraphic" in2="effect1_dropShadow_3001_5597" result="shape"/>
</filter>
<filter id="filter1_d_3001_5597" x="-2.14932" y="0" width="76.9655" height="42.2069" filterUnits="userSpaceOnUse" color-interpolation-filters="sRGB">
<feFlood flood-opacity="0" result="BackgroundImageFix"/>
<feColorMatrix in="SourceAlpha" type="matrix" values="0 0 0 0 0 0 0 0 0 0 0 0 0 0 0 0 0 0 127 0" result="hardAlpha"/>
<feOffset dy="2.48276"/>
<feGaussianBlur stdDeviation="1.24138"/>
<feComposite in2="hardAlpha" operator="out"/>
<feColorMatrix type="matrix" values="0 0 0 0 0.119583 0 0 0 0 0.128467 0 0 0 0 0.341667 0 0 0 0.08 0"/>
<feBlend mode="normal" in2="BackgroundImageFix" result="effect1_dropShadow_3001_5597"/>
<feBlend mode="normal" in="SourceGraphic" in2="effect1_dropShadow_3001_5597" result="shape"/>
</filter>
<filter id="filter2_d_3001_5597" x="0.333435" y="-2.48276" width="67.0345" height="76.9655" filterUnits="userSpaceOnUse" color-interpolation-filters="sRGB">
<feFlood flood-opacity="0" result="BackgroundImageFix"/>
<feColorMatrix in="SourceAlpha" type="matrix" values="0 0 0 0 0 0 0 0 0 0 0 0 0 0 0 0 0 0 127 0" result="hardAlpha"/>
<feOffset dx="2.48276"/>
<feGaussianBlur stdDeviation="1.24138"/>
<feComposite in2="hardAlpha" operator="out"/>
<feColorMatrix type="matrix" values="0 0 0 0 0.163281 0 0 0 0 0.170883 0 0 0 0 0.229167 0 0 0 0.1 0"/>
<feBlend mode="normal" in2="BackgroundImageFix" result="effect1_dropShadow_3001_5597"/>
<feBlend mode="normal" in="SourceGraphic" in2="effect1_dropShadow_3001_5597" result="shape"/>
</filter>
<filter id="filter3_dd_3001_5597" x="10.4709" y="13.6719" width="41.7941" height="44.6562" filterUnits="userSpaceOnUse" color-interpolation-filters="sRGB">
<feFlood flood-opacity="0" result="BackgroundImageFix"/>
<feColorMatrix in="SourceAlpha" type="matrix" values="0 0 0 0 0 0 0 0 0 0 0 0 0 0 0 0 0 0 127 0" result="hardAlpha"/>
<feOffset/>
<feGaussianBlur stdDeviation="1.86207"/>
<feComposite in2="hardAlpha" operator="out"/>
<feColorMatrix type="matrix" values="0 0 0 0 0.565365 0 0 0 0 0.601896 0 0 0 0 0.695833 0 0 0 0.25 0"/>
<feBlend mode="normal" in2="BackgroundImageFix" result="effect1_dropShadow_3001_5597"/>
<feColorMatrix in="SourceAlpha" type="matrix" values="0 0 0 0 0 0 0 0 0 0 0 0 0 0 0 0 0 0 127 0" result="hardAlpha"/>
<feOffset dy="1.24138"/>
<feGaussianBlur stdDeviation="0.62069"/>
<feComposite in2="hardAlpha" operator="out"/>
<feColorMatrix type="matrix" values="0 0 0 0 1 0 0 0 0 1 0 0 0 0 1 0 0 0 0.25 0"/>
<feBlend mode="normal" in2="effect1_dropShadow_3001_5597" result="effect2_dropShadow_3001_5597"/>
<feBlend mode="normal" in="SourceGraphic" in2="effect2_dropShadow_3001_5597" result="shape"/>
</filter>
<linearGradient id="paint0_linear_3001_5597" x1="36.3334" y1="-73.8621" x2="36.3334" y2="36" gradientUnits="userSpaceOnUse">
<stop stop-color="#0086FF"/>
<stop offset="1" stop-color="#7B00DC"/>
</linearGradient>
<linearGradient id="paint1_linear_3001_5597" x1="36.3334" y1="-73.8621" x2="36.3334" y2="36" gradientUnits="userSpaceOnUse">
<stop stop-color="#0086FF"/>
<stop offset="1" stop-color="#5404B9"/>
</linearGradient>
<linearGradient id="paint2_linear_3001_5597" x1="36.3334" y1="13.2846" x2="36.3334" y2="75.9568" gradientUnits="userSpaceOnUse">
<stop stop-color="#FF3434"/>
<stop offset="1" stop-color="#FF0953"/>
</linearGradient>
<linearGradient id="paint3_linear_3001_5597" x1="31.3679" y1="0" x2="31.3679" y2="72" gradientUnits="userSpaceOnUse">
<stop stop-color="#B8E7F2"/>
<stop offset="1" stop-color="#9FC7D1"/>
</linearGradient>
<linearGradient id="paint4_linear_3001_5597" x1="31.3896" y1="48.8797" x2="31.3896" y2="96.8207" gradientUnits="userSpaceOnUse">
<stop stop-color="white"/>
<stop offset="1" stop-color="#CBCEEA"/>
</linearGradient>
<clipPath id="clip0_3001_5597">
<rect x="0.333435" width="72" height="72" rx="16.1379" fill="white"/>
</clipPath>
</defs>
</svg>
