<?xml version="1.0" encoding="UTF-8" standalone="no"?>
<svg width="14.56652" height="14.56652" viewBox="0 0 14.56652 14.56652" fill="none" version="1.1" id="svg4" sodipodi:docname="app.svg" inkscape:version="1.1 (c68e22c387, 2021-05-23)"
   xmlns:inkscape="http://www.inkscape.org/namespaces/inkscape"
   xmlns:sodipodi="http://sodipodi.sourceforge.net/DTD/sodipodi-0.dtd"
   xmlns="http://www.w3.org/2000/svg"
   xmlns:svg="http://www.w3.org/2000/svg">
   <defs id="defs8" />
   <sodipodi:namedview id="namedview6" pagecolor="#505050" bordercolor="#ffffff" borderopacity="1" inkscape:pageshadow="0" inkscape:pageopacity="0" inkscape:pagecheckerboard="1" showgrid="false" inkscape:zoom="32" inkscape:cx="8.65625" inkscape:cy="5.171875" inkscape:window-width="1920" inkscape:window-height="1017" inkscape:window-x="-8" inkscape:window-y="-8" inkscape:window-maximized="1" inkscape:current-layer="svg4" width="14.56652px" />
   <path d="m 11.49884,6.6824271 c 0.826242,0 1.502445,-0.6573739 1.502445,-1.5023753 0,-0.8262333 -0.676203,-1.5022299 -1.502445,-1.5022299 -0.845062,0 -1.5022152,0.6759966 -1.5022152,1.5022299 0,0.8450014 0.6571532,1.5023753 1.5022152,1.5023753 z m 0,-2.1032076 c 0.31928,0 0.60084,0.2815754 0.60084,0.6008323 0,0.3380252 -0.28156,0.6009776 -0.60084,0.6009776 -0.338025,0 -0.600916,-0.2629524 -0.600916,-0.6009776 0,-0.3192569 0.262891,-0.6008323 0.600916,-0.6008323 z M 3.0859019,6.6824271 c 0.8263482,0 1.5025207,-0.6573739 1.5025207,-1.5023753 0,-0.8262333 -0.6761725,-1.5022299 -1.5025207,-1.5022299 -0.8450013,0 -1.5022269,0.6759966 -1.5022269,1.5022299 0,0.8450014 0.6572256,1.5023753 1.5022269,1.5023753 z m 0,-2.1032076 c 0.3192494,0 0.6009777,0.2815754 0.6009777,0.6008323 0,0.3380252 -0.2817283,0.6009776 -0.6009777,0.6009776 -0.338025,0 -0.6008321,-0.2629524 -0.6008321,-0.6009776 0,-0.3192569 0.2628071,-0.6008323 0.6008321,-0.6008323 z M 10.522408,8.541542 C 9.9966248,7.7904041 9.0012948,7.4898694 8.1186041,7.7715824 7.8557893,7.8466702 7.574168,7.8842371 7.2736868,7.8842371 6.9919737,7.8842371 6.710207,7.8466697 6.4473921,7.7715824 5.5647244,7.4898694 4.5507487,7.7716284 4.0437723,8.541542 3.8183789,8.8983429 3.6681039,9.3113486 3.6681039,9.7621278 v 0.8263252 c 0,0.506961 0.41322,0.901222 0.9015431,0.901222 h 5.4082325 c 0.5069615,0 0.9012235,-0.394261 0.9012235,-0.901222 V 9.7621278 C 10.897312,9.3113486 10.747733,8.8983429 10.522408,8.541542 Z M 9.9966248,10.588453 H 4.5884226 V 9.7621278 c 0,-0.6948183 0.5443903,-1.2581374 1.2204403,-1.276913 0.4694326,0.2066176 0.9766233,0.3004122 1.4835996,0.3004122 0.4882006,0 0.9952381,-0.094398 1.4646708,-0.3004122 0.6760653,0.018164 1.2394915,0.5820947 1.2394915,1.276913 z M 11.724164,7.2834047 h -0.450571 c -0.338026,0 -0.638637,0.1125404 -0.882631,0.2814912 0.243994,0.1878419 0.469395,0.4132659 0.638331,0.6760808 0.07513,-0.018164 0.150421,-0.055738 0.225477,-0.055738 h 0.45065 c 0.375592,0 0.67605,0.3192876 0.67605,0.6760883 0,0.2629373 0.20658,0.4506185 0.450649,0.4506185 0.262967,0 0.450803,-0.1876812 0.450803,-0.4506185 0.01813,-0.8637773 -0.694872,-1.5773331 -1.558758,-1.5773331 z m -4.4317015,0 c 1.1454826,0 2.1031693,-0.9391022 2.1031693,-2.1033529 0,-1.1454826 -0.9576867,-2.1032075 -2.1031693,-2.1032075 -1.1642583,0 -2.1032075,0.9577249 -2.1032075,2.1032075 0,1.1642507 0.9389492,2.1033529 2.1032075,2.1033529 z m 0,-3.3050174 c 0.6572745,0 1.20181,0.5443824 1.20181,1.2016645 0,0.6760502 -0.5445355,1.20181 -1.20181,1.20181 -0.6760501,0 -1.20181,-0.5257598 -1.20181,-1.20181 0,-0.6572821 0.5257599,-1.2016645 1.20181,-1.2016645 z M 4.1750574,7.5648959 C 3.9310183,7.3959445 3.6306136,7.2834047 3.3113643,7.2834047 H 2.8607381 c -0.8826678,0 -1.5774784,0.7135558 -1.5774784,1.5773331 0,0.2629296 0.1878365,0.4506185 0.4507715,0.4506185 0.2440415,0 0.450626,-0.1876889 0.450626,-0.4506185 0,-0.3568009 0.3005119,-0.6760883 0.6760809,-0.6760883 h 0.4506262 c 0.075088,0 0.1500989,0.037575 0.2253093,0.055738 0.1689512,-0.262815 0.3943447,-0.4882388 0.6383838,-0.6760808 z" fill="#808080" id="path2" style="stroke-width:0.765108" />
</svg>
