<svg width="24" height="24" viewBox="0 0 24 24" fill="none" xmlns="http://www.w3.org/2000/svg">
<path d="M20.5179 8.14283C20.7589 8.14283 21 7.94197 21 7.6607V6.05356C21 5.8125 20.7589 5.57143 20.5179 5.57143H19.7143V3.64285C19.7143 2.59821 18.8304 1.71428 17.7857 1.71428H4.92857C3.84375 1.71428 3 2.59821 3 3.64285V20.3571C3 21.4419 3.84375 22.2857 4.92857 22.2857H17.7857C18.8304 22.2857 19.7143 21.4419 19.7143 20.3571V18.4286H20.5179C20.7589 18.4286 21 18.2277 21 17.9464V16.3393C21 16.0982 20.7589 15.8571 20.5179 15.8571H19.7143V13.2857H20.5179C20.7589 13.2857 21 13.0848 21 12.8036V11.1964C21 10.9553 20.7589 10.7143 20.5179 10.7143H19.7143V8.14283H20.5179ZM17.7857 20.3571H4.92857V3.64285H17.7857V20.3571ZM11.3571 12C12.7634 12 13.9286 10.875 13.9286 9.42856C13.9286 8.02232 12.7634 6.85713 11.3571 6.85713C9.91072 6.85713 8.78571 8.02232 8.78571 9.42856C8.78571 10.875 9.91072 12 11.3571 12ZM7.74107 17.1429H14.933C15.4554 17.1429 15.8571 16.8214 15.8571 16.3795V15.6161C15.8571 14.3304 14.6116 13.2857 13.125 13.2857C12.7232 13.2857 12.4018 13.6072 11.3571 13.6072C10.2723 13.6072 9.99108 13.2857 9.5491 13.2857C8.06249 13.2857 6.85715 14.3304 6.85715 15.6161V16.3795C6.85715 16.8214 7.25892 17.1429 7.74107 17.1429Z" fill="#000000"/>
</svg>
