<svg width="105" height="16" viewBox="0 0 105 16" fill="none" xmlns="http://www.w3.org/2000/svg">
<g clip-path="url(#clip0_1700_12350)">
<path d="M71.2674 5.23555C71.2674 5.65833 71.0994 6.06378 70.8005 6.36272C70.5015 6.66167 70.0961 6.82963 69.6733 6.82963C68.7844 6.82963 68.0793 6.77631 67.457 6.28742C68.5652 5.8015 68.7933 3.64148 69.6733 3.64148C70.0961 3.64148 70.5015 3.80944 70.8005 4.10838C71.0994 4.40733 71.2674 4.81278 71.2674 5.23555Z" fill="url(#paint0_linear_1700_12350)"/>
<path fill-rule="evenodd" clip-rule="evenodd" d="M57.1273 1.81926C55.5238 0.797142 53.657 0.264821 51.7555 0.287435H51.6133C49.6558 0.287435 48.1229 0.781262 47.0148 1.76892C45.9066 2.75657 45.3535 4.15209 45.3555 5.95555V15.437H48.7066V6.91558C48.7066 4.49188 49.8514 3.27903 52.1408 3.27705C52.4094 3.27631 52.6778 3.2951 52.9437 3.33333C53.8717 3.51975 54.7525 3.89165 55.5333 4.42669L55.6223 4.21336C56.0027 3.34524 56.5099 2.5384 57.1273 1.81926Z" fill="white"/>
<path fill-rule="evenodd" clip-rule="evenodd" d="M61.8893 8.64299C62.3075 8.79717 62.7352 8.92485 63.1694 9.02522C64.4053 9.2853 65.6752 9.34233 66.9294 9.19409C68.9768 8.85039 70.5086 7.66815 70.9827 6.73482C71.2711 6.18133 71.375 5.55008 71.2789 4.93335L67.9634 5.70075C67.7471 6.47408 66.482 6.58964 64.9353 6.44149C64.5358 6.40585 64.1395 6.3395 63.7502 6.24299C63.3653 6.13878 62.9881 6.00808 62.6213 5.85186C62.3865 6.12825 62.2011 6.44297 62.0731 6.78224C61.9215 7.19903 61.8451 7.63948 61.8478 8.08298C61.846 8.27048 61.8599 8.4578 61.8893 8.64299Z" fill="url(#paint1_linear_1700_12350)"/>
<path d="M104.478 15.3808C104.285 15.4163 103.971 15.4607 103.55 15.5111C103.13 15.5615 102.638 15.6119 102.069 15.6593C101.5 15.7067 100.863 15.7541 100.158 15.7926C99.4526 15.8311 98.7207 15.8489 97.9533 15.8489C96.693 15.8784 95.4343 15.745 94.2082 15.4519C93.3827 15.2546 92.6044 14.8961 91.9179 14.3971C91.3977 14.0079 91.0005 13.4771 90.7741 12.8682C90.5745 12.2969 90.4743 11.6956 90.4778 11.0904C90.4628 10.3694 90.5865 9.65215 90.8422 8.9778C91.0917 8.3645 91.5099 7.8344 92.0482 7.4489C92.707 6.99324 93.4521 6.67759 94.2378 6.52149C95.3199 6.30257 96.4228 6.20321 97.5267 6.22519C98.2674 6.22519 98.9726 6.2489 99.6392 6.30223C100.306 6.35557 100.804 6.39707 101.136 6.43559C101.156 5.84956 101.041 5.26671 100.801 4.73189C100.594 4.30065 100.273 3.93393 99.8733 3.67112C99.4427 3.40321 98.9635 3.22296 98.463 3.14074C97.861 3.03906 97.2513 2.99048 96.6408 2.99556C95.7296 2.96464 94.8198 3.09402 93.9533 3.37779C93.4799 3.52867 93.0308 3.74725 92.62 4.0267C92.4404 3.85714 92.2778 3.67059 92.1342 3.46966C91.9286 3.17829 91.8245 2.82746 91.8379 2.47114C91.8409 2.18763 91.9153 1.90942 92.0542 1.66222C92.2423 1.35739 92.5136 1.11271 92.8363 0.957038C93.3019 0.718481 93.8016 0.553588 94.3178 0.468178C95.101 0.338873 95.8944 0.280339 96.6881 0.293337C97.7495 0.284666 98.8084 0.398006 99.8438 0.631119C100.723 0.824089 101.556 1.18857 102.294 1.70371C102.986 2.20211 103.537 2.87061 103.894 3.64447C104.298 4.56014 104.493 5.55385 104.466 6.55408V15.3808H104.478ZM101.162 8.86224C100.967 8.82668 100.599 8.76447 100.06 8.68743C99.2558 8.59352 98.446 8.55391 97.6363 8.56891C96.3089 8.56891 95.3342 8.77039 94.7327 9.1615C94.1312 9.55261 93.823 10.1926 93.823 11.0548C93.8183 11.3875 93.8829 11.7174 94.0126 12.0237C94.1538 12.3337 94.385 12.5938 94.6763 12.7704C95.0683 13.0069 95.5017 13.1668 95.9533 13.2415C96.6164 13.3585 97.2891 13.412 97.9623 13.4015C98.6788 13.4122 99.3952 13.3775 100.107 13.2978C100.638 13.2296 100.996 13.1734 101.165 13.1348V8.86224H101.162Z" fill="white"/>
<path d="M73.3996 6.56892C73.3821 5.66436 73.5674 4.76738 73.9418 3.94374C74.2938 3.18667 74.8064 2.51532 75.444 1.97633C76.109 1.4198 76.8772 0.999924 77.7047 0.74076C78.6301 0.447851 79.5963 0.303851 80.567 0.314111C81.5414 0.304984 82.5113 0.448943 83.4411 0.74076C84.2737 0.9985 85.0469 1.41843 85.7165 1.97633C86.3505 2.5138 86.8567 3.18592 87.198 3.94374C87.5633 4.76993 87.7443 5.66573 87.7284 6.56892V15.4578H84.3832V7.41039C84.3832 6.08298 84.0573 5.06373 83.4143 4.37336C82.7714 3.68299 81.8203 3.32742 80.567 3.32742C79.3136 3.32742 78.3388 3.68002 77.7047 4.37336C77.0706 5.06669 76.7477 6.08298 76.7477 7.41039V15.4578H73.3996V6.56892Z" fill="white"/>
<path d="M0.294561 5.98816C0.27442 5.13928 0.445544 4.29672 0.795285 3.52296C1.1135 2.83582 1.58122 2.22844 2.16421 1.74518C2.76904 1.26152 3.46102 0.898418 4.20269 0.675556C5.0303 0.423425 5.89168 0.299523 6.7568 0.308151C7.88 0.287555 8.99358 0.51838 10.0161 0.983716C10.9547 1.41678 11.7495 2.10983 12.3064 2.98075C12.8558 2.11453 13.6397 1.42202 14.5671 0.983716C15.5701 0.519782 16.6652 0.288821 17.7701 0.308151C18.6252 0.302467 19.4765 0.421225 20.2975 0.660727C21.0359 0.874585 21.724 1.23428 22.3212 1.71852C22.8955 2.19822 23.3578 2.79795 23.6753 3.47554C24.0211 4.25058 24.192 5.09223 24.1761 5.94075V15.4607H20.8249V7.09038C20.8249 5.73927 20.5227 4.77432 19.9183 4.19556C19.2433 3.5925 18.3569 3.2814 17.4531 3.33036C16.9911 3.31808 16.5312 3.3974 16.1 3.56369C15.6687 3.72997 15.2747 3.97995 14.9405 4.29925C14.265 4.94715 13.9281 5.99406 13.9301 7.43999V15.4607H10.579V7.43999C10.579 5.99406 10.2442 4.94814 9.56568 4.29925C9.23261 3.98013 8.83954 3.73021 8.40929 3.5639C7.97903 3.3976 7.52014 3.31821 7.05903 3.33036C6.15255 3.29206 5.26719 3.61126 4.59375 4.21925C3.9656 4.81184 3.65254 5.78174 3.65451 7.1289V15.4696H0.303387V5.98816H0.294561Z" fill="white"/>
<path d="M27.5804 2.28149C27.5596 2.06076 27.5914 1.83822 27.6733 1.63219C27.7552 1.42616 27.8848 1.24251 28.0515 1.09631C28.4379 0.827967 28.9034 0.697506 29.373 0.725938C29.7006 0.724333 30.0268 0.76921 30.3418 0.859257C30.6381 0.948146 30.8337 1.01037 30.9344 1.04889V8.77332C30.9344 10.1027 31.2486 11.117 31.8767 11.8163C32.5049 12.5155 33.4639 12.8622 34.7537 12.8563C36.0456 12.8563 37.0035 12.5096 37.6277 11.8163C38.2588 11.12 38.57 10.1067 38.57 8.77332V2.28149C38.5493 2.06104 38.581 1.83881 38.6623 1.63287C38.7436 1.42694 38.8724 1.24311 39.0382 1.09631C39.4151 0.831439 39.87 0.700992 40.33 0.725938C40.6675 0.722767 41.0037 0.767647 41.3285 0.859257C41.6248 0.948146 41.8145 1.01037 41.9211 1.04889V9.5052C41.9381 10.4271 41.7624 11.3424 41.4055 12.1926C41.0767 12.9664 40.575 13.6546 39.9389 14.2045C39.2729 14.7704 38.4986 15.1948 37.6633 15.4518C36.7218 15.7456 35.74 15.8896 34.7537 15.8785C33.7695 15.8891 32.7896 15.7452 31.8499 15.4518C31.018 15.1974 30.2481 14.7726 29.5892 14.2045C28.9534 13.651 28.4476 12.964 28.1078 12.1926C27.745 11.3437 27.5643 10.4282 27.5774 9.5052V2.28149H27.5804Z" fill="white"/>
<path d="M60.1974 9.49035C60.0513 8.96233 59.9992 8.41274 60.0433 7.86666L57.0153 5.73627C56.7874 6.50617 56.6668 7.30379 56.6568 8.10664C56.6414 9.43581 56.9672 10.7467 57.6032 11.9139C58.2393 13.0812 59.164 14.0657 60.2893 14.7733L62.4019 12.5718C61.8449 12.2343 61.3624 11.7871 60.9835 11.2574C60.6045 10.7277 60.3371 10.1265 60.1974 9.49035Z" fill="url(#paint2_linear_1700_12350)"/>
<path d="M68.9311 11.9259C68.5445 12.2102 68.1317 12.4572 67.6985 12.6637C66.5537 13.206 65.2678 13.376 64.0214 13.1496C63.4484 13.0571 62.8983 12.856 62.4008 12.557L60.6821 13.1496L60.2852 14.7703C61.4908 15.5267 62.8856 15.9272 64.3089 15.9259C68.0867 15.9259 70.0392 13.6889 70.0392 13.6889L69.8763 12.5659L68.9311 11.9259Z" fill="url(#paint3_linear_1700_12350)"/>
<path d="M71.911 10.4267C72.1569 9.47855 71.5407 9.15261 71.0962 9.77779C70.2522 10.9212 69.1706 11.8683 67.9258 12.5541L68.9303 14.5719C70.7555 13.4608 71.6088 11.5941 71.911 10.4267Z" fill="url(#paint4_linear_1700_12350)"/>
<path d="M64.4714 3.28001C66.8417 3.28001 68.1662 4.93035 67.944 5.70072L71.2565 4.93926C71.1496 4.29293 70.8862 3.68259 70.4891 3.16148C69.2803 1.48444 67.0403 0.337769 64.1277 0.337769C63.0827 0.367244 62.054 0.605505 61.1024 1.03854C60.1509 1.47158 59.2956 2.09064 58.587 2.85925C57.8538 3.68408 57.3178 4.66488 57.0195 5.72742C58.1306 7.06371 60.0447 7.85777 60.0447 7.85777C60.0824 6.79522 60.442 5.7692 61.0758 4.91557C61.4679 4.38927 61.9815 3.96563 62.5728 3.68083C63.164 3.39603 63.8154 3.25852 64.4714 3.28001Z" fill="url(#paint5_linear_1700_12350)"/>
<path d="M61.4168 4.51851C61.8133 4.11283 62.2893 3.79344 62.815 3.58032C63.3406 3.3672 63.9046 3.26496 64.4716 3.28001C66.842 3.28001 68.1665 4.93036 67.9443 5.70073C67.8878 5.86358 67.7896 6.00887 67.6597 6.12217C67.5298 6.23546 67.3726 6.31284 67.2036 6.34667C67.6339 6.21967 68.0334 6.00515 68.377 5.71657C68.7207 5.42799 69.001 5.07158 69.2005 4.66962C69.8701 3.14962 68.839 1.3274 66.2376 0.56296C65.5461 0.415815 64.8409 0.343307 64.134 0.346669C62.2607 0.395962 60.4675 1.1174 59.082 2.37926L61.4168 4.51851Z" fill="url(#paint6_linear_1700_12350)"/>
</g>
<defs>
<linearGradient id="paint0_linear_1700_12350" x1="71.9844" y1="6.01185" x2="67.457" y2="4.69336" gradientUnits="userSpaceOnUse">
<stop stop-color="#FF6E00"/>
<stop offset="1" stop-color="#F8432E"/>
</linearGradient>
<linearGradient id="paint1_linear_1700_12350" x1="74.8553" y1="-3.44296" x2="60.0463" y2="14.5423" gradientUnits="userSpaceOnUse">
<stop stop-color="#FFDA00"/>
<stop offset="0.83" stop-color="#FF9B00"/>
<stop offset="1" stop-color="#FF5D69"/>
</linearGradient>
<linearGradient id="paint2_linear_1700_12350" x1="72.0046" y1="-5.78966" x2="57.1957" y2="12.1982" gradientUnits="userSpaceOnUse">
<stop stop-color="#FFDA00"/>
<stop offset="0.83" stop-color="#FF9B00"/>
<stop offset="1" stop-color="#FF5D69"/>
</linearGradient>
<linearGradient id="paint3_linear_1700_12350" x1="77.4703" y1="-1.29187" x2="62.6644" y2="16.6962" gradientUnits="userSpaceOnUse">
<stop stop-color="#FFDA00"/>
<stop offset="0.83" stop-color="#FF9B00"/>
<stop offset="1" stop-color="#FF5D69"/>
</linearGradient>
<linearGradient id="paint4_linear_1700_12350" x1="79.5022" y1="0.382225" x2="64.6934" y2="18.3676" gradientUnits="userSpaceOnUse">
<stop stop-color="#FFDA00"/>
<stop offset="0.83" stop-color="#FF9B00"/>
<stop offset="1" stop-color="#FF5D69"/>
</linearGradient>
<linearGradient id="paint5_linear_1700_12350" x1="72.5365" y1="-5.35409" x2="57.7276" y2="12.634" gradientUnits="userSpaceOnUse">
<stop stop-color="#FFDA00"/>
<stop offset="0.83" stop-color="#FF9B00"/>
<stop offset="1" stop-color="#FF5D69"/>
</linearGradient>
<linearGradient id="paint6_linear_1700_12350" x1="60.6228" y1="1.75111" x2="69.0731" y2="4.11258" gradientUnits="userSpaceOnUse">
<stop stop-color="#FFDA00" stop-opacity="0"/>
<stop offset="0.83" stop-color="#FF9B00"/>
<stop offset="1" stop-color="#FF5D69"/>
</linearGradient>
<clipPath id="clip0_1700_12350">
<rect width="104.593" height="16" fill="white"/>
</clipPath>
</defs>
</svg>
