<?xml version="1.0" standalone="no"?>
<!DOCTYPE svg PUBLIC "-//W3C//DTD SVG 20010904//EN"
 "http://www.w3.org/TR/2001/REC-SVG-20010904/DTD/svg10.dtd">
<svg version="1.0" xmlns="http://www.w3.org/2000/svg"
 width="544.000000pt" height="544.000000pt" viewBox="0 0 544.000000 544.000000"
 preserveAspectRatio="xMidYMid meet">
<metadata>
Created by potrace 1.14, written by Peter Selinger 2001-2017
</metadata>
<g transform="translate(0.000000,544.000000) scale(0.100000,-0.100000)"
fill="#000000" stroke="none">
<path d="M2688 5265 c-2 -2 -55 -6 -118 -9 -63 -4 -126 -8 -140 -10 -61 -9
-109 -17 -155 -26 -27 -6 -59 -12 -70 -14 -69 -14 -284 -80 -365 -113 -8 -3
-18 -5 -22 -5 -5 1 -8 -3 -8 -8 0 -6 -7 -10 -15 -10 -8 0 -23 -4 -33 -9 -9 -5
-78 -39 -152 -76 -74 -37 -142 -73 -150 -79 -8 -7 -22 -16 -30 -20 -8 -3 -27
-14 -41 -24 -14 -9 -50 -33 -80 -53 -201 -134 -452 -373 -568 -542 -20 -28
-39 -54 -42 -57 -5 -5 -67 -106 -101 -165 -26 -45 -136 -273 -143 -295 -1 -3
-7 -18 -14 -35 -16 -40 -82 -226 -86 -245 -2 -8 -15 -62 -28 -120 -26 -107
-33 -139 -42 -197 -3 -18 -7 -45 -9 -60 -32 -197 -38 -540 -12 -670 3 -12 7
-48 11 -79 3 -32 8 -60 9 -63 2 -3 7 -26 10 -51 3 -25 17 -90 32 -145 14 -55
27 -107 29 -115 21 -88 84 -247 158 -400 62 -130 181 -329 204 -343 7 -4 13
-13 13 -18 0 -18 160 -209 254 -303 106 -105 147 -142 236 -211 36 -27 67 -52
70 -56 3 -3 23 -16 45 -29 22 -13 42 -27 45 -30 33 -39 312 -186 472 -248 92
-36 270 -92 338 -106 14 -3 43 -10 65 -15 22 -6 40 -10 40 -10 0 1 100 -13
125 -17 149 -27 554 -24 745 6 33 5 74 12 90 14 26 4 83 15 150 30 109 23 331
93 384 120 17 9 31 13 31 9 0 -4 5 -2 12 5 7 7 20 12 30 12 10 0 18 5 18 12 0
6 3 9 6 6 12 -12 279 131 418 224 167 113 347 278 482 443 142 173 308 462
370 645 11 30 22 57 25 60 3 3 11 23 17 45 6 22 18 65 27 95 9 30 18 64 21 75
13 46 11 160 -3 202 -26 76 -94 108 -165 79 -36 -16 -60 -41 -220 -231 -103
-123 -274 -297 -388 -395 -41 -36 -77 -67 -80 -70 -3 -3 -41 -33 -85 -66 -345
-260 -665 -399 -1040 -450 -74 -10 -359 -12 -445 -3 -179 19 -176 19 -230 34
-3 1 -25 5 -50 9 -122 22 -327 111 -460 200 -108 72 -164 118 -259 215 -218
223 -367 503 -427 804 -2 10 -5 26 -8 35 -5 18 -12 57 -26 152 -13 88 -4 410
14 497 3 15 8 42 11 58 3 17 7 40 10 53 3 12 7 31 9 42 10 43 58 197 73 230
45 103 106 223 138 269 19 29 35 55 35 58 0 2 6 10 13 18 6 7 21 25 32 41 45
64 207 234 223 234 3 0 17 11 31 24 39 37 187 125 266 158 151 65 302 102 450
113 360 26 663 -47 930 -224 78 -51 242 -210 265 -256 8 -17 17 -32 21 -35 13
-12 50 -105 60 -150 28 -129 -30 -233 -166 -300 -33 -17 -70 -32 -83 -35 -13
-2 -33 -7 -45 -11 -25 -8 -29 -9 -112 -21 -114 -16 -583 -7 -677 13 -13 2 -39
6 -58 9 -202 24 -519 127 -774 251 l-71 35 -23 -28 c-51 -63 -168 -307 -187
-392 -2 -9 -13 -47 -23 -86 -11 -38 -23 -86 -26 -105 -3 -19 -8 -46 -11 -60
-11 -53 -20 -183 -16 -230 0 -9 22 -24 49 -34 226 -88 466 -170 557 -191 89
-20 155 -34 185 -39 19 -3 79 -12 134 -21 54 -9 123 -18 155 -21 31 -2 72 -6
91 -9 140 -17 414 -23 575 -11 122 9 170 15 290 40 339 70 712 248 945 451
202 176 315 348 365 560 4 17 9 39 12 50 11 47 9 256 -4 329 -35 204 -142 429
-305 640 -23 30 -253 262 -279 281 -8 6 -43 33 -79 61 -195 151 -469 288 -740
372 -67 21 -220 61 -255 67 -249 44 -287 49 -500 60 -60 4 -125 8 -142 9 -18
2 -34 2 -35 1z"/>
</g>
</svg>
