<svg width="73" height="72" viewBox="0 0 73 72" fill="none" xmlns="http://www.w3.org/2000/svg">
<g clip-path="url(#clip0_305_233)">
<path d="M57.801 0H16.201C7.80625 0 1.00098 6.80527 1.00098 15.2V56.8C1.00098 65.1947 7.80625 72 16.201 72H57.801C66.1957 72 73.001 65.1947 73.001 56.8V15.2C73.001 6.80527 66.1957 0 57.801 0Z" fill="url(#paint0_linear_305_233)"/>
<path d="M54.1543 32.2619C53.7734 32.6747 53.3799 33.1134 52.9736 33.5778C52.5674 34.0423 52.0532 34.6615 51.4312 35.4356C50.8091 36.2097 50.3076 36.9838 49.9268 37.7578C49.5459 38.5319 49.3555 43.2861 49.3555 43.8538C49.3555 44.5504 48.1685 45.1374 45.7944 45.6148C43.4204 46.0921 40.5449 46.3308 37.168 46.3308C33.791 46.3308 30.9155 46.0921 28.5415 45.6148C26.1675 45.1374 24.9805 44.5504 24.9805 43.8538C24.9805 43.1055 24.6377 38.0868 23.9521 36.9644C23.2666 35.842 22.6255 34.9389 22.0288 34.2551C21.4321 33.5714 20.8418 32.9328 20.2578 32.3393C18.5313 30.6363 17.668 28.5721 17.668 26.1467C17.668 23.7471 18.4995 21.7022 20.1626 20.0121C21.8257 18.3221 23.8379 17.477 26.1992 17.477C26.7832 17.477 27.3926 17.5415 28.0273 17.6706C27.6211 18.7285 27.418 19.9025 27.418 21.1926C27.418 23.9535 28.2559 26.2499 29.9316 28.0819C29.8809 26.6885 29.8555 25.2178 29.8555 23.6696C29.8555 21.27 30.5664 19.2252 31.9883 17.5351C33.4102 15.845 35.1367 15 37.168 15C39.1992 15 40.9258 15.845 42.3477 17.5351C43.7695 19.2252 44.4805 21.27 44.4805 23.6696C44.4805 25.2436 44.4551 26.7143 44.4043 28.0819C46.0801 26.2499 46.918 23.9535 46.918 21.1926C46.918 19.9025 46.7148 18.7285 46.3086 17.6706C46.9434 17.5415 47.5527 17.477 48.1367 17.477C50.498 17.477 52.5103 18.3221 54.1733 20.0121C55.8364 21.7022 56.668 23.7471 56.668 26.1467C56.668 28.5463 55.8301 30.5847 54.1543 32.2619ZM37.168 48.2479C40.5322 48.2479 43.3887 47.8467 45.7754 47.3565C48.1621 46.8662 49.3555 46.2857 49.3555 45.6148V55.523C49.3555 56.1938 48.1621 56.7744 45.7754 57.2646C43.3887 57.7549 40.5132 58 37.1489 58C33.7847 58 30.9155 57.7549 28.5415 57.2646C26.1675 56.7744 24.9805 56.1938 24.9805 55.523V45.6148C24.9805 46.3115 26.1675 46.8985 28.5415 47.3758C30.9155 47.8532 33.8037 48.2479 37.168 48.2479Z" fill="url(#paint1_linear_305_233)"/>
</g>
<defs>
<linearGradient id="paint0_linear_305_233" x1="37.001" y1="1.408" x2="37.001" y2="72.216" gradientUnits="userSpaceOnUse">
<stop stop-color="white"/>
<stop offset="1" stop-color="#E6E8E9"/>
</linearGradient>
<linearGradient id="paint1_linear_305_233" x1="37.168" y1="15" x2="37.168" y2="58" gradientUnits="userSpaceOnUse">
<stop stop-color="#128FFD"/>
<stop offset="1" stop-color="#2B72F9"/>
</linearGradient>
<clipPath id="clip0_305_233">
<rect x="0.667969" width="72" height="72" rx="15.12" fill="white"/>
</clipPath>
</defs>
</svg>
