<svg width="24" height="24" viewBox="0 0 24 24" fill="none" xmlns="http://www.w3.org/2000/svg">
<path fill-rule="evenodd" clip-rule="evenodd" d="M7.62672 14.4121C7.62424 14.3846 7.62174 14.3572 7.61922 14.3301C7.58522 13.9638 7.54525 13.6094 7.49682 13.3102C7.47287 13.1622 7.44199 12.9969 7.40067 12.8357C7.37274 12.7267 7.29256 12.4168 7.10292 12.1063C6.7227 11.4838 6.33364 10.9266 5.93288 10.4674C5.60874 10.0959 5.28457 9.74502 4.96026 9.41545L4.94958 9.4046L4.93875 9.39391C4.46017 8.92187 4.24526 8.40813 4.24526 7.73559C4.24526 7.05833 4.45755 6.54716 4.91243 6.08489C5.36616 5.6238 5.85385 5.4206 6.49073 5.4206C6.63375 5.4206 6.80329 5.43641 7.00273 5.47694C7.06897 5.4904 7.13991 5.50528 7.21443 5.5209C7.64778 5.61176 8.20221 5.72799 8.65807 5.74005C8.99151 5.74887 9.42472 5.7152 9.88265 5.52457C10.3552 5.32785 10.7041 5.027 10.9597 4.72308C11.3248 4.2892 11.6395 4.17632 12.0006 4.17632C12.3617 4.17632 12.6764 4.2892 13.0415 4.72308C13.9296 5.77867 15.1709 5.76669 15.7121 5.71844C16.1511 5.67931 16.7503 5.53603 16.9409 5.49045C16.9712 5.48321 16.9911 5.47844 16.9985 5.47694C17.1979 5.43641 17.3675 5.4206 17.5105 5.4206C18.1474 5.4206 18.6351 5.6238 19.0888 6.08489C19.5437 6.54716 19.756 7.05833 19.756 7.73559C19.756 8.4076 19.5446 8.91073 19.0902 9.36551L19.0614 9.39427L19.0339 9.42416C18.8292 9.64598 18.6195 9.8798 18.4047 10.1253C18.1743 10.3888 17.8962 10.7243 17.5752 11.1238C17.1828 11.6121 16.8456 12.1262 16.5792 12.6676C16.4233 12.9844 16.3733 13.305 16.3632 13.3691C16.3627 13.3725 16.362 13.3771 16.362 13.3771C16.3405 13.5074 16.3247 13.6451 16.3123 13.7709C16.2912 13.984 16.273 14.2389 16.2567 14.5138C14.8779 14.9421 13.2107 15.0443 11.5803 14.9605C10.046 14.8816 8.61938 14.6423 7.62672 14.4121ZM7.76987 16.53C7.77574 16.6418 7.78142 16.7534 7.7869 16.8646C7.83353 17.8098 7.8681 18.7566 7.89008 19.4665C7.94646 19.479 8.00621 19.4916 8.06945 19.5043C9.08927 19.7094 10.3908 19.8239 12.0006 19.8239C13.6104 19.8239 14.912 19.7094 15.9318 19.5043C15.9909 19.4924 16.0469 19.4806 16.1 19.469C16.1121 18.8075 16.1306 17.9406 16.1553 17.0747C16.1593 16.9338 16.1635 16.7923 16.1679 16.6513C14.6363 17.0154 12.9776 17.075 11.4755 16.9978C10.1004 16.927 8.80338 16.7386 7.76987 16.53ZM16.7712 19.2747L16.7684 19.276C16.7763 19.2717 16.7777 19.2714 16.7712 19.2747ZM7.23001 19.2747C7.22351 19.2714 7.22491 19.2717 7.23277 19.276L7.23001 19.2747ZM3.50621 10.8463C3.79956 11.1444 4.09609 11.4652 4.39582 11.8087C4.69555 12.1521 5.0176 12.6058 5.36196 13.1696C5.70633 13.7334 5.87852 20.2438 5.87852 20.6197C5.87852 20.9696 6.47478 21.2645 7.66732 21.5043C8.85985 21.7441 10.3043 21.8639 12.0006 21.8639C13.6969 21.8639 15.1414 21.7441 16.3339 21.5043C17.5264 21.2645 18.1227 20.9696 18.1227 20.6197C18.1227 20.3345 18.2184 13.957 18.4097 13.5682C18.601 13.1793 18.8529 12.7905 19.1654 12.4016C19.4779 12.0128 19.7361 11.7017 19.9402 11.4684C20.1443 11.2351 20.342 11.0148 20.5333 10.8074C21.3751 9.96493 21.796 8.94099 21.796 7.73559C21.796 6.53019 21.3783 5.50301 20.5428 4.65405C19.7074 3.80509 18.6966 3.3806 17.5105 3.3806C17.2171 3.3806 16.911 3.41301 16.5922 3.47781C16.5002 3.4965 16.4012 3.51973 16.2977 3.54398C15.7081 3.68222 14.9761 3.85385 14.6025 3.40977C13.8883 2.5608 13.021 2.13632 12.0006 2.13632C10.9803 2.13632 10.113 2.5608 9.39872 3.40977C9.05573 3.81745 8.6695 3.73771 7.67751 3.53293C7.59258 3.5154 7.5032 3.49695 7.40904 3.47781C7.09018 3.41301 6.78408 3.3806 6.49073 3.3806C5.30457 3.3806 4.29379 3.80509 3.45838 4.65405C2.62297 5.50301 2.20526 6.53019 2.20526 7.73559C2.20526 8.95395 2.63891 9.99085 3.50621 10.8463Z" fill="#808080"/>
</svg>
