<svg width="20" height="20" viewBox="0 0 20 20" fill="none" xmlns="http://www.w3.org/2000/svg">
<path fill-rule="evenodd" clip-rule="evenodd" d="M6.35577 12.0101C6.3537 11.9871 6.35162 11.9643 6.34952 11.9418C6.32119 11.6365 6.28788 11.3412 6.24753 11.0919C6.22756 10.9685 6.20183 10.8308 6.1674 10.6964C6.14412 10.6056 6.07731 10.3473 5.91927 10.0886C5.60243 9.56981 5.27821 9.10554 4.94424 8.72282C4.67412 8.41328 4.40398 8.12085 4.13372 7.84621L4.12483 7.83717L4.11579 7.82826C3.71698 7.4349 3.53789 7.00678 3.53789 6.44633C3.53789 5.88195 3.7148 5.45597 4.09387 5.07075C4.47198 4.68651 4.87838 4.51717 5.40911 4.51717C5.5283 4.51717 5.66958 4.53034 5.83578 4.56412C5.89098 4.57534 5.9501 4.58774 6.0122 4.60076C6.37333 4.67647 6.83534 4.77333 7.21523 4.78338C7.49309 4.79073 7.8541 4.76268 8.23572 4.60382C8.62952 4.43988 8.92022 4.18917 9.1333 3.93591C9.43749 3.57434 9.69979 3.48027 10.0007 3.48027C10.3016 3.48027 10.5639 3.57434 10.8681 3.93591C11.6081 4.81556 12.6426 4.80558 13.0936 4.76537C13.4594 4.73276 13.9587 4.61336 14.1176 4.57538C14.1428 4.56935 14.1594 4.56537 14.1656 4.56412C14.3318 4.53034 14.4731 4.51717 14.5923 4.51717C15.123 4.51717 15.5294 4.68651 15.9075 5.07075C16.2866 5.45597 16.4635 5.88195 16.4635 6.44633C16.4635 7.00634 16.2873 7.42561 15.9087 7.8046L15.8847 7.82857L15.8617 7.85347C15.6912 8.03832 15.5164 8.23317 15.3374 8.43779C15.1454 8.65735 14.9137 8.93696 14.6462 9.2698C14.3192 9.67672 14.0382 10.1051 13.8162 10.5563C13.6863 10.8203 13.6446 11.0875 13.6362 11.141C13.6358 11.1438 13.6352 11.1476 13.6352 11.1476C13.6173 11.2562 13.6041 11.371 13.5937 11.4757C13.5762 11.6533 13.561 11.8658 13.5475 12.0948C12.3984 12.4518 11.0091 12.5369 9.6504 12.467C8.37184 12.4013 7.18299 12.2019 6.35577 12.0101ZM6.47507 13.775C6.47996 13.8681 6.48469 13.9612 6.48926 14.0538C6.52812 14.8415 6.55693 15.6305 6.57524 16.2221C6.62222 16.2325 6.67201 16.243 6.72472 16.2536C7.57456 16.4245 8.65917 16.52 10.0007 16.52C11.3422 16.52 12.4268 16.4245 13.2766 16.2536C13.3259 16.2437 13.3726 16.2339 13.4168 16.2242C13.4269 15.6729 13.4423 14.9505 13.4629 14.2289C13.4662 14.1115 13.4697 13.9936 13.4734 13.8761C12.1971 14.1795 10.8149 14.2292 9.5631 14.1648C8.41714 14.1059 7.33632 13.9488 6.47507 13.775ZM13.9762 16.0622L13.9739 16.0633C13.9804 16.0598 13.9816 16.0595 13.9762 16.0622ZM6.02518 16.0622C6.01977 16.0595 6.02093 16.0598 6.02748 16.0633L6.02518 16.0622ZM2.92201 9.03858C3.16647 9.28701 3.41359 9.55433 3.66336 9.84056C3.91313 10.1268 4.1815 10.5048 4.46848 10.9747C4.75545 11.4445 4.89894 16.8698 4.89894 17.1831C4.89894 17.4747 5.39583 17.7204 6.3896 17.9202C7.38338 18.12 8.58707 18.22 10.0007 18.22C11.4143 18.22 12.618 18.12 13.6118 17.9202C14.6055 17.7204 15.1024 17.4747 15.1024 17.1831C15.1024 16.9454 15.1821 11.6308 15.3416 11.3068C15.501 10.9828 15.7109 10.6587 15.9713 10.3347C16.2317 10.0107 16.4469 9.75145 16.617 9.55703C16.7871 9.36262 16.9518 9.179 17.1112 9.00618C17.8127 8.30411 18.1635 7.45083 18.1635 6.44633C18.1635 5.44183 17.8154 4.58585 17.1192 3.87838C16.423 3.17091 15.5807 2.81717 14.5923 2.81717C14.3478 2.81717 14.0927 2.84418 13.827 2.89818C13.7504 2.91376 13.6678 2.93311 13.5816 2.95332C13.0903 3.06852 12.4803 3.21155 12.1689 2.84148C11.5737 2.13401 10.851 1.78027 10.0007 1.78027C9.15039 1.78027 8.42764 2.13401 7.83244 2.84148C7.54662 3.18121 7.22476 3.11477 6.3981 2.94412C6.32732 2.92951 6.25284 2.91413 6.17437 2.89818C5.90866 2.84418 5.65357 2.81717 5.40911 2.81717C4.42065 2.81717 3.57833 3.17091 2.88215 3.87838C2.18598 4.58585 1.83789 5.44183 1.83789 6.44633C1.83789 7.46163 2.19926 8.32571 2.92201 9.03858Z" fill="#666666"/>
</svg>