<svg width="17" height="18" viewBox="0 0 17 18" fill="none" xmlns="http://www.w3.org/2000/svg">
<path d="M15.2938 6.62511L15.2818 6.6371L15.2704 6.64955C15.1054 6.82839 14.9356 7.01762 14.7611 7.21714C14.58 7.42413 14.3566 7.69354 14.0926 8.02198C13.7989 8.38746 13.5535 8.76369 13.3628 9.15128C13.2908 9.29747 13.2553 9.45725 13.2364 9.55035C13.2131 9.66489 13.1939 9.79299 13.1776 9.92166C13.1448 10.1803 13.1186 10.4847 13.0982 10.7753C13.0727 11.1386 13.0547 11.5033 13.0449 11.7601C12.8812 11.8261 12.6181 11.9038 12.2281 11.9822C11.3063 12.1675 10.1621 12.2652 8.78456 12.2652C7.407 12.2652 6.26285 12.1675 5.34103 11.9822C4.94813 11.9032 4.68395 11.825 4.52052 11.7587C4.50352 11.461 4.46921 11.0286 4.41962 10.5979C4.38242 10.2748 4.33439 9.93235 4.27404 9.63181C4.22205 9.37293 4.1376 9.01306 3.97775 8.75134C3.67584 8.25704 3.37954 7.83589 3.08767 7.50142C2.82773 7.20353 2.5691 6.92366 2.31174 6.66213L2.31181 6.66206L2.30278 6.65315C1.742 6.10003 1.47177 5.45393 1.47177 4.66606C1.47177 3.88162 1.73426 3.24063 2.27189 2.69429C2.73721 2.22142 3.26799 1.96192 3.89545 1.90098C3.86702 2.12638 3.85316 2.35699 3.85316 2.59225C3.85316 3.93463 4.26694 5.1083 5.12821 6.04984L6.68906 7.75617L6.60483 5.44518C6.58399 4.87329 6.57351 4.268 6.57351 3.62916C6.57351 2.80626 6.81193 2.14902 7.26674 1.60842C7.71644 1.0739 8.20897 0.85 8.78456 0.85C9.36014 0.85 9.85267 1.0739 10.3024 1.60842C10.7572 2.14902 10.9956 2.80626 10.9956 3.62916C10.9956 4.27902 10.9851 4.88406 10.9643 5.44459L10.8784 7.75799L12.4409 6.04984C13.3022 5.1083 13.716 3.93462 13.716 2.59225C13.716 2.35699 13.7021 2.12638 13.6737 1.90098C14.3011 1.96192 14.8319 2.22142 15.2972 2.69429C15.8348 3.24063 16.0973 3.88162 16.0973 4.66606C16.0973 5.44831 15.8339 6.08459 15.2938 6.62511ZM4.53281 16.6377V14.279C4.68336 14.3175 4.84158 14.3529 5.00592 14.386C6.04269 14.5944 7.30881 14.7677 8.78456 14.7677C10.2621 14.7677 11.5162 14.5913 12.5587 14.3772C12.7249 14.343 12.8846 14.3067 13.0363 14.2675V16.6366C12.8679 16.7028 12.603 16.7802 12.2166 16.8596C11.2905 17.0498 10.1474 17.15 8.77658 17.15C7.4056 17.15 6.26559 17.0498 5.34538 16.8597C4.96238 16.7806 4.69977 16.7035 4.53281 16.6377Z" stroke="#666666" stroke-width="1.7"/>
</svg>
