<svg width="20" height="20" viewBox="0 0 20 20" fill="none" xmlns="http://www.w3.org/2000/svg">
<path fill-rule="evenodd" clip-rule="evenodd" d="M4.3314 13.4204C4.3314 13.7444 4.8835 14.0174 5.98769 14.2394C6.04 14.25 6.09284 14.2602 6.14619 14.2702C6.20724 14.2817 6.26898 14.2928 6.3314 14.3037C7.366 14.4829 8.58887 14.5725 10 14.5725C11.4111 14.5725 12.634 14.4829 13.6686 14.3037C13.7276 14.2934 13.786 14.2829 13.8438 14.2721C13.9005 14.2615 13.9567 14.2506 14.0123 14.2394C15.1165 14.0174 15.6686 13.7444 15.6686 13.4204C15.6686 13.1563 15.7572 10.9451 15.9343 10.585C16.1115 10.225 16.3447 9.86497 16.634 9.50493C16.9234 9.1449 17.1625 8.85687 17.3515 8.64085C17.5404 8.42482 17.7235 8.2208 17.9006 8.02879C18.6801 7.24871 19.0698 6.30062 19.0698 5.18451C19.0698 4.0684 18.683 3.11731 17.9095 2.33123C17.4525 1.86688 16.939 1.53969 16.3687 1.34964C15.9736 1.21796 15.5513 1.15211 15.1017 1.15211C14.9928 1.15211 14.882 1.15694 14.7693 1.16659C14.6009 1.181 14.4283 1.20618 14.2515 1.24212C14.4108 1.65715 14.503 2.11061 14.5279 2.60248C14.5326 2.69376 14.5349 2.78636 14.5349 2.88028C14.5349 3.28587 14.496 3.66991 14.4183 4.03239C14.2498 4.81757 13.899 5.50164 13.3657 6.0846C13.3894 5.44853 13.4012 4.76447 13.4012 4.03239C13.4012 3.62654 13.3574 3.2425 13.27 2.88028C13.1758 2.49019 13.0309 2.12541 12.8353 1.78594C12.7131 1.57378 12.571 1.37151 12.4092 1.17912C12.2439 0.982689 12.0698 0.810804 11.8868 0.663461C11.3376 0.221154 10.7087 0 10 0C9.29132 0 8.66237 0.221154 8.11316 0.663462C7.93021 0.810804 7.7561 0.982689 7.59085 1.17912C7.42899 1.37151 7.28693 1.57378 7.16469 1.78594C6.96908 2.12541 6.82419 2.49019 6.73002 2.88028C6.64257 3.2425 6.59884 3.62654 6.59884 4.03239C6.59884 4.75247 6.61065 5.43653 6.63427 6.0846C6.10102 5.50164 5.75018 4.81757 5.58175 4.03239C5.504 3.66991 5.46512 3.28587 5.46512 2.88028C5.46512 2.78636 5.46743 2.69376 5.47206 2.60248C5.49701 2.11061 5.58917 1.65715 5.74855 1.24212C5.5717 1.20618 5.39909 1.181 5.23072 1.16659C5.118 1.15694 5.00718 1.15211 4.89826 1.15211C4.44874 1.15211 4.02643 1.21795 3.63131 1.34963C3.06106 1.53968 2.54746 1.86688 2.09053 2.33123C1.317 3.11731 0.930237 4.0684 0.930237 5.18451C0.930237 6.31262 1.33176 7.27271 2.13482 8.06479C2.40644 8.34082 2.68101 8.63785 2.95853 8.95588C3.23606 9.27391 3.53425 9.69395 3.85311 10.216C4.17197 10.7381 4.3314 13.0723 4.3314 13.4204ZM16.4858 6.61516L16.4576 6.64336L16.4306 6.67266C16.2404 6.87883 16.0456 7.09607 15.8461 7.32409C15.6313 7.56968 15.3727 7.88169 15.0751 8.25209C14.7074 8.70965 14.3905 9.1925 14.1398 9.70209C13.9953 9.99577 13.9348 10.2891 13.912 10.4015C13.879 10.5643 13.8538 10.735 13.8339 10.8913C13.7939 11.2069 13.7632 11.5675 13.7399 11.8986C13.7315 12.0188 13.7238 12.1397 13.7167 12.2583C13.685 12.265 13.6521 12.2718 13.6181 12.2787C12.6832 12.4667 11.4859 12.5725 10 12.5725C8.51415 12.5725 7.31681 12.4667 6.38195 12.2787C6.33948 12.2701 6.29879 12.2617 6.25983 12.2533C6.24228 12.0584 6.2218 11.8553 6.1987 11.6547C6.15571 11.2813 6.09841 10.8686 6.02321 10.4942C5.96769 10.2178 5.84696 9.64346 5.55993 9.17351C5.20592 8.59392 4.84203 8.07243 4.46545 7.64089C4.16399 7.29543 3.86234 6.96887 3.56036 6.662L3.54989 6.65136L3.53927 6.64088C3.11731 6.22469 2.93024 5.7775 2.93024 5.18451C2.93024 4.58848 3.11419 4.1444 3.51147 3.73871C3.66429 5.12407 4.19814 6.38457 5.15855 7.4345L8.83112 11.4494L8.63294 6.01175C8.6103 5.39043 8.59884 4.73079 8.59884 4.03239C8.59884 3.34359 8.79026 2.86012 9.12127 2.46668C9.44024 2.08754 9.70159 2 10 2C10.2984 2 10.5598 2.08754 10.8787 2.46668C11.2097 2.86012 11.4012 3.34359 11.4012 4.03239C11.4012 4.7433 11.3897 5.40238 11.3671 6.01038L11.165 11.4537L14.8415 7.4345C15.8019 6.38457 16.3357 5.12407 16.4885 3.73871C16.8858 4.1444 17.0698 4.58848 17.0698 5.18451C17.0698 5.77769 16.8855 6.21518 16.4858 6.61516Z" fill="black" fill-opacity="0.6"/>
<path d="M5.98769 15.0585C6.0998 15.0811 6.21438 15.1032 6.3314 15.1248C7.36695 15.3159 8.5941 15.4641 10 15.4641C11.4104 15.4641 12.629 15.3125 13.6686 15.1156C13.7824 15.0941 13.894 15.072 14.0035 15.0495C14.0598 15.0379 14.1147 15.0263 14.1682 15.0145C15.1685 14.794 15.6686 14.5356 15.6686 14.2394V18.8479C15.6686 19.1599 15.1136 19.4299 14.0035 19.658C12.8934 19.886 11.5559 20 9.99115 20C8.42637 20 7.09189 19.886 5.98769 19.658C4.8835 19.4299 4.3314 19.1599 4.3314 18.8479V14.2394C4.3314 14.5476 4.83081 14.8097 5.82963 15.0256C5.88099 15.0367 5.93368 15.0477 5.98769 15.0585Z" fill="black" fill-opacity="0.6"/>
</svg>
