<svg width="72" height="72" viewBox="0 0 72 72" fill="none" xmlns="http://www.w3.org/2000/svg">
<g clip-path="url(#clip0_3037_9149)">
<path d="M56.466 0H14.866C6.47129 0 -0.333984 6.80527 -0.333984 15.2V56.8C-0.333984 65.1947 6.47129 72 14.866 72H56.466C64.8607 72 71.666 65.1947 71.666 56.8V15.2C71.666 6.80527 64.8607 0 56.466 0Z" fill="url(#paint0_linear_3037_9149)"/>
<path d="M56.466 0H14.866C6.47129 0 -0.333984 6.80527 -0.333984 15.2V56.8C-0.333984 65.1947 6.47129 72 14.866 72H56.466C64.8607 72 71.666 65.1947 71.666 56.8V15.2C71.666 6.80527 64.8607 0 56.466 0Z" fill="url(#paint1_linear_3037_9149)"/>
<path d="M53.4863 32.2619C53.1055 32.6747 52.7119 33.1134 52.3057 33.5778C51.8994 34.0423 51.3853 34.6615 50.7632 35.4356C50.1411 36.2097 49.6397 36.9838 49.2588 37.7578C48.8779 38.5319 48.6875 43.2861 48.6875 43.8538C48.6875 44.5504 47.5005 45.1374 45.1265 45.6148C42.7524 46.0921 39.877 46.3308 36.5 46.3308C33.123 46.3308 30.2476 46.0921 27.8735 45.6148C25.4995 45.1374 24.3125 44.5504 24.3125 43.8538C24.3125 43.1055 23.9697 38.0868 23.2842 36.9644C22.5986 35.842 21.9575 34.9389 21.3608 34.2551C20.7642 33.5714 20.1738 32.9328 19.5898 32.3393C17.8633 30.6363 17 28.5721 17 26.1467C17 23.7471 17.8315 21.7022 19.4946 20.0121C21.1577 18.3221 23.1699 17.477 25.5313 17.477C26.1152 17.477 26.7246 17.5415 27.3594 17.6706C26.9531 18.7285 26.75 19.9025 26.75 21.1926C26.75 23.9535 27.5879 26.2499 29.2637 28.0819C29.2129 26.6885 29.1875 25.2178 29.1875 23.6696C29.1875 21.27 29.8984 19.2252 31.3203 17.5351C32.7422 15.845 34.4688 15 36.5 15C38.5312 15 40.2578 15.845 41.6797 17.5351C43.1016 19.2252 43.8125 21.27 43.8125 23.6696C43.8125 25.2436 43.7871 26.7143 43.7363 28.0819C45.4121 26.2499 46.25 23.9535 46.25 21.1926C46.25 19.9025 46.0469 18.7285 45.6406 17.6706C46.2754 17.5415 46.8848 17.477 47.4688 17.477C49.8301 17.477 51.8423 18.3221 53.5054 20.0121C55.1685 21.7022 56 23.7471 56 26.1467C56 28.5463 55.1621 30.5847 53.4863 32.2619ZM36.5 48.2479C39.8643 48.2479 42.7207 47.8467 45.1074 47.3565C47.4941 46.8662 48.6875 46.2857 48.6875 45.6148V55.523C48.6875 56.1938 47.4941 56.7744 45.1074 57.2646C42.7207 57.7549 39.8452 58 36.481 58C33.1167 58 30.2476 57.7549 27.8735 57.2646C25.4995 56.7744 24.3125 56.1938 24.3125 55.523V45.6148C24.3125 46.3115 25.4995 46.8985 27.8735 47.3758C30.2476 47.8532 33.1357 48.2479 36.5 48.2479Z" fill="url(#paint2_linear_3037_9149)"/>
<path d="M53.4863 32.2619C53.1055 32.6747 52.7119 33.1134 52.3057 33.5778C51.8994 34.0423 51.3853 34.6615 50.7632 35.4356C50.1411 36.2097 49.6397 36.9838 49.2588 37.7578C48.8779 38.5319 48.6875 43.2861 48.6875 43.8538C48.6875 44.5504 47.5005 45.1374 45.1265 45.6148C42.7524 46.0921 39.877 46.3308 36.5 46.3308C33.123 46.3308 30.2476 46.0921 27.8735 45.6148C25.4995 45.1374 24.3125 44.5504 24.3125 43.8538C24.3125 43.1055 23.9697 38.0868 23.2842 36.9644C22.5986 35.842 21.9575 34.9389 21.3608 34.2551C20.7642 33.5714 20.1738 32.9328 19.5898 32.3393C17.8633 30.6363 17 28.5721 17 26.1467C17 23.7471 17.8315 21.7022 19.4946 20.0121C21.1577 18.3221 23.1699 17.477 25.5313 17.477C26.1152 17.477 26.7246 17.5415 27.3594 17.6706C26.9531 18.7285 26.75 19.9025 26.75 21.1926C26.75 23.9535 27.5879 26.2499 29.2637 28.0819C29.2129 26.6885 29.1875 25.2178 29.1875 23.6696C29.1875 21.27 29.8984 19.2252 31.3203 17.5351C32.7422 15.845 34.4688 15 36.5 15C38.5312 15 40.2578 15.845 41.6797 17.5351C43.1016 19.2252 43.8125 21.27 43.8125 23.6696C43.8125 25.2436 43.7871 26.7143 43.7363 28.0819C45.4121 26.2499 46.25 23.9535 46.25 21.1926C46.25 19.9025 46.0469 18.7285 45.6406 17.6706C46.2754 17.5415 46.8848 17.477 47.4688 17.477C49.8301 17.477 51.8423 18.3221 53.5054 20.0121C55.1685 21.7022 56 23.7471 56 26.1467C56 28.5463 55.1621 30.5847 53.4863 32.2619ZM36.5 48.2479C39.8643 48.2479 42.7207 47.8467 45.1074 47.3565C47.4941 46.8662 48.6875 46.2857 48.6875 45.6148V55.523C48.6875 56.1938 47.4941 56.7744 45.1074 57.2646C42.7207 57.7549 39.8452 58 36.481 58C33.1167 58 30.2476 57.7549 27.8735 57.2646C25.4995 56.7744 24.3125 56.1938 24.3125 55.523V45.6148C24.3125 46.3115 25.4995 46.8985 27.8735 47.3758C30.2476 47.8532 33.1357 48.2479 36.5 48.2479Z" fill="url(#paint3_linear_3037_9149)"/>
</g>
<defs>
<linearGradient id="paint0_linear_3037_9149" x1="35.666" y1="1.408" x2="35.666" y2="72.216" gradientUnits="userSpaceOnUse">
<stop stop-color="white"/>
<stop offset="1" stop-color="#E6E8E9"/>
</linearGradient>
<linearGradient id="paint1_linear_3037_9149" x1="35.7079" y1="0" x2="35.7079" y2="72" gradientUnits="userSpaceOnUse">
<stop stop-color="white"/>
<stop offset="1" stop-color="#E8E9F6"/>
</linearGradient>
<linearGradient id="paint2_linear_3037_9149" x1="36.5" y1="15" x2="36.5" y2="58" gradientUnits="userSpaceOnUse">
<stop stop-color="#128FFD"/>
<stop offset="1" stop-color="#2B72F9"/>
</linearGradient>
<linearGradient id="paint3_linear_3037_9149" x1="36.5" y1="-9.09483" x2="36.5" y2="46.5086" gradientUnits="userSpaceOnUse">
<stop stop-color="#00C4FF"/>
<stop offset="1" stop-color="#0085FF"/>
</linearGradient>
<clipPath id="clip0_3037_9149">
<rect width="72" height="72" rx="15.12" fill="white"/>
</clipPath>
</defs>
</svg>
