<svg width="40" height="43" viewBox="0 0 40 43" fill="none" xmlns="http://www.w3.org/2000/svg">
<path d="M37.1543 17.2619C36.7734 17.6747 36.3799 18.1134 35.9736 18.5778C35.5674 19.0423 35.0532 19.6615 34.4312 20.4356C33.8091 21.2097 33.3076 21.9838 32.9268 22.7578C32.5459 23.5319 32.3555 28.2861 32.3555 28.8538C32.3555 29.5504 31.1685 30.1374 28.7944 30.6148C26.4204 31.0921 23.5449 31.3308 20.168 31.3308C16.791 31.3308 13.9155 31.0921 11.5415 30.6148C9.16748 30.1374 7.98047 29.5504 7.98047 28.8538C7.98047 28.1055 7.6377 23.0868 6.95215 21.9644C6.2666 20.842 5.62549 19.9389 5.02881 19.2551C4.43213 18.5714 3.8418 17.9328 3.25781 17.3393C1.53125 15.6363 0.667969 13.5721 0.667969 11.1467C0.667969 8.74706 1.49951 6.70221 3.1626 5.01214C4.82568 3.32208 6.83789 2.47704 9.19922 2.47704C9.7832 2.47704 10.3926 2.54155 11.0273 2.67056C10.6211 3.72846 10.418 4.90248 10.418 6.19261C10.418 8.95348 11.2559 11.2499 12.9316 13.0819C12.8809 11.6885 12.8555 10.2178 12.8555 8.66965C12.8555 6.27001 13.5664 4.22516 14.9883 2.5351C16.4102 0.845033 18.1367 0 20.168 0C22.1992 0 23.9258 0.845033 25.3477 2.5351C26.7695 4.22516 27.4805 6.27001 27.4805 8.66965C27.4805 10.2436 27.4551 11.7143 27.4043 13.0819C29.0801 11.2499 29.918 8.95348 29.918 6.19261C29.918 4.90248 29.7148 3.72846 29.3086 2.67056C29.9434 2.54155 30.5527 2.47704 31.1367 2.47704C33.498 2.47704 35.5103 3.32208 37.1733 5.01214C38.8364 6.70221 39.668 8.74706 39.668 11.1467C39.668 13.5463 38.8301 15.5847 37.1543 17.2619ZM20.168 33.2479C23.5322 33.2479 26.3887 32.8467 28.7754 32.3565C31.1621 31.8662 32.3555 31.2857 32.3555 30.6148V40.523C32.3555 41.1938 31.1621 41.7744 28.7754 42.2646C26.3887 42.7549 23.5132 43 20.1489 43C16.7847 43 13.9155 42.7549 11.5415 42.2646C9.16748 41.7744 7.98047 41.1938 7.98047 40.523V30.6148C7.98047 31.3115 9.16748 31.8985 11.5415 32.3758C13.9155 32.8532 16.8037 33.2479 20.168 33.2479Z" fill="url(#paint0_linear_305_236)"/>
<defs>
<linearGradient id="paint0_linear_305_236" x1="20.168" y1="0" x2="20.168" y2="43" gradientUnits="userSpaceOnUse">
<stop stop-color="#128FFD"/>
<stop offset="1" stop-color="#2B72F9"/>
</linearGradient>
</defs>
</svg>
