<svg xmlns="http://www.w3.org/2000/svg" width="37" height="37" fill="none" viewBox="0 0 37 37">
    <path fill="#000000" d="M30.864 6.486H6.774c-1.564 0-2.78 1.273-2.78 2.779v18.219c0 1.563 1.216 2.779 2.78 2.779h24.09c1.506 0 2.78-1.216 2.78-2.78V9.266c0-1.506-1.274-2.78-2.78-2.78zm-.347 20.998H7.12c-.232 0-.347-.116-.347-.348V9.612c0-.174.116-.348.347-.348h23.396c.173 0 .347.174.347.348v17.524c0 .232-.174.348-.347.348zM11.407 11.58c-1.332 0-2.317 1.042-2.317 2.315 0 1.332.985 2.316 2.317 2.316 1.274 0 2.316-.984 2.316-2.316 0-1.273-1.042-2.315-2.316-2.315zM9.554 24.705h18.53v-6.177l-5.095-5.037c-.29-.29-.695-.29-.985 0l-6.891 6.89-2.317-2.258c-.289-.29-.694-.29-.984 0L9.554 20.38v4.324z"/>
</svg>
