<svg width="72" height="72" viewBox="0 0 72 72" fill="none" xmlns="http://www.w3.org/2000/svg">
<g clip-path="url(#clip0_3001_5578)">
<rect x="6.10352e-05" width="72" height="72" rx="16.1379" fill="#708F97"/>
<rect x="6.10352e-05" width="72" height="72" fill="url(#paint0_linear_3001_5578)"/>
<rect x="6.10352e-05" width="72" height="72" fill="white"/>
<rect x="6.10352e-05" width="72" height="72" fill="url(#paint1_linear_3001_5578)"/>
<g clip-path="url(#clip1_3001_5578)">
<path d="M36.0115 55.987C38.7257 48.797 37.93 40.3481 33.1641 33.5369C28.3981 26.7258 20.8067 23.1883 13.233 23.4334C10.5188 30.6234 11.3145 39.0722 16.0804 45.8834C20.8464 52.6946 28.4379 56.2321 36.0115 55.987Z" fill="url(#paint2_linear_3001_5578)"/>
<path d="M35.9889 55.987C33.2747 48.797 34.0704 40.3481 38.8364 33.5369C43.6023 26.7258 51.1938 23.1883 58.7675 23.4334C61.4816 30.6234 60.6859 39.0722 55.92 45.8834C51.154 52.6946 43.5626 56.2321 35.9889 55.987Z" fill="url(#paint3_linear_3001_5578)"/>
<path d="M36.0009 55.9922C42.3128 51.7313 46.4823 44.3773 46.4823 36.0195C46.4823 27.6617 42.3128 20.3077 36.0009 16.0467C29.689 20.3077 25.5195 27.6617 25.5195 36.0195C25.5195 44.3773 29.689 51.7313 36.0009 55.9922Z" fill="#0EE174"/>
<path d="M35.994 55.9876C35.9989 55.9874 36.0037 55.9873 36.0086 55.9871L36.0125 55.9844C38.7254 48.795 37.9294 40.3473 33.164 33.537C31.4476 31.0839 29.3646 29.0555 27.0481 27.4755C26.0607 30.1281 25.5195 33.0086 25.5195 36.0195C25.5195 44.3742 29.6859 51.7259 35.994 55.9876Z" fill="url(#paint4_linear_3001_5578)"/>
<path d="M35.9933 55.9872C35.9982 55.9873 36.003 55.9875 36.0078 55.9876C42.3159 51.726 46.4823 44.3743 46.4823 36.0195C46.4823 33.0083 45.9411 30.1275 44.9535 27.4746C42.6364 29.0548 40.553 31.0835 38.8363 33.537C34.0712 40.3469 33.275 48.7939 35.9873 55.9831C35.9893 55.9844 35.9913 55.9858 35.9933 55.9872Z" fill="url(#paint5_linear_3001_5578)"/>
<path d="M35.994 55.9876C35.9937 55.9875 35.9942 55.9878 35.994 55.9876C35.9919 55.9862 35.9893 55.9845 35.9873 55.9831C33.9528 50.5906 33.8923 44.4905 36.0002 38.9043C38.1081 44.4909 38.0475 50.5917 36.0124 55.9845L36.0085 55.9872L35.994 55.9876Z" fill="url(#paint6_linear_3001_5578)"/>
</g>
</g>
<defs>
<linearGradient id="paint0_linear_3001_5578" x1="36.0001" y1="14.8966" x2="36.0001" y2="72" gradientUnits="userSpaceOnUse">
<stop stop-color="#0086FF"/>
<stop offset="1" stop-color="#626BFF"/>
</linearGradient>
<linearGradient id="paint1_linear_3001_5578" x1="36.0419" y1="0" x2="36.0419" y2="72" gradientUnits="userSpaceOnUse">
<stop stop-color="white"/>
<stop offset="1" stop-color="#E8E9F6"/>
</linearGradient>
<linearGradient id="paint2_linear_3001_5578" x1="13.233" y1="23.4334" x2="36.503" y2="55.6318" gradientUnits="userSpaceOnUse">
<stop stop-color="#8764FC"/>
<stop offset="1" stop-color="#6334FF"/>
</linearGradient>
<linearGradient id="paint3_linear_3001_5578" x1="58.7675" y1="23.4334" x2="35.4974" y2="55.6318" gradientUnits="userSpaceOnUse">
<stop stop-color="#FF7401"/>
<stop offset="1" stop-color="#F2275E"/>
</linearGradient>
<linearGradient id="paint4_linear_3001_5578" x1="31.5398" y1="37.6837" x2="31.5398" y2="62.0745" gradientUnits="userSpaceOnUse">
<stop stop-color="#04C4FC"/>
<stop offset="1" stop-color="#8764FC"/>
</linearGradient>
<linearGradient id="paint5_linear_3001_5578" x1="40.4613" y1="35.6794" x2="40.4613" y2="69.6254" gradientUnits="userSpaceOnUse">
<stop stop-color="#FFD101"/>
<stop offset="1" stop-color="#FF7401"/>
</linearGradient>
<linearGradient id="paint6_linear_3001_5578" x1="36.0001" y1="38.9043" x2="36.0001" y2="55.9877" gradientUnits="userSpaceOnUse">
<stop stop-color="#53A97D"/>
<stop offset="1" stop-color="#6762A5"/>
</linearGradient>
<clipPath id="clip0_3001_5578">
<rect x="6.10352e-05" width="72" height="72" rx="16.1379" fill="white"/>
</clipPath>
<clipPath id="clip1_3001_5578">
<rect width="63.3103" height="40.9655" fill="white" transform="translate(4.34491 15.5172)"/>
</clipPath>
</defs>
</svg>
