<svg width="73" height="72" viewBox="0 0 73 72" fill="none" xmlns="http://www.w3.org/2000/svg">
<g clip-path="url(#clip0_3001_5737)">
<path d="M57.1334 0H15.5334C7.13865 0 0.333374 6.80527 0.333374 15.2V56.8C0.333374 65.1947 7.13865 72 15.5334 72H57.1334C65.5281 72 72.3334 65.1947 72.3334 56.8V15.2C72.3334 6.80527 65.5281 0 57.1334 0Z" fill="url(#paint0_linear_3001_5737)"/>
<path d="M57.1334 0H15.5334C7.13865 0 0.333374 6.80527 0.333374 15.2V56.8C0.333374 65.1947 7.13865 72 15.5334 72H57.1334C65.5281 72 72.3334 65.1947 72.3334 56.8V15.2C72.3334 6.80527 65.5281 0 57.1334 0Z" fill="url(#paint1_linear_3001_5737)"/>
<rect x="14.3334" y="14" width="20" height="44" rx="4" fill="#BFD8FF"/>
<rect x="14.3334" y="14" width="20" height="44" rx="4" fill="url(#paint2_linear_3001_5737)" fill-opacity="0.1"/>
<rect x="38.3334" y="38" width="20" height="20" rx="4" fill="url(#paint3_linear_3001_5737)"/>
<rect x="38.3334" y="38" width="20" height="20" rx="4" fill="url(#paint4_linear_3001_5737)"/>
<rect x="38.3334" y="14" width="20" height="20" rx="4" fill="#BFD8FF"/>
<rect x="38.3334" y="14" width="20" height="20" rx="4" fill="url(#paint5_linear_3001_5737)" fill-opacity="0.1"/>
</g>
<defs>
<linearGradient id="paint0_linear_3001_5737" x1="36.3334" y1="1.408" x2="36.3334" y2="72.216" gradientUnits="userSpaceOnUse">
<stop stop-color="white"/>
<stop offset="1" stop-color="#E6E8E9"/>
</linearGradient>
<linearGradient id="paint1_linear_3001_5737" x1="36.3752" y1="0" x2="36.3752" y2="72" gradientUnits="userSpaceOnUse">
<stop stop-color="white"/>
<stop offset="1" stop-color="#E8E9F6"/>
</linearGradient>
<linearGradient id="paint2_linear_3001_5737" x1="24.3334" y1="-10.6552" x2="24.3334" y2="46.2414" gradientUnits="userSpaceOnUse">
<stop stop-color="#00C4FF"/>
<stop offset="1" stop-color="#0085FF"/>
</linearGradient>
<linearGradient id="paint3_linear_3001_5737" x1="48.3334" y1="38" x2="48.3334" y2="58" gradientUnits="userSpaceOnUse">
<stop stop-color="#128FFD"/>
<stop offset="1" stop-color="#2B72F9"/>
</linearGradient>
<linearGradient id="paint4_linear_3001_5737" x1="48.3334" y1="26.7931" x2="48.3334" y2="52.6552" gradientUnits="userSpaceOnUse">
<stop stop-color="#00C4FF"/>
<stop offset="1" stop-color="#0085FF"/>
</linearGradient>
<linearGradient id="paint5_linear_3001_5737" x1="48.3334" y1="2.7931" x2="48.3334" y2="28.6552" gradientUnits="userSpaceOnUse">
<stop stop-color="#00C4FF"/>
<stop offset="1" stop-color="#0085FF"/>
</linearGradient>
<clipPath id="clip0_3001_5737">
<rect x="0.333374" width="72" height="72" rx="15.12" fill="white"/>
</clipPath>
</defs>
</svg>
