<svg width="10" height="12" viewBox="0 0 10 12" fill="none" xmlns="http://www.w3.org/2000/svg">
<path d="M9.56622 3.73167C9.69024 3.73167 9.81427 3.62833 9.81427 3.48363V2.65681C9.81427 2.53279 9.69024 2.40877 9.56622 2.40877H9.15281V1.41658C9.15281 0.87915 8.69806 0.4244 8.16063 0.4244H1.54606C0.987959 0.4244 0.553879 0.87915 0.553879 1.41658V10.0155C0.553879 10.5736 0.987959 11.0077 1.54606 11.0077H8.16063C8.69806 11.0077 9.15281 10.5736 9.15281 10.0155V9.02333H9.56622C9.69024 9.02333 9.81427 8.91998 9.81427 8.77528V7.94846C9.81427 7.82444 9.69024 7.70042 9.56622 7.70042H9.15281V6.3775H9.56622C9.69024 6.3775 9.81427 6.27415 9.81427 6.12946V5.30264C9.81427 5.17861 9.69024 5.0546 9.56622 5.0546H9.15281V3.73167H9.56622ZM8.16063 10.0155H1.54606V1.41658H8.16063V10.0155ZM4.85334 5.71605C5.57681 5.71605 6.17626 5.13727 6.17626 4.39313C6.17626 3.66967 5.57681 3.07022 4.85334 3.07022C4.10921 3.07022 3.53043 3.66967 3.53043 4.39313C3.53043 5.13727 4.10921 5.71605 4.85334 5.71605ZM2.993 8.36188H6.69302C6.96174 8.36188 7.16844 8.19651 7.16844 7.96913V7.57639C7.16844 6.91494 6.52766 6.3775 5.76285 6.3775C5.55614 6.3775 5.39078 6.54288 4.85334 6.54288C4.29524 6.54288 4.15055 6.3775 3.92317 6.3775C3.15836 6.3775 2.53825 6.91494 2.53825 7.57639V7.96913C2.53825 8.19651 2.74495 8.36188 2.993 8.36188Z" fill="#808080"/>
</svg>
