<?xml version="1.0" encoding="UTF-8" standalone="no"?>
<svg width="14" height="14" viewBox="0 0 14 14" fill="none" version="1.1" id="svg4" sodipodi:docname="address-book.svg" inkscape:version="1.1 (c68e22c387, 2021-05-23)"
   xmlns:inkscape="http://www.inkscape.org/namespaces/inkscape"
   xmlns:sodipodi="http://sodipodi.sourceforge.net/DTD/sodipodi-0.dtd"
   xmlns="http://www.w3.org/2000/svg"
   xmlns:svg="http://www.w3.org/2000/svg">
   <defs id="defs8" />
   <sodipodi:namedview id="namedview6" pagecolor="#505050" bordercolor="#ffffff" borderopacity="1" inkscape:pageshadow="0" inkscape:pageopacity="0" inkscape:pagecheckerboard="1" showgrid="false" inkscape:zoom="41.012193" inkscape:cx="6.9979189" inkscape:cy="6.8638124" inkscape:window-width="1920" inkscape:window-height="1017" inkscape:window-x="-8" inkscape:window-y="-8" inkscape:window-maximized="1" inkscape:current-layer="svg4" width="14.56652px" />
   <path d="m 11.968747,4.749987 c 0.140622,0 0.281255,-0.1171733 0.281255,-0.2812431 V 3.5312444 c 0,-0.1406216 -0.140633,-0.2812431 -0.281255,-0.2812431 H 11.499998 V 2.1249948 c 0,-0.6093713 -0.515624,-1.12499485 -1.124995,-1.12499485 H 2.8749945 c -0.6328094,0 -1.1249962,0.51562355 -1.1249962,1.12499485 V 11.874982 C 1.7499983,12.507791 2.2421851,13 2.8749945,13 h 7.5000085 c 0.609371,0 1.124995,-0.492209 1.124995,-1.125018 v -1.124984 h 0.468749 c 0.140622,0 0.281255,-0.117185 0.281255,-0.281254 v -0.9375 c 0,-0.1406214 -0.140633,-0.281243 -0.281255,-0.281243 H 11.499998 V 7.7499925 h 0.468749 c 0.140622,0 0.281255,-0.1171846 0.281255,-0.281243 V 6.5312498 c 0,-0.1406327 -0.140633,-0.2812431 -0.281255,-0.2812431 H 11.499998 V 4.749987 Z m -1.593744,7.124995 H 2.8749945 V 2.1249948 H 10.375003 Z M 6.6249931,6.9999997 c 0.8203149,0 1.5000084,-0.6562566 1.5000084,-1.5000085 0,-0.8203036 -0.6796935,-1.499997 -1.5000084,-1.499997 -0.8437406,0 -1.4999972,0.6796934 -1.4999972,1.499997 0,0.8437519 0.6562566,1.5000085 1.4999972,1.5000085 z M 4.5156246,10.000005 h 4.1953113 c 0.3046914,0 0.5390606,-0.1875064 0.5390606,-0.445324 V 9.1093682 c 0,-0.749993 -0.726556,-1.3593756 -1.5937448,-1.3593756 -0.2343805,0 -0.421876,0.1875181 -1.0312586,0.1875181 -0.6328084,0 -0.7968668,-0.1875181 -1.0546843,-0.1875181 -0.8671888,0 -1.5703079,0.6093826 -1.5703079,1.3593756 V 9.554681 c 0,0.2578176 0.2343693,0.445324 0.5156237,0.445324 z" fill="#808080" id="path2" style="stroke-width:1.13386" />
</svg>
