<svg width="12" height="15" viewBox="0 0 12 15" fill="none" xmlns="http://www.w3.org/2000/svg">
<path d="M8.51852 8.7805C7.77596 8.7805 7.44304 9.19015 6.23936 9.19015C5.01005 9.19015 4.67723 8.7805 3.93451 8.7805C2.03941 8.7805 0.50293 10.3425 0.50293 12.2376V12.878C0.50293 13.5694 1.04083 14.1071 1.73226 14.1071H10.7467C11.4124 14.1071 11.9758 13.5694 11.9758 12.878V12.2376C11.9758 10.3425 10.4136 8.7805 8.51852 8.7805V8.7805ZM10.7467 12.878H1.73226V12.2376C1.73226 11.0084 2.70535 10.0096 3.93451 10.0096C4.31869 10.0096 4.90763 10.4195 6.23936 10.4195C7.54545 10.4195 8.1345 10.0096 8.51852 10.0096C9.74783 10.0096 10.7467 11.0084 10.7467 12.2376V12.878ZM6.23936 8.37066C8.26253 8.37066 9.92717 6.73166 9.92717 4.68285C9.92717 2.65985 8.26253 0.995239 6.23936 0.995239C4.19056 0.995239 2.55175 2.65985 2.55175 4.68285C2.55175 6.73166 4.19056 8.37066 6.23936 8.37066ZM6.23936 2.22438C7.57094 2.22438 8.69784 3.35128 8.69784 4.68285C8.69784 6.04023 7.57094 7.14152 6.23936 7.14152C4.88199 7.14152 3.78089 6.04023 3.78089 4.68285C3.78089 3.35128 4.88199 2.22438 6.23936 2.22438Z" fill="#808080"/>
</svg>
