<svg width="24" height="24" viewBox="0 0 24 24" fill="none" xmlns="http://www.w3.org/2000/svg">
<path d="M20.3575 4.28571H3.64291C2.55818 4.28571 1.71429 5.16977 1.71429 6.21433V17.7857C1.71429 18.8707 2.55818 19.7143 3.64291 19.7143H20.3575C21.4021 19.7143 22.2857 18.8707 22.2857 17.7857V6.21433C22.2857 5.16977 21.4021 4.28571 20.3575 4.28571ZM20.3575 6.21433V7.86143C19.4334 8.62484 17.9867 9.75019 14.9331 12.1609C14.25 12.6833 12.9242 13.9687 12.0002 13.9285C11.0359 13.9674 9.7098 12.6833 9.02673 12.1609C5.97313 9.75019 4.52682 8.62484 3.64291 7.86143V6.21433L20.3575 6.21433ZM3.64291 17.7857V10.3528C4.52682 11.0758 5.85266 12.1205 7.82154 13.6875C8.70543 14.3705 10.2725 15.8976 12.0002 15.8574C13.6876 15.8963 15.2142 14.3705 16.1383 13.6875C18.1072 12.1205 19.4334 11.0758 20.3575 10.3528V17.7857H3.64291Z" fill="#808080"/>
</svg>
