<svg width="8" height="8" viewBox="0 0 8 8" fill="none" xmlns="http://www.w3.org/2000/svg">
<path d="M7.41359 3.19373H4.59977V0.379908C4.59977 0.223196 4.44304 0.0672607 4.28712 0.0672607H3.66182C3.48596 0.0672607 3.34918 0.223988 3.34918 0.379908V3.19373H0.535547C0.359682 3.19373 0.2229 3.35026 0.2229 3.50618V4.13148C0.2229 4.30734 0.359049 4.44432 0.535547 4.44432H3.34918V7.25795C3.34918 7.43381 3.48533 7.5706 3.66182 7.5706H4.28712C4.44383 7.5706 4.59977 7.43445 4.59977 7.25795V4.44432H7.41359C7.5703 4.44432 7.72624 4.30814 7.72624 4.13148V3.50618C7.72624 3.34947 7.56951 3.19373 7.41359 3.19373Z" fill="#00d400"/>
</svg>
