<?xml version="1.0" encoding="UTF-8" standalone="no"?>
<svg
   width="14"
   height="14"
   viewBox="0 0 14 14"
   fill="none"
   version="1.1"
   id="svg4"
   sodipodi:docname="delete.svg"
   inkscape:version="1.1 (c68e22c387, 2021-05-23)"
   xmlns:inkscape="http://www.inkscape.org/namespaces/inkscape"
   xmlns:sodipodi="http://sodipodi.sourceforge.net/DTD/sodipodi-0.dtd"
   xmlns="http://www.w3.org/2000/svg"
   xmlns:svg="http://www.w3.org/2000/svg">
  <defs
     id="defs8" />
  <sodipodi:namedview
     id="namedview6"
     pagecolor="#505050"
     bordercolor="#ffffff"
     borderopacity="1"
     inkscape:pageshadow="0"
     inkscape:pageopacity="0"
     inkscape:pagecheckerboard="1"
     showgrid="false"
     inkscape:zoom="21.75"
     inkscape:cx="1.6551724"
     inkscape:cy="6.091954"
     inkscape:window-width="1920"
     inkscape:window-height="1017"
     inkscape:window-x="-8"
     inkscape:window-y="-8"
     inkscape:window-maximized="1"
     inkscape:current-layer="svg4" />
  <path
     d="M 11.875006,2.8750158 H 9.929738 L 9.1327714,1.5624144 C 8.9452064,1.2343353 8.5702205,1.0000002 8.1718897,1.0000002 H 5.8047448 c -0.3984588,0 -0.7734771,0.2343351 -0.9610412,0.5624142 L 4.0469207,2.8750158 H 2.1249982 c -0.2108975,0 -0.3749414,0.1873807 -0.3749414,0.3749375 v 0.3749454 c 0,0.2108943 0.1640439,0.3750897 0.3749414,0.3750897 H 2.5000959 L 2.992225,11.945128 C 3.015048,12.554481 3.5078445,13 4.1171979,13 h 5.7421989 c 0.6093532,0 1.1015782,-0.445519 1.1249722,-1.054872 l 0.515698,-7.9451396 h 0.374939 c 0.187468,0 0.374937,-0.1641954 0.374937,-0.3750897 V 3.2499533 c 0,-0.1875568 -0.187469,-0.3749375 -0.374937,-0.3749375 z M 5.8047448,2.1249807 H 8.1718897 L 8.6172646,2.8750158 H 5.3593623 Z m 4.054652,9.7500463 H 4.1171979 L 3.6250684,3.9999884 h 6.7264736 z"
     fill="#808080"
     id="path2"
     style="stroke-width:0.801149" />
</svg>
