<svg width="16" height="13" viewBox="0 0 16 13" fill="none" xmlns="http://www.w3.org/2000/svg">
<path d="M1.92741 0.913048C1.29581 0.913048 0.764576 1.42213 0.787212 2.05325L1.07531 11.193C1.09747 11.8243 1.58391 12.3327 2.2155 12.3327H4.43273H13.5356C14.1671 12.3327 14.5976 11.8199 14.6753 11.193L15.4274 5.12163C15.2183 4.88102 14.8886 4.73855 14.4246 4.70547H3.00381C2.8471 4.70547 2.69577 4.76877 2.55457 4.8788C2.41369 4.98803 2.28214 5.1441 2.1639 5.32693C1.92725 5.69259 1.74268 7.23723 1.63773 7.67713V3.75175C1.63773 3.6172 1.72637 3.47346 1.8405 3.36313C1.95448 3.25233 2.09694 3.17619 2.21392 3.17619H14.4952C14.1625 2.62722 13.781 2.24557 13.1106 2.24557H5.85406L5.86989 2.05325C5.86989 1.89495 5.84615 1.74521 5.78916 1.60876C5.73376 1.47262 5.64828 1.34947 5.54443 1.24642C5.43996 1.14353 5.31507 1.06011 5.17672 1.00249C5.039 0.945487 4.88704 0.913788 4.72906 0.913788L1.92741 0.913048Z" fill="black"/>
</svg>
