<svg width="16" height="16" viewBox="0 0 16 16" fill="none" xmlns="http://www.w3.org/2000/svg">
<path d="M7.84214 0.563965C3.83428 0.563965 0.586914 3.81114 0.586914 7.819C0.586914 11.827 3.83428 15.0742 7.84214 15.0742C11.85 15.0742 15.0972 11.827 15.0972 7.819C15.0972 3.81114 11.85 0.563965 7.84214 0.563965ZM7.84214 13.67C4.59489 13.67 1.99131 11.0664 1.99131 7.819C1.99131 4.60103 4.59489 1.96817 7.84214 1.96817C11.0601 1.96817 13.693 4.60103 13.693 7.819C13.693 11.0664 11.0601 13.67 7.84214 13.67ZM9.62682 10.6274C9.80221 10.7445 10.007 10.7146 10.124 10.5405L10.6799 9.80908C10.7971 9.63353 10.7669 9.42868 10.5928 9.3117L8.66202 7.87832V3.72406C8.66202 3.54851 8.48647 3.37296 8.31092 3.37296H7.37491C7.17008 3.37296 7.02381 3.54851 7.02381 3.72406V8.55115C7.02381 8.63821 7.05226 8.75576 7.14091 8.81433L9.62682 10.6274Z" fill="black"/>
</svg>
