<?xml version="1.0" encoding="UTF-8" standalone="no"?>
<svg
   width="14"
   height="14"
   viewBox="0 0 14 14"
   fill="none"
   version="1.1"
   id="svg4"
   sodipodi:docname="recent.svg"
   inkscape:version="1.1 (c68e22c387, 2021-05-23)"
   xmlns:inkscape="http://www.inkscape.org/namespaces/inkscape"
   xmlns:sodipodi="http://sodipodi.sourceforge.net/DTD/sodipodi-0.dtd"
   xmlns="http://www.w3.org/2000/svg"
   xmlns:svg="http://www.w3.org/2000/svg">
  <defs
     id="defs8" />
  <sodipodi:namedview
     id="namedview6"
     pagecolor="#505050"
     bordercolor="#ffffff"
     borderopacity="1"
     inkscape:pageshadow="0"
     inkscape:pageopacity="0"
     inkscape:pagecheckerboard="1"
     showgrid="false"
     inkscape:zoom="27.532661"
     inkscape:cx="3.0146014"
     inkscape:cy="3.4686077"
     inkscape:window-width="1920"
     inkscape:window-height="1017"
     inkscape:window-x="-8"
     inkscape:window-y="-8"
     inkscape:window-maximized="1"
     inkscape:current-layer="svg4" />
  <path
     d="M 7.0000803,0.999992 C 3.6855777,0.999992 1,3.6854086 1,6.9999113 1,10.314498 3.6855777,13.000008 7.0000803,13.000008 10.314575,13.000008 13,10.314498 13,6.9999113 13,3.6854086 10.314575,0.999992 7.0000803,0.999992 Z m 0,10.838717 c -2.685476,0 -4.8386457,-2.1531953 -4.8386457,-4.8387977 0,-2.6612624 2.1531697,-4.8386373 4.8386457,-4.8386373 2.661237,0 4.8387047,2.1773749 4.8387047,4.8386373 0,2.6856024 -2.1774677,4.8387977 -4.8387047,4.8387977 z M 8.476015,9.3224676 c 0.1450466,0.096804 0.314408,0.07211 0.4111618,-0.071866 L 9.3469094,8.6457131 C 9.443874,8.5005317 9.4188427,8.3311197 9.2748834,8.2343827 L 7.6781243,7.0489709 V 3.6133911 c 0,-0.145173 -0.1451813,-0.2903543 -0.2903627,-0.2903543 H 6.6136801 c -0.1693951,0 -0.2903627,0.1451813 -0.2903627,0.2903543 v 3.9920156 c 0,0.071992 0.023531,0.1692097 0.096846,0.2176457 z"
     fill="#808080"
     id="path2"
     style="stroke-width:0.0842804" />
</svg>
