<svg width="144" height="143" viewBox="0 0 144 143" fill="none" xmlns="http://www.w3.org/2000/svg">
<path d="M71.951 0.533905C32.6239 0.533905 0.759094 32.3968 0.759094 71.7239C0.759094 111.052 32.6239 142.916 71.951 142.916C111.278 142.916 143.141 111.052 143.141 71.7239C143.141 32.3968 111.278 0.533905 71.951 0.533905ZM71.951 129.137C40.0874 129.137 14.5397 103.589 14.5397 71.7239C14.5397 40.1476 40.0874 14.3127 71.951 14.3127C103.527 14.3127 129.363 40.1476 129.363 71.7239C129.363 103.589 103.527 129.137 71.951 129.137ZM89.4632 99.2814C91.1842 100.43 93.1937 100.137 94.3417 98.4287L99.7965 91.2516C100.947 89.529 100.65 87.5189 98.9419 86.3711L79.9961 72.306V31.5423C79.9961 29.8198 78.2735 28.0972 76.5509 28.0972H67.3663C65.3564 28.0972 63.9211 29.8198 63.9211 31.5423V78.9082C63.9211 79.7624 64.2003 80.9159 65.0702 81.4906L89.4632 99.2814Z" fill="#000000"/>
</svg>
