<svg width="166" height="148" viewBox="0 0 166 148" fill="none" xmlns="http://www.w3.org/2000/svg">
<path d="M161.499 54.9465L110.867 4.42374C102.237 -4.47491 87.5665 1.84094 87.5665 14.1847V37.15C47.868 38.2994 0.114426 46.048 0.114426 95.1358C0.114426 116.09 11.0466 133.604 28.0193 144.798C38.6631 151.976 52.7588 141.927 48.7304 129.297C41.8271 106.906 45.2795 95.1368 87.5665 92.5532V114.944C87.5665 127.287 102.237 133.604 110.867 124.705L161.499 74.1822C166.964 69.0145 166.964 60.1143 161.499 54.9465ZM101.374 114.944V78.4863C53.9088 78.7659 21.4008 87.9598 35.785 133.315C25.4292 126.425 13.9224 114.368 13.9224 95.1358C13.9224 54.0861 59.9498 50.9287 101.374 50.9287V13.8984L152.005 64.4212L101.374 114.944Z" fill="#000000"/>
</svg>
