<svg width="18" height="16" viewBox="0 0 18 16" fill="none" xmlns="http://www.w3.org/2000/svg">
<path d="M17.2372 5.90538L12.0882 0.756559C11.2105 -0.15031 9.71863 0.493344 9.71863 1.75131V4.09172C5.68149 4.20886 0.825195 4.99852 0.825195 10.0011C0.825195 12.1366 1.93694 13.9214 3.66298 15.0622C4.7454 15.7937 6.17886 14.7696 5.76919 13.4825C5.06716 11.2006 5.41825 10.0012 9.71863 9.73791V12.0198C9.71863 13.2777 11.2105 13.9214 12.0882 13.0145L17.2372 7.8657C17.793 7.33906 17.793 6.43203 17.2372 5.90538V5.90538ZM11.1228 12.0198V8.30434C6.29581 8.33283 2.98991 9.26979 4.45271 13.892C3.39958 13.1898 2.2294 11.9611 2.2294 10.0011C2.2294 5.81769 6.91015 5.49592 11.1228 5.49592V1.72213L16.2717 6.87095L11.1228 12.0198Z" fill="black"/>
</svg>
