<?xml version="1.0" encoding="UTF-8" standalone="no"?>
<svg width="14" height="14" viewBox="0 0 14 14" fill="none" version="1.1" id="svg4" sodipodi:docname="share.svg" inkscape:version="1.1 (c68e22c387, 2021-05-23)"
   xmlns:inkscape="http://www.inkscape.org/namespaces/inkscape"
   xmlns:sodipodi="http://sodipodi.sourceforge.net/DTD/sodipodi-0.dtd"
   xmlns="http://www.w3.org/2000/svg"
   xmlns:svg="http://www.w3.org/2000/svg">
   <defs id="defs8" />
   <sodipodi:namedview id="namedview6" pagecolor="#505050" bordercolor="#ffffff" borderopacity="1" inkscape:pageshadow="0" inkscape:pageopacity="0" inkscape:pagecheckerboard="1" showgrid="false" height="166px" inkscape:zoom="26.602504" inkscape:cx="2.9320548" inkscape:cy="6.3339902" inkscape:window-width="1920" inkscape:window-height="1017" inkscape:window-x="-8" inkscape:window-y="-8" inkscape:window-maximized="1" inkscape:current-layer="svg4" width="14px" />
   <path d="M 12.70278,5.638337 9.0312071,1.974687 C 8.4054041,1.329402 7.3415751,1.787395 7.3415751,2.682501 v 1.665326 c -2.878731,0.08335 -6.341575,0.645237 -6.341575,4.204832 0,1.519491 0.792745,2.789516 2.023518,3.601248 0.771834,0.520511 1.793981,-0.208191 1.501863,-1.124053 -0.500592,-1.62368 -0.250242,-2.477122 2.816194,-2.664472 v 1.623666 c 0,0.895051 1.063829,1.353127 1.689632,0.707818 L 12.70278,7.033212 c 0.396293,-0.374735 0.396293,-1.020132 0,-1.394875 z M 8.3428241,9.989048 V 7.345323 c -3.441932,0.02027 -5.799246,0.686969 -4.756177,3.975895 -0.75095,-0.499627 -1.585364,-1.373939 -1.585364,-2.768559 0,-2.976713 3.337671,-3.205672 6.341541,-3.205672 V 2.66174 l 3.6714999,3.663654 z" fill="#808080" id="path2" style="stroke-width:0.0725149" />
</svg>
