<svg width="16" height="16" viewBox="0 0 16 16" fill="none" xmlns="http://www.w3.org/2000/svg">
<path d="M15.1428 5.34792L10.8716 4.73364L8.94084 0.842752C8.61902 0.170001 7.62435 0.140716 7.27326 0.842752L5.37168 4.73364L1.07114 5.34792C0.310533 5.46506 0.0180252 6.40102 0.573955 6.95695L3.64574 9.97019L2.91417 14.2122C2.79703 14.9728 3.61648 15.5578 4.28939 15.2067L8.12173 13.1883L11.9249 15.2067C12.5976 15.5578 13.4167 14.9728 13.2997 14.2122L12.5684 9.97019L15.6401 6.95695C16.1959 6.40102 15.9034 5.46506 15.1428 5.34792V5.34792ZM11.047 9.47281L11.7492 13.51L8.12173 11.6084L4.46485 13.51L5.16685 9.47281L2.21216 6.60585L6.2787 6.02075L8.12173 2.33469L9.93539 6.02075L14.0017 6.60585L11.047 9.47281Z" fill="black"/>
</svg>
