<svg width="155" height="148" viewBox="0 0 155 148" fill="none" xmlns="http://www.w3.org/2000/svg">
<path d="M146.589 49.4765L104.678 43.4488L85.732 5.2695C82.5741 -1.33186 72.8139 -1.61922 69.3689 5.2695L50.7096 43.4488L8.51056 49.4765C1.0471 50.6259 -1.82313 59.81 3.63193 65.2651L33.7738 94.8325L26.5953 136.457C25.4459 143.921 33.4867 149.661 40.0896 146.216L77.6945 126.41L115.013 146.216C121.614 149.661 129.651 143.921 128.503 136.457L121.327 94.8325L151.468 65.2651C156.922 59.81 154.052 50.6259 146.589 49.4765ZM106.399 89.9519L113.289 129.567L77.6945 110.907L41.8113 129.567L48.6997 89.9519L19.7068 61.8199L59.6097 56.0786L77.6945 19.9091L95.491 56.0786L135.392 61.8199L106.399 89.9519Z" fill="#000000"/>
</svg>
