<svg width="24" height="22" viewBox="0 0 24 22" fill="none" xmlns="http://www.w3.org/2000/svg">
<path d="M23.1485 0.00234745C23.0284 -0.00626661 22.9077 0.00887949 22.7935 0.0469119C22.6792 0.0849442 22.5736 0.145118 22.4826 0.224L14.3032 7.34531V6.83191V2.63945L16.5444 4.8806L17.8809 3.71645L15.5536 1.3891C14.4169 0.21453 12.4845 1.0481 12.4845 2.67734V5.70849C7.25579 5.86004 0.966141 6.88308 0.966141 13.3621C0.966141 14.8691 1.3967 16.2396 2.14734 17.4154L3.53694 16.2057C3.08529 15.4289 2.78483 14.4893 2.78483 13.3621C2.78483 8.21072 8.26259 7.58812 13.4914 7.53854C13.6916 7.53664 13.8931 7.53076 14.0929 7.52812L0.314444 19.5239C0.131194 19.6836 0.0188658 19.9095 0.00216736 20.1519C-0.0145311 20.3944 0.0657707 20.6336 0.225404 20.8169C0.385037 20.9998 0.610748 21.112 0.852991 21.1287C1.09523 21.1454 1.33421 21.0653 1.51743 20.9059L23.6856 1.60602C23.8688 1.44635 23.9811 1.22044 23.9978 0.977969C24.0145 0.735494 23.9342 0.496314 23.7746 0.31304C23.6151 0.130834 23.39 0.019136 23.1485 0.00234745V0.00234745ZM19.728 5.56356L18.3915 6.72771L20.9717 9.30798L14.3032 15.9765V11.1646C13.9528 11.1667 13.6109 11.1743 13.2736 11.1844L11.004 13.1594C11.4553 13.1025 11.9383 13.0546 12.4845 13.0211V15.9765C12.4845 17.6057 14.4169 18.4393 15.5536 17.2647L22.2221 10.5962C22.942 9.91421 22.942 8.73964 22.2221 8.05763L19.728 5.56356ZM7.06349 16.5913L5.52707 17.9288C5.56928 18.0834 5.61331 18.2399 5.66442 18.4014C5.54155 18.3195 5.41722 18.2256 5.29311 18.1324L3.88552 19.3581C4.12613 19.5551 4.37757 19.7426 4.64141 19.917C6.04331 20.8642 7.8999 19.5381 7.36945 17.871C7.22731 17.409 7.12465 16.9854 7.06349 16.5913Z" fill="#808080"/>
</svg>
