<svg width="72" height="72" viewBox="0 0 72 72" fill="none" xmlns="http://www.w3.org/2000/svg">
<path d="M56.8 0H15.2C6.80527 0 0 6.80527 0 15.2V56.8C0 65.1947 6.80527 72 15.2 72H56.8C65.1947 72 72 65.1947 72 56.8V15.2C72 6.80527 65.1947 0 56.8 0Z" fill="url(#paint0_linear_334_4420)"/>
<rect x="14.2852" y="18" width="4" height="3" rx="1.5" fill="white"/>
<rect x="22.2852" y="18" width="36" height="3" rx="1.5" fill="white"/>
<rect x="14.2852" y="29" width="4" height="3" rx="1.5" fill="white"/>
<rect x="22.2852" y="29" width="36" height="3" rx="1.5" fill="white"/>
<rect x="14.2852" y="40" width="4" height="3" rx="1.5" fill="white"/>
<rect x="22.2852" y="40" width="36" height="3" rx="1.5" fill="white"/>
<rect x="14.2852" y="51" width="4" height="3" rx="1.5" fill="white"/>
<rect x="22.2852" y="51" width="36" height="3" rx="1.5" fill="white"/>
<defs>
<linearGradient id="paint0_linear_334_4420" x1="36" y1="0" x2="36" y2="72" gradientUnits="userSpaceOnUse">
<stop stop-color="#3FD479"/>
<stop offset="1" stop-color="#01B23D"/>
</linearGradient>
</defs>
</svg>
