<svg width="73" height="72" viewBox="0 0 73 72" fill="none" xmlns="http://www.w3.org/2000/svg">
<path d="M57.134 0H15.534C7.13926 0 0.333984 6.80527 0.333984 15.2V56.8C0.333984 65.1947 7.13926 72 15.534 72H57.134C65.5287 72 72.334 65.1947 72.334 56.8V15.2C72.334 6.80527 65.5287 0 57.134 0Z" fill="url(#paint0_linear_334_1669)"/>
<path d="M43.4955 30.431L34.8603 49.792H32.0822L40.6887 31.1183H29.4043V28.9417H43.4955V30.431Z" fill="#222222"/>
<path d="M0.337891 15H72.3379C72.2853 11.0035 70.6607 7.18849 67.8158 4.38105C64.9709 1.57361 61.1348 -0.000345948 57.1379 5.70346e-08H15.5379C11.541 -0.000345948 7.70483 1.57361 4.85996 4.38105C2.01509 7.18849 0.390481 11.0035 0.337891 15Z" fill="#F83E54"/>
<path d="M29.2029 4.21313L31.2269 9.26446L33.2508 4.21313H34.3095V10.404H33.4931V7.99312L33.5697 5.39093L31.5372 10.404H30.9122L28.884 5.40368L28.9648 7.99312V10.404H28.1484V4.21313H29.2029Z" fill="white"/>
<path d="M39.246 8.78824H36.6523L36.0698 10.404H35.2279L37.592 4.21313H38.3064L40.6747 10.404H39.8371L39.246 8.78824ZM36.899 8.11643H39.0037L37.9492 5.22085L36.899 8.11643Z" fill="white"/>
<path d="M42.9963 7.32131L44.612 4.21313H45.5389L43.4044 8.09517V10.404H42.5881V8.09517L40.4536 4.21313H41.389L42.9963 7.32131Z" fill="white"/>
<defs>
<linearGradient id="paint0_linear_334_1669" x1="36.334" y1="-1.172" x2="36.334" y2="71.548" gradientUnits="userSpaceOnUse">
<stop stop-color="white"/>
<stop offset="1" stop-color="#E6E8E9"/>
</linearGradient>
</defs>
</svg>
