<svg width="24" height="24" viewBox="0 0 24 24" fill="none" xmlns="http://www.w3.org/2000/svg">
<path d="M8.94644 13.2859C9.18744 13.2859 9.42852 13.0862 9.42852 12.8038V11.1966C9.42852 10.9556 9.18771 10.7145 8.94644 10.7145H7.33924C7.05782 10.7145 6.85717 10.9553 6.85717 11.1966V12.8038C6.85717 13.0849 7.05652 13.2859 7.33924 13.2859H8.94644ZM13.2857 12.8038V11.1966C13.2857 10.9556 13.0449 10.7145 12.8036 10.7145H11.1964C10.915 10.7145 10.714 10.9553 10.714 11.1966V12.8038C10.714 13.0849 10.9137 13.2859 11.1964 13.2859H12.8036C13.0446 13.2859 13.2857 13.0862 13.2857 12.8038ZM17.1429 12.8038V11.1966C17.1429 10.9556 16.9018 10.7145 16.6605 10.7145H15.0536C14.7722 10.7145 14.5712 10.9553 14.5712 11.1966V12.8038C14.5712 13.0849 14.7735 13.2859 15.0536 13.2859H16.6605C16.9015 13.2859 17.1429 13.0862 17.1429 12.8038ZM13.2857 16.661V15.0538C13.2857 14.8128 13.0449 14.5717 12.8036 14.5717H11.1964C10.915 14.5717 10.714 14.8125 10.714 15.0538V16.661C10.714 16.9421 10.9137 17.1431 11.1964 17.1431H12.8036C13.0446 17.1431 13.2857 16.9409 13.2857 16.661ZM9.42852 16.661V15.0538C9.42852 14.8128 9.18771 14.5717 8.94644 14.5717H7.33924C7.05782 14.5717 6.85717 14.8125 6.85717 15.0538V16.661C6.85717 16.9421 7.05652 17.1431 7.33924 17.1431H8.94644C9.18744 17.1431 9.42852 16.9409 9.42852 16.661ZM17.1429 16.661V15.0538C17.1429 14.8128 16.9018 14.5717 16.6605 14.5717H15.0536C14.7722 14.5717 14.5712 14.8125 14.5712 15.0538V16.661C14.5712 16.9421 14.7735 17.1431 15.0536 17.1431H16.6605C16.9015 17.1431 17.1429 16.9409 17.1429 16.661ZM21 6.21456C21 5.17 20.1157 4.28596 19.0711 4.28596H17.1429V2.19667C17.1429 1.95568 16.9018 1.71429 16.6605 1.71429H15.0536C14.7722 1.71429 14.5712 1.95542 14.5712 2.19667V4.28596H9.42852V2.19667C9.42852 1.95568 9.18771 1.71429 8.94644 1.71429H7.33924C7.05782 1.71429 6.85717 1.95542 6.85717 2.19667V4.28596H4.92857C3.8436 4.28596 2.99997 5.17 2.99997 6.21456V20.3572C2.99997 21.4422 3.8436 22.2857 4.92857 22.2857H19.0711C20.1157 22.2857 21 21.4422 21 20.3572V6.21456ZM19.0711 20.1162C19.0711 20.2768 18.9523 20.3572 18.8305 20.3572H5.1696C5.00894 20.3572 4.92857 20.2768 4.92857 20.1162V8.14316H19.0711V20.1162Z" fill="#000000"/>
</svg>
