<svg width="73" height="72" viewBox="0 0 73 72" fill="none" xmlns="http://www.w3.org/2000/svg">
<g clip-path="url(#clip0_3001_5553)">
<rect x="0.333374" width="72" height="72" rx="16.1379" fill="#708F97"/>
<rect x="0.333374" width="72" height="72" fill="url(#paint0_linear_3001_5553)"/>
<rect x="0.333374" width="72" height="72" fill="url(#paint1_linear_3001_5553)"/>
<path d="M26.5158 6.20691L29.1164 12.2842L31.7169 6.20691H33.0772V13.6552H32.0283V10.7547L32.1266 7.62392L29.5152 13.6552H28.7121L26.1061 7.63927L26.2099 10.7547V13.6552H25.1609V6.20691H26.5158Z" fill="#FDD1D1"/>
<path d="M39.4201 11.7113H36.0875L35.339 13.6552H34.2573L37.2949 6.20691H38.2127L41.2558 13.6552H40.1795L39.4201 11.7113ZM36.4044 10.903H39.1087L37.7538 7.4193L36.4044 10.903Z" fill="#FDD1D1"/>
<path d="M44.2387 9.94639L46.3148 6.20691H47.5058L44.7632 10.8774V13.6552H43.7143V10.8774L40.9717 6.20691H42.1736L44.2387 9.94639Z" fill="#FDD1D1"/>
<path d="M0.333374 19.8621H72.3334V72H0.333374V19.8621Z" fill="url(#paint2_linear_3001_5553)"/>
<path d="M39.1519 33.3779V55.5172H35.4999V37.7118L30.0901 39.5454V36.5298L38.7125 33.3779H39.1519Z" fill="#2D313E"/>
</g>
<defs>
<linearGradient id="paint0_linear_3001_5553" x1="36.3334" y1="9.30841" x2="36.3334" y2="31.0345" gradientUnits="userSpaceOnUse">
<stop stop-color="#F12361"/>
<stop offset="1" stop-color="#F12361"/>
</linearGradient>
<linearGradient id="paint1_linear_3001_5553" x1="36.3334" y1="13.2846" x2="36.3334" y2="75.9568" gradientUnits="userSpaceOnUse">
<stop stop-color="#FF3434"/>
<stop offset="1" stop-color="#FF0953"/>
</linearGradient>
<linearGradient id="paint2_linear_3001_5553" x1="36.3752" y1="19.8621" x2="36.3752" y2="72" gradientUnits="userSpaceOnUse">
<stop stop-color="white"/>
<stop offset="1" stop-color="#E8E9F6"/>
</linearGradient>
<clipPath id="clip0_3001_5553">
<rect x="0.333374" width="72" height="72" rx="16.1379" fill="white"/>
</clipPath>
</defs>
</svg>
