<svg width="12" height="15" viewBox="0 0 12 15" fill="none" xmlns="http://www.w3.org/2000/svg">
<path d="M11.6151 10.2914C11.1285 9.75348 10.1812 8.95965 10.1812 6.32183C10.1812 4.34996 8.7983 2.76231 6.9032 2.35249V1.81473C6.9032 1.37926 6.54453 0.995239 6.10922 0.995239C5.64826 0.995239 5.28972 1.37926 5.28972 1.81473V2.35249C3.39462 2.76231 2.01176 4.34996 2.01176 6.32183C2.01176 8.95965 1.0642 9.75348 0.577605 10.2914C0.424059 10.4449 0.347137 10.6499 0.37278 10.8291C0.37278 11.2646 0.68003 11.6486 1.19227 11.6486H11.0007C11.5127 11.6486 11.8202 11.2646 11.8456 10.8291C11.8456 10.6499 11.768 10.4451 11.6151 10.2914ZM2.08867 10.4195C2.62655 9.72805 3.21542 8.5244 3.2409 6.34753C3.2409 6.34753 3.2409 6.34755 3.2409 6.32222C3.2409 4.76017 4.52152 3.4541 6.10922 3.4541C7.67142 3.4541 8.97753 4.76017 8.97753 6.32222C8.97753 6.34755 8.95222 6.34753 8.95222 6.34753C8.97754 8.5244 9.56692 9.72805 10.1046 10.4195H2.08867ZM6.10922 14.1073C7.00548 14.1073 7.72269 13.3904 7.72269 12.4683H4.47023C4.47023 13.3904 5.18731 14.1073 6.10922 14.1073Z" fill="#808080"/>
</svg>
