<?xml version="1.0" encoding="UTF-8" standalone="no"?>
<!-- Created with Inkscape (http://www.inkscape.org/) -->

<svg width="14" height="14" viewBox="0 0 3.7041666 3.7041666" version="1.1" id="svg3286" sodipodi:docname="notifications-new.svg" inkscape:version="1.1 (c68e22c387, 2021-05-23)"
   xmlns:inkscape="http://www.inkscape.org/namespaces/inkscape"
   xmlns:sodipodi="http://sodipodi.sourceforge.net/DTD/sodipodi-0.dtd"
   xmlns="http://www.w3.org/2000/svg"
   xmlns:svg="http://www.w3.org/2000/svg">
   <sodipodi:namedview id="namedview10" pagecolor="#505050" bordercolor="#ffffff" borderopacity="1" inkscape:pageshadow="0" inkscape:pageopacity="0" inkscape:pagecheckerboard="1" inkscape:document-units="mm" showgrid="false" inkscape:zoom="22.231735" inkscape:cx="3.8233633" inkscape:cy="8.4788704" inkscape:window-width="1920" inkscape:window-height="1017" inkscape:window-x="-8" inkscape:window-y="-8" inkscape:window-maximized="1" inkscape:current-layer="svg3286" units="px" width="14px" />
   <defs id="defs3283" />
   <g id="layer1" transform="matrix(0.38330579,0,0,0.38330579,-23.173491,-64.228512)">
      <g id="g3269" transform="translate(-209.94557,-844.63664)">
         <g id="g3353">
            <path id="text3158-3" style="font-style:normal;font-variant:normal;font-weight:normal;font-stretch:normal;font-size:8.28328px;line-height:1.25;font-family:'Font Awesome 5 Pro';-inkscape-font-specification:'Font Awesome 5 Pro';letter-spacing:0px;word-spacing:0px;display:inline;fill:#808080;stroke-width:3.91336" d="m 1036.3477,3855.6445 c 0,2.2013 1.7128,3.9141 3.914,3.9141 2.1401,0 3.8516,-1.7128 3.8516,-3.9141 z" transform="scale(0.26458331)" />
            <path id="path3181" style="font-style:normal;font-variant:normal;font-weight:normal;font-stretch:normal;font-size:8.28328px;line-height:1.25;font-family:'Font Awesome 5 Pro';-inkscape-font-specification:'Font Awesome 5 Pro';letter-spacing:0px;word-spacing:0px;display:inline;fill:#808080;stroke-width:3.91336" d="m 1040.2617,3828.252 c -1.1006,0 -1.957,0.9155 -1.957,1.955 v 1.2852 c -4.5248,0.9783 -7.8262,4.7683 -7.8262,9.4766 0,6.298 -2.262,8.1944 -3.4238,9.4785 -0.3669,0.3668 -0.5514,0.8551 -0.4902,1.2832 0,1.0395 0.7341,1.957 1.957,1.957 h 23.4199 c 1.2229,0 1.9564,-0.9175 2.0176,-1.957 0,-0.4281 -0.1839,-0.9164 -0.5508,-1.2832 -1.0743,-1.1874 -3.0894,-2.898 -3.3867,-8.1289 a 6.6342844,6.6342844 0 0 1 -1.6387,0.2597 6.6342844,6.6342844 0 0 1 -1.2871,-0.2031 c 0.2649,4.3586 1.5364,6.8763 2.7051,8.3789 h -19.1387 c 1.2841,-1.6509 2.6908,-4.5252 2.752,-9.7227 v -0.062 c 0,-3.73 3.0566,-6.8477 6.8476,-6.8477 0.5997,0 1.1826,0.082 1.7403,0.2324 a 6.6342844,6.6342844 0 0 1 0.072,-0.4609 6.6342844,6.6342844 0 0 1 0.9414,-1.8496 6.6342844,6.6342844 0 0 1 0.2481,-0.2481 c -0.3597,-0.1198 -0.7295,-0.221 -1.1075,-0.3027 v -1.2852 c 0,-1.0395 -0.855,-1.955 -1.8945,-1.955 z" transform="scale(0.26458331)" />
         </g>
         <circle style="fill:#007fff;stroke-width:1.03541;-inkscape-stroke:none;stop-color:#808080" id="path3096" cx="277.38461" cy="1014.9266" r="1.3603737" />
      </g>
   </g>
</svg>
