<svg width="72" height="72" viewBox="0 0 72 72" fill="none" xmlns="http://www.w3.org/2000/svg">
<g clip-path="url(#clip0_509_3248)">
<path d="M0 15.1998L0 56.7998C0 65.1945 6.80527 71.9998 15.2 71.9998H56.8C65.1947 71.9998 72 65.1945 72 56.7998V15.1998C72 6.80504 65.1947 -0.000236511 56.8 -0.000236511H15.2C6.80527 -0.000236511 0 6.80504 0 15.1998Z" fill="url(#paint0_linear_509_3248)"/>
<path d="M29.6717 50.2962L26.3758 47.0001C25.9866 46.612 25.4594 46.394 24.9098 46.394C24.3601 46.394 23.8329 46.612 23.4438 47.0001C23.0559 47.3886 22.8379 47.9152 22.8379 48.4642C22.8379 49.0131 23.0559 49.5395 23.4438 49.928L28.2076 54.6921C28.5961 55.08 29.1227 55.2979 29.6717 55.2979C30.2207 55.2979 30.7473 55.08 31.1357 54.6921L41.5838 44.244C41.9717 43.8556 42.1895 43.3292 42.1895 42.7802C42.1895 42.2312 41.9717 41.7046 41.5838 41.3161C41.1953 40.9282 40.6687 40.7104 40.1197 40.7104C39.5707 40.7104 39.0441 40.9282 38.6557 41.3161L29.6717 50.2962Z" fill="url(#paint1_linear_509_3248)"/>
<path d="M29.6717 25.7241L26.3758 22.428C26.1833 22.2353 25.9547 22.0827 25.7031 21.9784C25.4516 21.8741 25.1821 21.8204 24.9098 21.8204C24.6375 21.8204 24.3678 21.8741 24.1162 21.9784C23.8647 22.0827 23.6362 22.2353 23.4438 22.428C23.0559 22.8165 22.8379 23.3431 22.8379 23.892C22.8379 24.441 23.0559 24.9676 23.4438 25.3561L28.2076 30.1202C28.5961 30.5081 29.1227 30.7258 29.6717 30.7258C30.2207 30.7258 30.7473 30.5081 31.1357 30.1202L41.5838 19.6721C41.9717 19.2836 42.1895 18.757 42.1895 18.2081C42.1895 17.6591 41.9717 17.1325 41.5838 16.744C41.392 16.551 41.1638 16.3979 40.9125 16.2934C40.6612 16.1889 40.3919 16.135 40.1197 16.135C39.8476 16.135 39.5782 16.1889 39.327 16.2934C39.0757 16.3979 38.8475 16.551 38.6557 16.744L29.6717 25.7241Z" fill="url(#paint2_linear_509_3248)"/>
<path d="M15 71.992V-0.00805664C11.0035 0.0445338 7.1883 1.66914 4.38086 4.51401C1.57342 7.35889 -0.000345948 11.1951 5.70421e-08 15.1919V56.792C-0.000345948 60.7888 1.57342 64.625 4.38086 67.4699C7.1883 70.3148 11.0035 71.9394 15 71.992Z" fill="#0088ED"/>
<path d="M61.1515 48.0039H46.9355" stroke="#949DA1" stroke-miterlimit="10"/>
<path d="M61.1515 23.4399H46.9355" stroke="#949DA1" stroke-miterlimit="10"/>
</g>
<defs>
<linearGradient id="paint0_linear_509_3248" x1="13.224" y1="-6.99505" x2="13.224" y2="76.2504" gradientUnits="userSpaceOnUse">
<stop stop-color="#FFFFDD"/>
<stop offset="1" stop-color="#E5EED5"/>
</linearGradient>
<linearGradient id="paint1_linear_509_3248" x1="-257.901" y1="-74.3597" x2="-203.357" y2="-51.5636" gradientUnits="userSpaceOnUse">
<stop stop-color="#00D065"/>
<stop offset="0.33" stop-color="#00C95C"/>
<stop offset="0.88" stop-color="#00B642"/>
<stop offset="1" stop-color="#00B13C"/>
</linearGradient>
<linearGradient id="paint2_linear_509_3248" x1="-131102" y1="67958.4" x2="-128730" y2="69272.8" gradientUnits="userSpaceOnUse">
<stop stop-color="#00D065"/>
<stop offset="0.33" stop-color="#00C95C"/>
<stop offset="0.88" stop-color="#00B642"/>
<stop offset="1" stop-color="#00B13C"/>
</linearGradient>
<clipPath id="clip0_509_3248">
<rect width="72" height="72" rx="15.12" fill="white"/>
</clipPath>
</defs>
</svg>
