<svg width="72" height="72" viewBox="0 0 72 72" fill="none" xmlns="http://www.w3.org/2000/svg">
<g clip-path="url(#clip0_3001_5670)">
<rect x="6.10352e-05" width="72" height="72" fill="url(#paint0_linear_3001_5670)"/>
<rect x="6.10352e-05" width="72" height="72" fill="url(#paint1_linear_3001_5670)"/>
<path d="M19.8621 0H58.3449C65.8864 0 72.0001 6.11363 72.0001 13.6552V58.3448C72.0001 65.8864 65.8864 72 58.3449 72H19.8621V0Z" fill="#BBEBF8"/>
<path d="M19.8621 0H58.3449C65.8864 0 72.0001 6.11363 72.0001 13.6552V58.3448C72.0001 65.8864 65.8864 72 58.3449 72H19.8621V0Z" fill="url(#paint2_linear_3001_5670)"/>
<g filter="url(#filter0_dii_3001_5670)">
<path d="M62.1987 29.9399C63.5255 28.5111 63.5255 26.3006 62.1987 24.8718L61.9606 24.6154C60.4872 23.0286 57.976 23.0286 56.5026 24.6154L44.3206 37.7344C43.754 38.3447 42.7881 38.3447 42.2214 37.7344L35.3596 30.3448C33.8863 28.7581 31.375 28.7581 29.9016 30.3448L29.6635 30.6012C28.3367 32.0301 28.3367 34.2405 29.6635 35.6694L40.542 47.3847C42.0154 48.9714 44.5266 48.9714 46 47.3847L62.1987 29.9399Z" fill="url(#paint3_linear_3001_5670)"/>
<path d="M62.1987 29.9399C63.5255 28.5111 63.5255 26.3006 62.1987 24.8718L61.9606 24.6154C60.4872 23.0286 57.976 23.0286 56.5026 24.6154L44.3206 37.7344C43.754 38.3447 42.7881 38.3447 42.2214 37.7344L35.3596 30.3448C33.8863 28.7581 31.375 28.7581 29.9016 30.3448L29.6635 30.6012C28.3367 32.0301 28.3367 34.2405 29.6635 35.6694L40.542 47.3847C42.0154 48.9714 44.5266 48.9714 46 47.3847L62.1987 29.9399Z" fill="url(#paint4_linear_3001_5670)"/>
</g>
</g>
<defs>
<filter id="filter0_dii_3001_5670" x="27.236" y="21.993" width="37.3902" height="29.4465" filterUnits="userSpaceOnUse" color-interpolation-filters="sRGB">
<feFlood flood-opacity="0" result="BackgroundImageFix"/>
<feColorMatrix in="SourceAlpha" type="matrix" values="0 0 0 0 0 0 0 0 0 0 0 0 0 0 0 0 0 0 127 0" result="hardAlpha"/>
<feOffset dy="1.43236"/>
<feGaussianBlur stdDeviation="0.71618"/>
<feComposite in2="hardAlpha" operator="out"/>
<feColorMatrix type="matrix" values="0 0 0 0 0.825 0 0 0 0 0.855001 0 0 0 0 0.9 0 0 0 1 0"/>
<feBlend mode="normal" in2="BackgroundImageFix" result="effect1_dropShadow_3001_5670"/>
<feBlend mode="normal" in="SourceGraphic" in2="effect1_dropShadow_3001_5670" result="shape"/>
<feColorMatrix in="SourceAlpha" type="matrix" values="0 0 0 0 0 0 0 0 0 0 0 0 0 0 0 0 0 0 127 0" result="hardAlpha"/>
<feOffset dy="1.43236"/>
<feGaussianBlur stdDeviation="0.71618"/>
<feComposite in2="hardAlpha" operator="arithmetic" k2="-1" k3="1"/>
<feColorMatrix type="matrix" values="0 0 0 0 1 0 0 0 0 1 0 0 0 0 1 0 0 0 0.25 0"/>
<feBlend mode="normal" in2="shape" result="effect2_innerShadow_3001_5670"/>
<feColorMatrix in="SourceAlpha" type="matrix" values="0 0 0 0 0 0 0 0 0 0 0 0 0 0 0 0 0 0 127 0" result="hardAlpha"/>
<feOffset dy="-1.43236"/>
<feGaussianBlur stdDeviation="1.79045"/>
<feComposite in2="hardAlpha" operator="arithmetic" k2="-1" k3="1"/>
<feColorMatrix type="matrix" values="0 0 0 0 0 0 0 0 0 0 0 0 0 0 0 0 0 0 0.12 0"/>
<feBlend mode="normal" in2="effect2_innerShadow_3001_5670" result="effect3_innerShadow_3001_5670"/>
</filter>
<linearGradient id="paint0_linear_3001_5670" x1="36.0001" y1="0" x2="36.0001" y2="72" gradientUnits="userSpaceOnUse">
<stop stop-color="#B8E7F2"/>
<stop offset="1" stop-color="#96AAF5"/>
</linearGradient>
<linearGradient id="paint1_linear_3001_5670" x1="36.0001" y1="-40.3448" x2="36.0001" y2="52.7586" gradientUnits="userSpaceOnUse">
<stop stop-color="#00C4FF"/>
<stop offset="1" stop-color="#0085FF"/>
</linearGradient>
<linearGradient id="paint2_linear_3001_5670" x1="45.9614" y1="0" x2="45.9614" y2="72" gradientUnits="userSpaceOnUse">
<stop stop-color="white"/>
<stop offset="1" stop-color="#E8E9F6"/>
</linearGradient>
<linearGradient id="paint3_linear_3001_5670" x1="45.9311" y1="-7.99392" x2="45.9311" y2="61.5779" gradientUnits="userSpaceOnUse">
<stop stop-color="#00E653"/>
<stop offset="1" stop-color="#3176DE"/>
</linearGradient>
<linearGradient id="paint4_linear_3001_5670" x1="45.9311" y1="0.304976" x2="45.9311" y2="66.2632" gradientUnits="userSpaceOnUse">
<stop stop-color="#00E653"/>
<stop offset="1" stop-color="#00B960"/>
</linearGradient>
<clipPath id="clip0_3001_5670">
<rect x="6.10352e-05" width="72" height="72" rx="16.1379" fill="white"/>
</clipPath>
</defs>
</svg>
