<?xml version="1.0" encoding="UTF-8" standalone="no"?>
<svg
   width="14"
   height="14"
   viewBox="0 0 14 14"
   fill="none"
   version="1.1"
   id="svg6"
   sodipodi:docname="folder-public.svg"
   inkscape:version="1.1 (c68e22c387, 2021-05-23)"
   xmlns:inkscape="http://www.inkscape.org/namespaces/inkscape"
   xmlns:sodipodi="http://sodipodi.sourceforge.net/DTD/sodipodi-0.dtd"
   xmlns="http://www.w3.org/2000/svg"
   xmlns:svg="http://www.w3.org/2000/svg">
  <defs
     id="defs10" />
  <sodipodi:namedview
     id="namedview8"
     pagecolor="#505050"
     bordercolor="#ffffff"
     borderopacity="1"
     inkscape:pageshadow="0"
     inkscape:pageopacity="0"
     inkscape:pagecheckerboard="1"
     showgrid="false"
     inkscape:zoom="14.5"
     inkscape:cx="-15.172414"
     inkscape:cy="-0.10344828"
     inkscape:window-width="1920"
     inkscape:window-height="1017"
     inkscape:window-x="-8"
     inkscape:window-y="-8"
     inkscape:window-maximized="1"
     inkscape:current-layer="svg6" />
  <g
     id="g14"
     transform="matrix(0.86874865,0,0,0.86874865,0.9309094,1.7639724)">
    <path
       d="m 1.15594,0.640106 c -0.595843,0 -1.0971033,0.480324 -1.0757533,1.075754 L 0.351967,10.3389 c 0.0212,0.5954 0.479959,1.0752 1.075723,1.0752 h 2.09188 8.58813 c 0.5958,0 1.002,-0.4839 1.0753,-1.0752 L 13.8925,4.6107 C 13.6953,4.38375 13.3842,4.24932 12.9465,4.21816 H 2.17154 c -0.1484,0 -0.29064,0.0601 -0.42384,0.16347 C 1.61454,4.48506 1.49066,4.63199 1.37903,4.80448 1.15578,5.14946 0.981597,6.60669 0.882597,7.02171 V 3.3183 C 0.885597,3.19159 0.966496,3.05571 1.07394,2.9516 1.18136,2.8475 1.31593,2.77521 1.42626,2.77521 H 13.013 C 12.6991,2.25746 12.3393,1.89722 11.7067,1.89722 H 4.86066 l 0.006,-0.18136 C 4.87166,1.567 4.84416,1.42523 4.79106,1.29649 4.73786,1.16775 4.65859,1.05185 4.56003,0.954643 4.46153,0.857443 4.34363,0.778889 4.21321,0.724579 4.0828,0.670279 3.93982,0.640083 3.79086,0.640083 Z"
       fill="#007fff"
       id="path2" />
    <path
       d="M 7.53232,7.16604 C 7.42871,7.06243 7.31568,6.98707 7.19323,6.92114 7.14614,6.9023 7.09905,6.91174 7.06137,6.9494 L 7.02369,6.98708 C 6.93892,7.06243 6.89182,7.16604 6.8824,7.26965 6.873,7.31674 6.90124,7.36384 6.93891,7.3921 c 0.08477,0.03768 0.16013,0.08477 0.21664,0.1507 0.31083,0.31083 0.31083,0.81003 0,1.12086 L 6.44913,9.37009 c -0.31083,0.31082 -0.81003,0.31082 -1.12086,0 -0.31083,-0.31083 -0.31083,-0.81004 0,-1.12086 L 5.76154,7.81595 C 5.7898,7.78769 5.79922,7.75002 5.7898,7.71234 5.76154,7.59931 5.75212,7.47687 5.74271,7.35442 5.74271,7.26023 5.62027,7.21314 5.55433,7.27907 5.44131,7.3921 5.26234,7.57106 4.96094,7.87247 c -0.51805,0.51804 -0.51805,1.35633 0,1.86496 0.50862,0.51807 1.34691,0.51807 1.86496,0 C 7.59825,8.96507 7.56057,9.00275 7.61709,8.9274 8.04094,8.41877 8.01269,7.64641 7.53232,7.16604 Z M 9.00168,5.69668 C 8.49305,5.17863 7.65477,5.17863 7.13672,5.69668 6.36436,6.46903 6.40204,6.43135 6.34553,6.5067 5.92167,7.01533 5.94993,7.78769 6.4303,8.26806 6.53391,8.37167 6.64693,8.44701 6.76938,8.51295 6.81648,8.53179 6.86357,8.52235 6.90125,8.48469 L 6.93893,8.44701 C 7.0237,8.37166 7.07079,8.26805 7.08021,8.16444 7.08961,8.11735 7.06137,8.07025 7.0237,8.04199 6.93893,8.00431 6.86358,7.95722 6.80707,7.89129 6.49624,7.58046 6.49624,7.08126 6.80707,6.77043 L 7.51349,6.06401 c 0.31083,-0.31083 0.81003,-0.31083 1.12086,0 0.31082,0.31083 0.31082,0.81003 0,1.12086 L 8.20108,7.61814 C 8.17282,7.6464 8.16339,7.68407 8.17281,7.72175 8.20107,7.83477 8.21049,7.95723 8.2199,8.07967 c 0,0.09419 0.12245,0.14129 0.18838,0.07535 0.11303,-0.11303 0.29199,-0.29199 0.5934,-0.5934 0.51804,-0.51804 0.51804,-1.35633 0,-1.86496 z"
       fill="#ffffff"
       id="path4" />
  </g>
</svg>
