<?xml version="1.0" encoding="UTF-8" standalone="no"?>
<svg
   width="14"
   height="14"
   viewBox="0 0 14 14"
   fill="none"
   version="1.1"
   id="svg6"
   sodipodi:docname="folder-external.svg"
   inkscape:version="1.1 (c68e22c387, 2021-05-23)"
   xmlns:inkscape="http://www.inkscape.org/namespaces/inkscape"
   xmlns:sodipodi="http://sodipodi.sourceforge.net/DTD/sodipodi-0.dtd"
   xmlns="http://www.w3.org/2000/svg"
   xmlns:svg="http://www.w3.org/2000/svg">
  <defs
     id="defs10" />
  <sodipodi:namedview
     id="namedview8"
     pagecolor="#505050"
     bordercolor="#ffffff"
     borderopacity="1"
     inkscape:pageshadow="0"
     inkscape:pageopacity="0"
     inkscape:pagecheckerboard="1"
     showgrid="false"
     inkscape:zoom="31.636364"
     inkscape:cx="1.7701149"
     inkscape:cy="7.6652298"
     inkscape:window-width="1920"
     inkscape:window-height="1017"
     inkscape:window-x="-8"
     inkscape:window-y="-8"
     inkscape:window-maximized="1"
     inkscape:current-layer="svg6" />
  <g
     id="g14"
     transform="matrix(0.86875124,0,0,0.86875124,0.64349045,2.1674218)">
    <path
       d="m 1.48678,0.175667 c -0.595842,0 -1.097102,0.480322 -1.075752,1.075753 l 0.27178,8.62303 c 0.0212,0.59545 0.479962,1.07525 1.075722,1.07525 h 2.09188 8.58819 c 0.5958,0 1.002,-0.4839 1.0752,-1.07525 L 14.2233,4.14626 C 14.0261,3.91931 13.7151,3.78488 13.2773,3.75372 H 2.50238 c -0.1484,0 -0.29064,0.0601 -0.42384,0.16347 C 1.94538,4.02062 1.8215,4.16755 1.70987,4.34004 1.48662,4.68502 1.31244,6.14225 1.21344,6.55727 V 2.85386 C 1.21644,2.72715 1.29734,2.59127 1.40478,2.48716 1.5122,2.38306 1.64677,2.31077 1.7571,2.31077 H 13.3439 C 13.03,1.79302 12.6702,1.43278 12.0376,1.43278 H 5.1915 L 5.1975,1.25142 C 5.2025,1.10256 5.175,0.960794 5.1219,0.832054 5.0687,0.703314 4.98943,0.587414 4.89087,0.490204 4.79237,0.393004 4.67447,0.314449 4.54405,0.260139 4.41364,0.205839 4.27066,0.175644 4.1217,0.175644 Z"
       fill="#007fff"
       id="path2" />
    <path
       d="m 9.58683,4.83664 -1.5353,0.0094 c -0.07535,0 -0.13186,0.05651 -0.13186,0.13187 v 0.31082 c 0,0.07535 0.05651,0.14129 0.13186,0.14129 L 8.74854,5.40176 8.76738,5.42059 6.13948,8.04849 C 6.12064,8.06733 6.1018,8.09558 6.1018,8.12384 c 0,0.03768 0.01884,0.06593 0.03768,0.08477 l 0.21664,0.21664 c 0.01884,0.01884 0.04709,0.03768 0.08477,0.03768 0.02826,0 0.05651,-0.01884 0.07535,-0.03768 L 9.14414,5.79735 9.16297,5.81619 9.13472,6.5132 c 0,0.07535 0.06593,0.14128 0.14128,0.14128 v -0.0094 h 0.31083 c 0.07535,0 0.13187,-0.05651 0.13187,-0.13187 L 9.72812,4.97792 c 0,-0.07535 -0.06594,-0.14128 -0.14129,-0.14128 z M 8.9746,7.54931 H 8.82389 c -0.08477,0 -0.1507,0.07535 -0.1507,0.1507 v 1.45053 c 0,0.03768 -0.02826,0.0565 -0.05652,0.0565 H 5.41422 c -0.03768,0 -0.05651,-0.01883 -0.05651,-0.0565 V 5.94808 c 0,-0.02826 0.01883,-0.05651 0.05651,-0.05651 h 1.45052 c 0.07535,0 0.15071,-0.06593 0.15071,-0.1507 V 5.59016 c 0,-0.07535 -0.07536,-0.1507 -0.15071,-0.1507 H 5.35771 c -0.25432,0 -0.45212,0.20722 -0.45212,0.45211 v 3.31548 c 0,0.25432 0.1978,0.45211 0.45212,0.45211 h 3.31548 c 0.24489,0 0.45211,-0.19779 0.45211,-0.45211 V 7.70001 c 0,-0.07535 -0.07535,-0.1507 -0.1507,-0.1507 z"
       fill="#ffffff"
       id="path4" />
  </g>
</svg>
