<svg width="15" height="11" viewBox="0 0 15 11" fill="none" xmlns="http://www.w3.org/2000/svg">
<path d="M1.48678 0.175667C0.890938 0.175667 0.389678 0.655989 0.411028 1.25142L0.682808 9.87445C0.704008 10.4699 1.16277 10.9497 1.75853 10.9497H3.85041H12.4386C13.0344 10.9497 13.4406 10.4658 13.5138 9.87445L14.2233 4.14626C14.0261 3.91931 13.7151 3.78488 13.2773 3.75372H2.50238C2.35398 3.75372 2.21174 3.81382 2.07854 3.91719C1.94538 4.02062 1.8215 4.16755 1.70987 4.34004C1.48662 4.68502 1.31244 6.14225 1.21344 6.55727V2.85386C1.21644 2.72715 1.29734 2.59127 1.40478 2.48716C1.5122 2.38306 1.64677 2.31077 1.7571 2.31077H13.3439C13.03 1.79302 12.6702 1.43278 12.0376 1.43278H5.1915L5.1975 1.25142C5.2025 1.10256 5.175 0.960794 5.1219 0.832054C5.0687 0.703314 4.98943 0.587414 4.89087 0.490204C4.79237 0.393004 4.67447 0.314449 4.54405 0.260139C4.41364 0.205839 4.27066 0.175644 4.1217 0.175644L1.48678 0.175667Z" fill="#007FFF"/>
<path d="M9.58683 4.83664L8.05153 4.84604C7.97618 4.84604 7.91967 4.90255 7.91967 4.97791V5.28873C7.91967 5.36408 7.97618 5.43002 8.05153 5.43002L8.74854 5.40176L8.76738 5.42059L6.13948 8.04849C6.12064 8.06733 6.1018 8.09558 6.1018 8.12384C6.1018 8.16152 6.12064 8.18977 6.13948 8.20861L6.35612 8.42525C6.37496 8.44409 6.40321 8.46293 6.44089 8.46293C6.46915 8.46293 6.4974 8.44409 6.51624 8.42525L9.14414 5.79735L9.16297 5.81619L9.13472 6.5132C9.13472 6.58855 9.20065 6.65448 9.276 6.65448V6.64508H9.58683C9.66218 6.64508 9.7187 6.58857 9.7187 6.51321L9.72812 4.97792C9.72812 4.90257 9.66218 4.83664 9.58683 4.83664H9.58683ZM8.9746 7.54931H8.82389C8.73912 7.54931 8.67319 7.62466 8.67319 7.70001V9.15054C8.67319 9.18822 8.64493 9.20704 8.61667 9.20704H5.41422C5.37654 9.20704 5.35771 9.18821 5.35771 9.15054V5.94808C5.35771 5.91982 5.37654 5.89157 5.41422 5.89157H6.86474C6.94009 5.89157 7.01545 5.82564 7.01545 5.74087V5.59016C7.01545 5.51481 6.94009 5.43946 6.86474 5.43946H5.35771C5.10339 5.43946 4.90559 5.64668 4.90559 5.89157V9.20705C4.90559 9.46137 5.10339 9.65916 5.35771 9.65916H8.67319C8.91808 9.65916 9.1253 9.46137 9.1253 9.20705V7.70001C9.1253 7.62466 9.04995 7.54931 8.9746 7.54931V7.54931Z" fill="white"/>
</svg>
