<?xml version="1.0" encoding="UTF-8" standalone="no"?>
<svg
   width="14"
   height="14"
   viewBox="0 0 14 14"
   fill="none"
   version="1.1"
   id="svg6"
   sodipodi:docname="folder-encrypted.svg"
   inkscape:version="1.1 (c68e22c387, 2021-05-23)"
   xmlns:inkscape="http://www.inkscape.org/namespaces/inkscape"
   xmlns:sodipodi="http://sodipodi.sourceforge.net/DTD/sodipodi-0.dtd"
   xmlns="http://www.w3.org/2000/svg"
   xmlns:svg="http://www.w3.org/2000/svg">
  <defs
     id="defs10" />
  <sodipodi:namedview
     id="namedview8"
     pagecolor="#505050"
     bordercolor="#ffffff"
     borderopacity="1"
     inkscape:pageshadow="0"
     inkscape:pageopacity="0"
     inkscape:pagecheckerboard="1"
     showgrid="false"
     inkscape:zoom="31.636364"
     inkscape:cx="5.8160919"
     inkscape:cy="7.7284482"
     inkscape:window-width="1920"
     inkscape:window-height="1017"
     inkscape:window-x="-8"
     inkscape:window-y="-8"
     inkscape:window-maximized="1"
     inkscape:current-layer="svg6" />
  <g
     id="g14"
     transform="matrix(0.86874683,0,0,0.86874683,1,2.3200174)">
    <path
       d="M 1.07641,2.28882e-5 C 0.480568,2.28882e-5 -0.0206922,0.480338 6.57848e-4,1.07577 L 0.272438,9.6988 c 0.0212,0.5954 0.47996,1.0753 1.075722,1.0753 h 2.09188 8.58816 c 0.5958,0 1.002,-0.484 1.0753,-1.0753 L 13.813,3.97062 C 13.6157,3.74366 13.3047,3.60924 12.8669,3.57808 H 2.09201 c -0.1484,0 -0.29064,0.0601 -0.42384,0.16347 C 1.53501,3.84498 1.41113,3.99191 1.2995,4.1644 1.07625,4.50938 0.902068,5.96661 0.803068,6.38163 V 2.67821 C 0.806068,2.5515 0.886968,2.41563 0.994408,2.31152 1.10183,2.20741 1.2364,2.13513 1.34673,2.13513 H 12.9335 C 12.6196,1.61738 12.2598,1.25714 11.6272,1.25714 H 4.78113 l 0.006,-0.18136 C 4.79213,0.926923 4.76463,0.78515 4.71153,0.65641 4.65833,0.52767 4.57906,0.41177 4.4805,0.31456 4.382,0.21736 4.2641,0.138813 4.13368,0.0845032 4.00327,0.0302032 3.86029,0 3.71133,0 Z"
       fill="#007fff"
       id="path2" />
    <path
       d="M 8.56635,6.84932 H 8.34001 V 6.17028 c 0,-0.78277 -0.65075,-1.43352 -1.43352,-1.43352 -0.79221,0 -1.43352,0.65075 -1.43352,1.43352 V 6.84932 H 5.24662 c -0.25464,0 -0.45269,0.20748 -0.45269,0.45269 v 1.81076 c 0,0.25464 0.19805,0.45269 0.45269,0.45269 h 3.31973 c 0.24521,0 0.45269,-0.19805 0.45269,-0.45269 V 7.30201 c 0,-0.24521 -0.20748,-0.45269 -0.45269,-0.45269 z m -0.98083,0 H 6.22745 V 6.17028 c 0,-0.36781 0.30179,-0.67903 0.67904,-0.67903 0.36781,0 0.67903,0.31122 0.67903,0.67903 z"
       fill="#ffffff"
       id="path4" />
  </g>
</svg>
