<svg width="15" height="12" viewBox="0 0 15 12" fill="none" xmlns="http://www.w3.org/2000/svg">
<path d="M1.97048 0.640106C1.37464 0.640106 0.873381 1.12043 0.894731 1.71586L1.16651 10.3389C1.18771 10.9343 1.64647 11.4141 2.24223 11.4141H4.33411H12.9223C13.5181 11.4141 13.9243 10.9302 13.9975 10.3389L14.707 4.6107C14.5098 4.38375 14.1988 4.24932 13.761 4.21816H2.98608C2.83768 4.21816 2.69544 4.27826 2.56224 4.38163C2.42908 4.48506 2.3052 4.63199 2.19357 4.80448C1.97032 5.14946 1.79614 6.60669 1.69714 7.02171V3.3183C1.70014 3.19159 1.78104 3.05571 1.88848 2.9516C1.9959 2.8475 2.13047 2.77521 2.2408 2.77521H13.8276C13.5137 2.25746 13.1539 1.89722 12.5213 1.89722H5.6752L5.6812 1.71586C5.6862 1.567 5.6587 1.42523 5.6056 1.29649C5.5524 1.16775 5.47313 1.05185 5.37457 0.954643C5.27607 0.857443 5.15817 0.778889 5.02775 0.724579C4.89734 0.670279 4.75436 0.640083 4.6054 0.640083L1.97048 0.640106Z" fill="#007FFF"/>
<path d="M10.3625 6.92114L8.98735 6.72334L8.3657 5.47062C8.26209 5.25398 7.94185 5.24456 7.82882 5.47062L7.21658 6.72334L5.83199 6.92114C5.5871 6.95882 5.49291 7.26022 5.67187 7.43918L6.66087 8.40934L6.42539 9.77509C6.38771 10.02 6.65144 10.2084 6.86808 10.0953L8.10197 9.44543L9.32644 10.0953C9.54307 10.2084 9.80681 10.02 9.76913 9.77509L9.53366 8.40934L10.5226 7.43918C10.7016 7.26022 10.6074 6.95882 10.3625 6.92114ZM9.04387 8.24922L9.26992 9.54904L8.10197 8.9368L6.9246 9.54904L7.15065 8.24922L6.19933 7.32615L7.50857 7.13778L8.10197 5.95099L8.68595 7.13778L9.99518 7.32615L9.04387 8.24922Z" fill="white"/>
</svg>
