<?xml version="1.0" encoding="UTF-8" standalone="no"?>
<svg width="14" height="14" viewBox="0 0 14 14" fill="none" version="1.1" id="svg6" sodipodi:docname="folder-shared.svg" inkscape:version="1.1 (c68e22c387, 2021-05-23)"
   xmlns:inkscape="http://www.inkscape.org/namespaces/inkscape"
   xmlns:sodipodi="http://sodipodi.sourceforge.net/DTD/sodipodi-0.dtd"
   xmlns="http://www.w3.org/2000/svg"
   xmlns:svg="http://www.w3.org/2000/svg">
   <defs id="defs10" />
   <sodipodi:namedview id="namedview8" pagecolor="#505050" bordercolor="#ffffff" borderopacity="1" inkscape:pageshadow="0" inkscape:pageopacity="0" inkscape:pagecheckerboard="1" showgrid="false" inkscape:zoom="20.506097" inkscape:cx="1.5605115" inkscape:cy="6.9979188" inkscape:window-width="1920" inkscape:window-height="1017" inkscape:window-x="-8" inkscape:window-y="-8" inkscape:window-maximized="1" inkscape:current-layer="svg6" />
   <g id="g14" transform="matrix(0.86874665,0,0,0.86874665,0.65285134,1.5186825)">
      <path d="m 1.476,0.922432 c -0.595837,0 -1.097095,0.480318 -1.075745,1.075748 l 0.271778,8.62302 c 0.0212,0.5955 0.479957,1.0753 1.075717,1.0753 h 2.09189 8.58816 c 0.5958,0 1.002,-0.484 1.0753,-1.0753 L 14.2126,4.89303 C 14.0153,4.66608 13.7043,4.53165 13.2665,4.50049 H 2.49161 c -0.1484,0 -0.29064,0.0601 -0.42384,0.16347 C 1.93461,4.76739 1.81072,4.91432 1.69909,5.08681 1.47584,5.43179 1.30167,6.88902 1.20267,7.30404 V 3.60062 C 1.20567,3.47391 1.28657,3.33803 1.39401,3.23392 1.50143,3.12982 1.63599,3.05753 1.74632,3.05753 H 13.3331 C 13.0192,2.53978 12.6594,2.17954 12.0268,2.17954 H 5.18072 l 0.006,-0.18136 C 5.19172,1.84932 5.16422,1.70756 5.11112,1.57882 5.05792,1.45008 4.97865,1.33418 4.88009,1.23697 4.78159,1.13977 4.66369,1.06121 4.53327,1.0069 4.40286,0.952605 4.25989,0.922409 4.11093,0.922409 Z" fill="#007fff" id="path2" />
      <path d="m 8.2103,8.59748 c -0.24489,0 -0.46153,0.09419 -0.63107,0.25431 L 6.65617,8.26781 c 0.05651,-0.16954 0.05651,-0.36733 0,-0.53688 L 7.57923,7.14696 c 0.16954,0.1507 0.38618,0.24489 0.63107,0.24489 0.49921,0 0.90422,-0.40502 0.90422,-0.90422 0,-0.49921 -0.40501,-0.90423 -0.90422,-0.90423 -0.49921,0 -0.90422,0.40502 -0.90422,0.90423 0,0.09419 0.0094,0.18838 0.03768,0.27315 L 6.4207,7.34476 C 6.25115,7.18463 6.03452,7.09044 5.79905,7.09044 c -0.49921,0 -0.90423,0.40502 -0.90423,0.90423 0,0.4992 0.40502,0.90422 0.90423,0.90422 0.23547,0 0.4521,-0.0942 0.62165,-0.2449 L 7.34376,9.23797 C 7.3155,9.32274 7.30608,9.41693 7.30608,9.5017 c 0,0.4992 0.40501,0.9042 0.90422,0.9042 0.49921,0 0.90422,-0.405 0.90422,-0.9042 0,-0.4992 -0.40501,-0.90422 -0.90422,-0.90422 z m 0,-2.56197 c 0.24489,0 0.45211,0.20722 0.45211,0.45212 0,0.25431 -0.20722,0.45211 -0.45211,0.45211 -0.25431,0 -0.45211,-0.1978 -0.45211,-0.45211 0,-0.2449 0.1978,-0.45212 0.45211,-0.45212 z M 5.79904,8.44678 c -0.25431,0 -0.45211,-0.1978 -0.45211,-0.45211 0,-0.2449 0.1978,-0.45212 0.45211,-0.45212 0.24489,0 0.45211,0.20722 0.45211,0.45212 0,0.25431 -0.20722,0.45211 -0.45211,0.45211 z M 8.2103,9.95381 c -0.25431,0 -0.45211,-0.1978 -0.45211,-0.45211 0,-0.24489 0.1978,-0.45211 0.45211,-0.45211 0.24489,0 0.45211,0.20722 0.45211,0.45211 0,0.25431 -0.20722,0.45211 -0.45211,0.45211 z" fill="#ffffff" id="path4" />
   </g>
</svg>
