<svg width="14" height="11" viewBox="0 0 14 11" fill="none" xmlns="http://www.w3.org/2000/svg">
<path d="M1.07641 2.28882e-05C0.480568 2.28882e-05 -0.0206922 0.480338 0.000657848 1.07577L0.272438 9.6988C0.293638 10.2942 0.752398 10.7741 1.34816 10.7741H3.44004H12.0282C12.624 10.7741 13.0302 10.2901 13.1035 9.6988L13.813 3.97062C13.6157 3.74366 13.3047 3.60924 12.8669 3.57808H2.09201C1.94361 3.57808 1.80137 3.63818 1.66817 3.74155C1.53501 3.84498 1.41113 3.99191 1.2995 4.1644C1.07625 4.50938 0.902068 5.96661 0.803068 6.38163V2.67821C0.806068 2.5515 0.886968 2.41563 0.994408 2.31152C1.10183 2.20741 1.2364 2.13513 1.34673 2.13513H12.9335C12.6196 1.61738 12.2598 1.25714 11.6272 1.25714H4.78113L4.78713 1.07578C4.79213 0.926923 4.76463 0.78515 4.71153 0.65641C4.65833 0.52767 4.57906 0.41177 4.4805 0.31456C4.382 0.21736 4.2641 0.138813 4.13368 0.0845032C4.00327 0.0302032 3.86029 0 3.71133 0L1.07641 2.28882e-05Z" fill="#007FFF"/>
<path d="M8.56635 6.84932H8.34001V6.17028C8.34001 5.38751 7.68926 4.73676 6.90649 4.73676C6.11428 4.73676 5.47297 5.38751 5.47297 6.17028V6.84932H5.24662C4.99198 6.84932 4.79393 7.0568 4.79393 7.30201V9.11277C4.79393 9.36741 4.99198 9.56546 5.24662 9.56546H8.56635C8.81156 9.56546 9.01904 9.36741 9.01904 9.11277V7.30201C9.01904 7.0568 8.81156 6.84932 8.56635 6.84932ZM7.58552 6.84932H6.22745V6.17028C6.22745 5.80247 6.52924 5.49125 6.90649 5.49125C7.2743 5.49125 7.58552 5.80247 7.58552 6.17028V6.84932Z" fill="white"/>
</svg>
