<?xml version="1.0" encoding="UTF-8" standalone="no"?>
<svg width="14" height="14" viewBox="0 0 14 14" fill="none" version="1.1" id="svg4" sodipodi:docname="comment.svg" inkscape:version="1.1 (c68e22c387, 2021-05-23)"
    xmlns:inkscape="http://www.inkscape.org/namespaces/inkscape"
    xmlns:sodipodi="http://sodipodi.sourceforge.net/DTD/sodipodi-0.dtd"
    xmlns="http://www.w3.org/2000/svg"
    xmlns:svg="http://www.w3.org/2000/svg">
    <defs id="defs8" />
    <sodipodi:namedview id="namedview6" pagecolor="#505050" bordercolor="#ffffff" borderopacity="1" inkscape:pageshadow="0" inkscape:pageopacity="0" inkscape:pagecheckerboard="1" showgrid="false" inkscape:zoom="46.272368" inkscape:cx="4.2574004" inkscape:cy="7.0344358" inkscape:window-width="1920" inkscape:window-height="1017" inkscape:window-x="-8" inkscape:window-y="-8" inkscape:window-maximized="1" inkscape:current-layer="svg4" />
    <path d="M 12.083937,9.7273653 C 12.646064,9.1652375 13,8.4573756 13,7.6662269 13,6.0006527 11.396914,4.6265571 9.3149257,4.397536 8.6695213,3.1899968 7.1288621,2.3363912 5.338373,2.3363912 c -2.3942654,0 -4.3304978,1.4990171 -4.3304978,3.3311446 0,0.7703296 0.3331158,1.4782017 0.9160627,2.0611486 C 1.5908311,8.3532798 1.1327892,8.85295 1.1327892,8.8737691 1.0078752,8.9986942 0.96623681,9.206886 1.0286963,9.3942585 c 0.083277,0.1665634 0.2498372,0.2914786 0.4580289,0.2914786 1.1034464,0 1.998691,-0.4372128 2.6024671,-0.811968 0.1873726,0.041599 0.3955643,0.062438 0.5829469,0.1040858 0.6662338,1.1867231 2.1860636,2.0195201 3.9973821,2.0195201 0.4163935,0 0.832787,-0.04159 1.2283614,-0.124914 0.6038163,0.374754 1.4990313,0.791148 2.6232873,0.791148 0.187342,0 0.353935,-0.104095 0.437233,-0.291478 0.06245,-0.166554 0.04159,-0.374766 -0.104147,-0.520499 0,0 -0.457981,-0.499671 -0.770319,-1.1242667 z M 3.9018097,7.7911519 3.5478737,8.0201629 C 3.2563952,8.2283646 2.9441076,8.3740989 2.6526291,8.4781948 2.6942675,8.3740989 2.756725,8.2700131 2.8191825,8.1659071 L 3.1314802,7.5204826 2.6109908,7.0000033 C 2.3403314,6.7293439 2.0072146,6.2713121 2.0072146,5.6675358 c 0,-1.2491806 1.5198399,-2.3317977 3.3311584,-2.3317977 1.7904891,0 3.3311483,1.0826171 3.3311483,2.3317977 0,1.2700099 -1.5406592,2.331818 -3.3311483,2.331818 -0.3539361,0 -0.6870529,-0.02087 -1.0201697,-0.1041161 z m 7.4742543,1.2075423 -0.52053,0.5204894 0.333188,0.6454044 c 0.04159,0.104107 0.104045,0.208192 0.166493,0.312288 -0.312237,-0.104096 -0.603726,-0.270649 -0.895214,-0.458022 L 10.085255,9.7898329 9.6896809,9.8939388 C 9.356564,9.9772373 9.0026381,9.9980351 8.6695213,9.9980351 7.5452557,9.9980351 6.525086,9.5816311 5.9213198,8.9778549 8.0449259,8.748844 9.6688617,7.3539392 9.6688617,5.6675358 c 0,-0.062447 -0.020819,-0.124915 -0.020819,-0.2081917 1.3324873,0.3122977 2.3525973,1.1867232 2.3525973,2.2068828 0,0.6037761 -0.353936,1.061808 -0.624576,1.3324673 z" fill="#000000" id="path2" style="stroke-width:1.00722" />
</svg>
