<?xml version="1.0" encoding="UTF-8" standalone="no"?>
<svg width="14" height="14" viewBox="0 0 14 14" fill="none" version="1.1" id="svg4" sodipodi:docname="toggle-filelist.svg" inkscape:version="1.1 (c68e22c387, 2021-05-23)"
    xmlns:inkscape="http://www.inkscape.org/namespaces/inkscape"
    xmlns:sodipodi="http://sodipodi.sourceforge.net/DTD/sodipodi-0.dtd"
    xmlns="http://www.w3.org/2000/svg"
    xmlns:svg="http://www.w3.org/2000/svg">
    <defs id="defs8" />
    <sodipodi:namedview id="namedview6" pagecolor="#505050" bordercolor="#ffffff" borderopacity="1" inkscape:pageshadow="0" inkscape:pageopacity="0" inkscape:pagecheckerboard="1" showgrid="false" inkscape:zoom="26.769231" inkscape:cx="4.9310344" inkscape:cy="6.3692528" inkscape:window-width="1920" inkscape:window-height="1017" inkscape:window-x="-8" inkscape:window-y="-8" inkscape:window-maximized="1" inkscape:current-layer="svg4" />
    <path d="M 2.8750126,2.125001 H 1.3749408 c -0.2108974,0 -0.3749407,0.1876601 -0.3749407,0.3750958 v 1.4999156 c 0,0.2110223 0.1640433,0.3750974 0.3749407,0.3750974 h 1.5000718 c 0.1875647,0 0.3749452,-0.1640751 0.3749452,-0.3750974 V 2.5000968 c 0,-0.1874357 -0.1873805,-0.3750958 -0.3749452,-0.3750958 z m 0,3.750026 H 1.3749408 c -0.2108974,0 -0.3749407,0.1876608 -0.3749407,0.3750974 v 1.4999171 c 0,0.2110224 0.1640433,0.3749372 0.3749407,0.3749372 h 1.5000718 c 0.1875647,0 0.3749452,-0.1639148 0.3749452,-0.3749372 V 6.2501244 c 0,-0.1874366 -0.1873805,-0.3750974 -0.3749452,-0.3750974 z m 0,3.7500293 H 1.3749408 c -0.2108974,0 -0.3749407,0.1874688 -0.3749407,0.3749368 v 1.5000699 c 0,0.211022 0.1640433,0.374936 0.3749407,0.374936 h 1.5000718 c 0.1875647,0 0.3749452,-0.163914 0.3749452,-0.374936 V 9.9999931 c 0,-0.187468 -0.1873805,-0.3749368 -0.3749452,-0.3749368 z M 12.624903,6.437593 H 5.1249644 c -0.2108942,0 -0.3749372,0.1875327 -0.3749372,0.3750975 v 0.3749372 c 0,0.2109022 0.164043,0.3749452 0.3749372,0.3749452 H 12.624903 C 12.812291,7.5625729 13,7.3985299 13,7.1876277 V 6.8126905 C 13,6.6251257 12.812291,6.437593 12.624903,6.437593 Z m 0,3.750029 H 5.1249644 c -0.2108942,0 -0.3749372,0.187389 -0.3749372,0.374937 v 0.375098 c 0,0.210862 0.164043,0.374937 0.3749372,0.374937 H 12.624903 C 12.812291,11.312594 13,11.148519 13,10.937657 V 10.56256 c 0,-0.187549 -0.187709,-0.374938 -0.375097,-0.374938 z m 0,-7.5000581 H 5.1249644 c -0.2108942,0 -0.3749372,0.1875326 -0.3749372,0.3750974 v 0.3749452 c 0,0.2108942 0.164043,0.3750895 0.3749372,0.3750895 H 12.624903 C 12.812291,3.812696 13,3.6485007 13,3.4376065 V 3.0626613 C 13,2.8750965 12.812291,2.6875639 12.624903,2.6875639 Z" fill="#808080" id="path2" style="stroke-width:0.801144" />
</svg>
