<svg width="73" height="72" viewBox="0 0 73 72" fill="none" xmlns="http://www.w3.org/2000/svg">
<g clip-path="url(#clip0_334_1716)">
<path d="M57.134 0H15.534C7.13926 0 0.333984 6.80527 0.333984 15.2V56.8C0.333984 65.1947 7.13926 72 15.534 72H57.134C65.5287 72 72.334 65.1947 72.334 56.8V15.2C72.334 6.80527 65.5287 0 57.134 0Z" fill="url(#paint0_linear_334_1716)"/>
<path d="M0.337891 15.0002H72.3379C72.2853 11.0037 70.6607 7.18854 67.8158 4.3811C64.9709 1.57366 61.1348 -0.000101807 57.1379 0.000244198H15.5379C11.541 -0.000101807 7.70483 1.57366 4.85996 4.3811C2.01509 7.18854 0.390481 11.0037 0.337891 15.0002Z" fill="url(#paint1_linear_334_1716)"/>
<path d="M72.334 29.248H0.333984" stroke="#949DA1" stroke-miterlimit="10"/>
<path d="M72.334 43.5H0.333984" stroke="#949DA1" stroke-miterlimit="10"/>
<path d="M72.334 57.748H0.333984" stroke="#949DA1" stroke-miterlimit="10"/>
</g>
<defs>
<linearGradient id="paint0_linear_334_1716" x1="36.334" y1="13.224" x2="36.334" y2="85.312" gradientUnits="userSpaceOnUse">
<stop stop-color="#FFFFDD"/>
<stop offset="1" stop-color="#E5EED5"/>
</linearGradient>
<linearGradient id="paint1_linear_334_1716" x1="0.337891" y1="7.50024" x2="72.3259" y2="7.50024" gradientUnits="userSpaceOnUse">
<stop stop-color="#FF7300"/>
<stop offset="0.37" stop-color="#FB6C09"/>
<stop offset="0.97" stop-color="#F15B23"/>
<stop offset="1" stop-color="#F15A24"/>
</linearGradient>
<clipPath id="clip0_334_1716">
<rect x="0.333984" width="72" height="72" rx="15.12" fill="white"/>
</clipPath>
</defs>
</svg>
