<svg width="24" height="24" viewBox="0 0 24 24" fill="none" xmlns="http://www.w3.org/2000/svg">
<path d="M21.7314 3.83788L20.173 2.27919C19.6806 1.7869 18.9833 1.5 18.3269 1.5C17.671 1.5 16.9738 1.7869 16.4815 2.27919L13.4051 5.35557L12.0104 6.7499L2.00275 16.7576L1.51063 21.4337C1.42863 22.008 1.87983 22.5 2.45386 22.5C2.49353 22.5 2.53591 22.5 2.5756 22.5L7.25137 22.0079L17.2594 11.9998L18.6541 10.6055L21.7301 7.52909C22.7553 6.50378 22.7553 4.8632 21.7301 3.83788H21.7314ZM6.35043 20.121L3.60245 20.4081L3.88952 17.6601L13.3641 8.14423L14.6357 6.87293L17.1377 9.37485L15.866 10.6462L6.35043 20.121ZM20.3371 6.13476L18.5322 7.98051L16.03 5.47859L17.8762 3.67385C18.0401 3.50984 18.245 3.4675 18.3269 3.4675C18.4089 3.4675 18.6143 3.50719 18.7784 3.67385L20.3371 5.23254C20.5831 5.47856 20.5831 5.88849 20.3371 6.13476Z" fill="#808080"/>
</svg>
