<?xml version="1.0" encoding="UTF-8" standalone="no"?>
<svg width="14" height="14" viewBox="0 0 14 14" fill="none" version="1.1" id="svg4" sodipodi:docname="unshare.svg" inkscape:version="1.1 (c68e22c387, 2021-05-23)"
   xmlns:inkscape="http://www.inkscape.org/namespaces/inkscape"
   xmlns:sodipodi="http://sodipodi.sourceforge.net/DTD/sodipodi-0.dtd"
   xmlns="http://www.w3.org/2000/svg"
   xmlns:svg="http://www.w3.org/2000/svg">
   <defs id="defs8" />
   <sodipodi:namedview id="namedview6" pagecolor="#505050" bordercolor="#ffffff" borderopacity="1" inkscape:pageshadow="0" inkscape:pageopacity="0" inkscape:pagecheckerboard="1" showgrid="false" inkscape:zoom="31.636364" inkscape:cx="12.011494" inkscape:cy="10.984195" inkscape:window-width="1920" inkscape:window-height="1017" inkscape:window-x="-8" inkscape:window-y="-8" inkscape:window-maximized="1" inkscape:current-layer="svg4" width="14px" />
   <path d="m 12.574274,1.7184496 c -0.06005,-0.0043 -0.1204,0.00327 -0.177501,0.022282 -0.05715,0.019016 -0.10995,0.049103 -0.155449,0.088544 L 8.1516158,5.389938 V 5.1332375 3.0370034 L 9.272218,4.1575805 9.940469,3.5755044 8.776817,2.4118271 C 8.2084659,1.8245409 7.2422639,2.2413267 7.2422639,3.0559484 v 1.515578 c -2.6143601,0.075775 -5.7591907,0.5872961 -5.7591907,3.8268129 0,0.7535015 0.2152799,1.4387527 0.5906006,2.0266547 L 2.7684751,9.820142 C 2.5426497,9.431741 2.3924194,8.9619404 2.3924194,8.3983393 c 0,-2.5756954 2.7388855,-2.8869961 5.3532956,-2.9117861 0.1001002,-9.514e-4 0.2008504,-0.00389 0.3007505,-0.00521 L 1.157224,11.479246 c -0.091625,0.07985 -0.1477894,0.192799 -0.1561386,0.313999 -0.008349,0.121251 0.031802,0.240851 0.1116185,0.332502 0.079817,0.09145 0.1926724,0.147549 0.3137941,0.1559 0.1211198,0.0083 0.24061,-0.0317 0.3322202,-0.111401 L 12.842825,2.5202875 c 0.0916,-0.079835 0.14775,-0.1927903 0.1561,-0.3140261 0.0083,-0.1212378 -0.0318,-0.240828 -0.111601,-0.3324652 -0.07975,-0.091103 -0.1923,-0.1469523 -0.31305,-0.1553466 z M 10.864021,4.4990614 10.195769,5.0811376 11.485872,6.3712752 8.1516158,9.7055419 V 7.299587 c -0.1752004,0.00105 -0.3461507,0.00485 -0.5148011,0.0099 L 6.5020125,8.296989 c 0.2256505,-0.02845 0.467151,-0.0524 0.7402514,-0.06915 v 1.4777029 c 0,0.8146021 0.966202,1.2314021 1.5345531,0.6441011 l 3.334256,-3.3342565 c 0.359951,-0.3409957 0.359951,-0.9282819 0,-1.2692875 z M 4.5317536,10.012943 3.7635421,10.681694 c 0.021105,0.0773 0.04312,0.155551 0.068675,0.2363 -0.061435,-0.04095 -0.1236001,-0.0879 -0.1856552,-0.1345 l -0.7037964,0.612851 c 0.1203052,0.0985 0.2460254,0.192251 0.3779457,0.27945 0.7009514,0.473601 1.6292482,-0.18945 1.3640227,-1.023001 -0.07107,-0.231001 -0.1224002,-0.442801 -0.1529803,-0.639851 z" fill="#808080" id="path2" style="stroke-width:0.500001" />
</svg>
