<?xml version="1.0" encoding="UTF-8" standalone="no"?>
<svg width="14.56652" height="14.56652" viewBox="0 0 14.56652 14.56652" fill="none" version="1.1" id="svg4" sodipodi:docname="app.svg" inkscape:version="1.1 (c68e22c387, 2021-05-23)"
   xmlns:inkscape="http://www.inkscape.org/namespaces/inkscape"
   xmlns:sodipodi="http://sodipodi.sourceforge.net/DTD/sodipodi-0.dtd"
   xmlns="http://www.w3.org/2000/svg"
   xmlns:svg="http://www.w3.org/2000/svg">
   <defs id="defs8" />
   <sodipodi:namedview id="namedview6" pagecolor="#505050" bordercolor="#ffffff" borderopacity="1" inkscape:pageshadow="0" inkscape:pageopacity="0" inkscape:pagecheckerboard="1" showgrid="false" inkscape:zoom="29" inkscape:cx="5.8275862" inkscape:cy="5.4310345" inkscape:window-width="1920" inkscape:window-height="1017" inkscape:window-x="-8" inkscape:window-y="-8" inkscape:window-maximized="1" inkscape:current-layer="svg4" />
   <path d="M 9.6270681,9.6270687 H 9.5049817 c -0.2929761,0 -0.5859522,0.073231 -0.8789283,0.1708897 C 8.210991,9.9444725 7.7471251,10.017704 7.2832593,10.017704 6.794971,10.017704 6.3310843,9.9444725 5.9160375,9.7979584 5.6230614,9.7002997 5.3300853,9.6514964 5.0371092,9.6514964 h -0.097659 c -1.7334394,0 -3.1250785,1.3915976 -3.1250785,3.1006516 0,0.439438 0.3418039,0.781269 0.7812696,0.781269 h 9.3752367 c 0.415062,0 0.78127,-0.341831 0.78127,-0.781269 0,-1.709054 -1.416078,-3.1250793 -3.1250799,-3.1250793 z M 3.0106885,12.361513 c 0.1953175,-0.878929 0.9765923,-1.538112 1.928762,-1.56254 h 0.097659 c 0.1220759,0 0.2929761,0.04885 0.4882935,0.122087 0.5615401,0.17089 1.1474924,0.268548 1.7334289,0.268548 0.6103799,0 1.1963321,-0.09766 1.7578566,-0.268548 0.1953171,-0.07323 0.3662068,-0.122087 0.4882932,-0.122087 h 0.1220864 c 0.9277319,0.02443 1.7090019,0.683611 1.9043199,1.56254 z M 3.1571818,6.5019904 c 0.3173882,0 0.5615349,-0.2441206 0.5615349,-0.5615349 V 5.720726 c 0,-1.9531791 1.5869565,-3.5401253 3.5645426,-3.5401253 1.953174,0 3.5401397,1.5869462 3.5401397,3.5401253 v 0.317383 c 0,0.9277472 -0.756841,1.6846413 -1.6846244,1.6846413 H 8.5772501 C 8.4795914,7.2832601 8.0889566,6.9658562 7.6494664,6.9658562 H 6.8926245 c -0.5371229,0 -0.9521697,0.4150626 -0.9521697,0.9522115 0,0.512669 0.4150468,0.9521592 0.9521697,0.9521592 0,0 0,0 0,-0.024428 h 2.2461501 c 1.5625394,0 2.8076754,-1.2451353 2.8321034,-2.8076902 V 5.7207256 c 0,-2.5635435 -2.1240648,-4.6876228 -4.6876187,-4.6876228 -2.5879503,0 -4.6876177,2.1240793 -4.6876177,4.6876228 v 0.2197295 c 0,0.3174143 0.2441468,0.5615349 0.5615402,0.5615353 z M 7.2832593,4.1581869 C 8.1377599,4.1826039 8.8213708,4.8662098 8.8457985,5.720726 8.8213705,6.013697 8.7481395,6.2822454 8.6260534,6.5019904 8.7969431,6.6240768 8.9434572,6.7705388 9.0655436,6.9414806 h 0.073231 c 0.3174038,0 0.5859522,-0.1709418 0.7324663,-0.4150625 0.073231,-0.2441727 0.1464621,-0.5127211 0.1464621,-0.8056921 0,-1.4892977 -1.2451355,-2.7344383 -2.7344437,-2.7344383 -1.5137098,0 -2.7344437,1.2451406 -2.7344437,2.7344383 0,0.7080334 0.2441468,1.3184133 0.683611,1.8067069 C 5.3300849,7.1123703 5.5742316,6.7461632 5.9160371,6.5019904 5.7939611,6.2822454 5.7207197,6.013697 5.7207197,5.720726 c 0,-0.8545162 0.6836161,-1.5381219 1.5625396,-1.5625391 z" fill="#000000" id="path2" style="stroke-width:0.520846" />
</svg>
