<svg width="24" height="24" viewBox="0 0 24 24" fill="none" xmlns="http://www.w3.org/2000/svg">
<path d="M8.17 6L10.17 8H19V9H21V8C21 6.9 20.1 6 19 6H11L9 4H3C1.9 4 1.01 4.9 1.01 6L1 18C1 19.1 1.9 20 3 20H12V18H3V6H8.17Z" fill="#0086FF"/>
<path fill-rule="evenodd" clip-rule="evenodd" d="M22 16V14.5C22 12.567 20.4331 11 18.5 11C16.5669 11 15 12.567 15 14.5V16H15.3369C15.8987 17.1825 17.1038 18 18.5 18C19.8962 18 21.1013 17.1825 21.6631 16H22ZM18.5 13C19.3284 13 20 13.6716 20 14.5V17H17V14.5C17 13.6716 17.6716 13 18.5 13Z" fill="#0086FF"/>
<rect x="14" y="16" width="9" height="6" rx="1" fill="#0086FF"/>
</svg>
