<svg width="24" height="24" viewBox="0 0 24 24" fill="none" xmlns="http://www.w3.org/2000/svg">
<path d="M8.17 6L10.17 8H19V9H21V8C21 6.9 20.1 6 19 6H11L9 4H3C1.9 4 1.01 4.9 1.01 6L1 18C1 19.1 1.9 20 3 20H10V18H3V6H8.17Z" fill="#0086FF"/>
<path fill-rule="evenodd" clip-rule="evenodd" d="M13.375 22H21.625C22.0046 22 22.3286 21.8657 22.5972 21.5972C22.8657 21.3286 23 21.0046 23 20.625V12.375C23 11.9954 22.8657 11.6714 22.5972 11.4028C22.3286 11.1343 22.0046 11 21.625 11H18.5312C18.6243 11 18.7049 11.034 18.7729 11.1021C18.841 11.1701 18.875 11.2507 18.875 11.3438C18.875 11.4368 18.841 11.5174 18.7729 11.5854C18.7049 11.6535 18.6243 11.6875 18.5312 11.6875H18.1875V12.375H18.5312C18.6243 12.375 18.7049 12.409 18.7729 12.4771C18.841 12.5451 18.875 12.6257 18.875 12.7188C18.875 12.8118 18.841 12.8924 18.7729 12.9604C18.7049 13.0285 18.6243 13.0625 18.5312 13.0625H18.1875V13.75H18.5312C18.6243 13.75 18.7049 13.784 18.7729 13.8521C18.841 13.9201 18.875 14.0007 18.875 14.0938C18.875 14.1868 18.841 14.2674 18.7729 14.3354C18.7049 14.4035 18.6243 14.4375 18.5312 14.4375H18.1875V15.125H18.5312C18.6243 15.125 18.7049 15.159 18.7729 15.2271C18.841 15.2951 18.875 15.3757 18.875 15.4688C18.875 15.5618 18.841 15.6424 18.7729 15.7104C18.7049 15.7785 18.6243 15.8125 18.5312 15.8125H18.1875V16.5H18.5312C18.6243 16.5 18.7049 16.534 18.7729 16.6021C18.841 16.6701 18.875 16.7507 18.875 16.8438C18.875 16.9368 18.841 17.0174 18.7729 17.0854C18.7168 17.1416 18.652 17.1746 18.5788 17.1844C18.8337 17.3656 19 17.6634 19 18V20C19 20.5523 18.5523 21 18 21H17C16.4477 21 16 20.5523 16 20V18C16 17.5118 16.3498 17.1053 16.8125 17.0175V16.5H16.4688C16.3757 16.5 16.2951 16.466 16.2271 16.3979C16.159 16.3299 16.125 16.2493 16.125 16.1562C16.125 16.0632 16.159 15.9826 16.2271 15.9146C16.2951 15.8465 16.3757 15.8125 16.4688 15.8125H16.8125V15.125H16.4688C16.3757 15.125 16.2951 15.091 16.2271 15.0229C16.159 14.9549 16.125 14.8743 16.125 14.7812C16.125 14.6882 16.159 14.6076 16.2271 14.5396C16.2951 14.4715 16.3757 14.4375 16.4688 14.4375H16.8125V13.75H16.4688C16.3757 13.75 16.2951 13.716 16.2271 13.6479C16.159 13.5799 16.125 13.4993 16.125 13.4062C16.125 13.3132 16.159 13.2326 16.2271 13.1646C16.2951 13.0965 16.3757 13.0625 16.4688 13.0625H16.8125V12.375H16.4688C16.3757 12.375 16.2951 12.341 16.2271 12.2729C16.159 12.2049 16.125 12.1243 16.125 12.0312C16.125 11.9382 16.159 11.8576 16.2271 11.7896C16.2951 11.7215 16.3757 11.6875 16.4688 11.6875H16.8125V11H13.375C12.9954 11 12.6714 11.1343 12.4028 11.4028C12.1343 11.6714 12 11.9954 12 12.375V20.625C12 21.0046 12.1343 21.3286 12.4028 21.5972C12.6714 21.8657 12.9954 22 13.375 22Z" fill="#0086FF"/>
<circle cx="17.5" cy="19.5" r="0.5" fill="#0086FF"/>
</svg>
