<svg width="14" height="11" viewBox="0 0 14 11" fill="none" xmlns="http://www.w3.org/2000/svg">
<path d="M11.9473 0.838623H1.73696C1.07434 0.838623 0.558838 1.37866 0.558838 2.01675V9.08532C0.558838 9.74809 1.07434 10.2634 1.73696 10.2634H11.9473C12.5854 10.2634 13.1252 9.74809 13.1252 9.08532V2.01675C13.1252 1.37866 12.5854 0.838623 11.9473 0.838623ZM11.9473 2.01675V3.0229C11.3828 3.48924 10.4991 4.17668 8.63375 5.64929C8.21648 5.96841 7.40659 6.7536 6.84212 6.72906C6.2531 6.75281 5.44301 5.96841 5.02575 5.64929C3.16041 4.17668 2.27691 3.48924 1.73696 3.0229V2.01675H11.9473ZM1.73696 9.08532V4.54478C2.27691 4.98643 3.08682 5.62461 4.28954 6.58182C4.82948 6.99909 5.78677 7.93192 6.84212 7.90738C7.87293 7.93113 8.80548 6.99909 9.36996 6.58182C10.5727 5.62461 11.3828 4.98643 11.9473 4.54478V9.08532H1.73696Z" fill="#000000"/>
</svg>
