<svg width="12" height="12" viewBox="0 0 12 12" fill="none" xmlns="http://www.w3.org/2000/svg">
<path d="M11.388 5.41885H7.17534V1.20604C7.17534 0.972082 6.94145 0.738037 6.70734 0.738037H5.77113C5.50789 0.738037 5.30313 0.972082 5.30313 1.20604V5.41885H1.09032C0.827075 5.41885 0.622314 5.6529 0.622314 5.88686V6.82306C0.622314 7.08646 0.827075 7.29106 1.09032 7.29106H5.30313V11.5039C5.30313 11.7671 5.50789 11.9719 5.77113 11.9719H6.70734C6.94145 11.9719 7.17534 11.7671 7.17534 11.5039V7.29106H11.388C11.6221 7.29106 11.8562 7.08646 11.8562 6.82306V5.88686C11.8562 5.6529 11.6221 5.41885 11.388 5.41885Z" fill="#808080"/>
</svg>
