<svg width="9" height="9" viewBox="0 0 9 9" fill="none" xmlns="http://www.w3.org/2000/svg">
<path d="M5.59457 4.34317L8.07411 1.88663C8.21182 1.74891 8.21182 1.49624 8.07411 1.35853L7.50021 0.784439C7.3625 0.646723 7.10999 0.646723 6.97211 0.784439L4.51557 3.26397L2.03585 0.784439C1.89813 0.646723 1.64566 0.646723 1.50794 0.784439L0.933854 1.35853C0.796137 1.49624 0.796137 1.74875 0.933854 1.88663L3.41358 4.34317L0.933854 6.82289C0.796137 6.96061 0.796137 7.21308 0.933854 7.3508L1.50794 7.92489C1.64566 8.0626 1.89813 8.0626 2.03585 7.92489L4.51557 5.44516L6.97211 7.92489C7.10983 8.0626 7.3625 8.0626 7.50021 7.92489L8.07411 7.3508C8.21182 7.21308 8.21182 6.96061 8.07411 6.82289L5.59457 4.34317Z" fill="black"/>
</svg>
