<svg width="13" height="10" viewBox="0 0 13 10" fill="none" xmlns="http://www.w3.org/2000/svg">
<path d="M11.8882 7.42387C12.4463 6.86577 12.7977 6.16298 12.7977 5.3775C12.7977 3.72386 11.2061 2.35961 9.13903 2.13223C8.49825 0.933343 6.96863 0.0858536 5.19097 0.0858536C2.81386 0.0858536 0.891501 1.57413 0.891501 3.39313C0.891501 4.15794 1.22223 4.86074 1.801 5.43951C1.47028 6.05963 1.01552 6.55572 1.01552 6.57639C0.891501 6.70042 0.850161 6.90712 0.912173 7.09315C0.994853 7.25852 1.16022 7.38254 1.36692 7.38254C2.46246 7.38254 3.35129 6.94846 3.95074 6.57639C4.13677 6.61769 4.34347 6.63838 4.52951 6.67973C5.19097 7.85795 6.69991 8.68478 8.49825 8.68478C8.91166 8.68478 9.32507 8.64348 9.71781 8.56076C10.3173 8.93283 11.2061 9.34624 12.3223 9.34624C12.5083 9.34624 12.6737 9.24289 12.7564 9.05685C12.8184 8.89149 12.7977 8.68477 12.653 8.54008C12.653 8.54008 12.1983 8.04399 11.8882 7.42387ZM3.7647 5.50153L3.4133 5.7289C3.12391 5.93561 2.81386 6.0803 2.52447 6.18365C2.56581 6.0803 2.62782 5.97696 2.68983 5.8736L2.99989 5.2328L2.48313 4.71605C2.21441 4.44733 1.88368 3.99258 1.88368 3.39313C1.88368 2.1529 3.39263 1.07804 5.19097 1.07804C6.96863 1.07804 8.49825 2.1529 8.49825 3.39313C8.49825 4.65404 6.96863 5.70824 5.19097 5.70824C4.83957 5.70824 4.50884 5.68752 4.17811 5.60487L3.7647 5.50153ZM11.1854 6.70042L10.6686 7.21718L10.9994 7.85796C11.0407 7.96132 11.1027 8.06466 11.1647 8.16801C10.8547 8.06466 10.5653 7.8993 10.2759 7.71327L9.90384 7.48589L9.5111 7.58925C9.18037 7.67195 8.82898 7.6926 8.49825 7.6926C7.38204 7.6926 6.36918 7.27918 5.76974 6.67973C7.87813 6.45236 9.49043 5.06745 9.49043 3.39313C9.49043 3.33113 9.46976 3.26911 9.46976 3.18643C10.7927 3.49649 11.8055 4.36465 11.8055 5.3775C11.8055 5.97695 11.4541 6.4317 11.1854 6.70042V6.70042Z" fill="#808080"/>
</svg>
