<svg width="14" height="16" viewBox="0 0 14 16" fill="none" xmlns="http://www.w3.org/2000/svg">
<path d="M13.192 2.93831H10.7639L9.76912 1.29991C9.535 0.890399 9.06694 0.5979 8.56974 0.5979H5.61505C5.11769 0.5979 4.64959 0.890399 4.41547 1.29991L3.42092 2.93831H1.02196C0.758716 2.93831 0.553955 3.1722 0.553955 3.40631V3.87432C0.553955 4.13756 0.758716 4.34251 1.02196 4.34251H1.49016L2.10444 14.2597C2.13293 15.0203 2.74804 15.5764 3.50864 15.5764H10.6761C11.4367 15.5764 12.0511 15.0203 12.0803 14.2597L12.724 4.34251H13.192C13.426 4.34251 13.66 4.13756 13.66 3.87432V3.40631C13.66 3.1722 13.426 2.93831 13.192 2.93831V2.93831ZM5.61505 2.00211H8.56974L9.12566 2.93831H5.05912L5.61505 2.00211ZM10.6761 14.1722H3.50864L2.89436 4.34251H11.2904L10.6761 14.1722Z" fill="#808080"/>
</svg>
