<svg width="14" height="4" viewBox="0 0 14 4" fill="none" xmlns="http://www.w3.org/2000/svg">
<path d="M8.84046 2.08715C8.84046 1.29157 8.16731 0.618408 7.37172 0.618408C6.54574 0.618408 5.90336 1.29157 5.90336 2.08715C5.90336 2.91313 6.54574 3.55551 7.37172 3.55551C8.16731 3.55551 8.84046 2.91313 8.84046 2.08715ZM12.5118 0.618408C11.6857 0.618408 11.0433 1.29157 11.0433 2.08715C11.0433 2.91313 11.6857 3.55551 12.5118 3.55551C13.3073 3.55551 13.9802 2.91313 13.9802 2.08715C13.9802 1.29157 13.3073 0.618408 12.5118 0.618408ZM2.23198 0.618408C1.406 0.618408 0.763428 1.29157 0.763428 2.08715C0.763428 2.91313 1.406 3.55551 2.23198 3.55551C3.02741 3.55551 3.70053 2.91313 3.70053 2.08715C3.70053 1.29157 3.02741 0.618408 2.23198 0.618408Z" fill="#000000"/>
</svg>
