<svg width="14" height="15" viewBox="0 0 14 15" fill="none" xmlns="http://www.w3.org/2000/svg">
<path d="M13.4316 12.9967L10.3329 9.89804C10.2553 9.84738 10.1793 9.79505 10.1024 9.79505H9.76945C10.5635 8.87314 11.0755 7.6438 11.0755 6.31207C11.0755 3.39264 8.66829 0.985474 5.74871 0.985474C2.80364 0.985474 0.422119 3.39264 0.422119 6.31207C0.422119 9.25713 2.80364 11.6389 5.74871 11.6389C7.08044 11.6389 8.28414 11.1524 9.23169 10.3585V10.6914C9.23169 10.769 9.25717 10.8448 9.30783 10.9218L12.4065 14.0206C12.5347 14.1488 12.7394 14.1488 12.8418 14.0206L13.4308 13.4316C13.559 13.3288 13.559 13.1244 13.4308 12.9963L13.4316 12.9967ZM5.74871 10.4103C3.46959 10.4103 1.65126 8.59193 1.65126 6.31265C1.65126 4.05917 3.46959 2.21519 5.74871 2.21519C8.00235 2.21519 9.84636 4.05917 9.84636 6.31265C9.84636 8.59193 8.00235 10.4103 5.74871 10.4103Z" fill="#808080"/>
</svg>
