<?xml version="1.0" encoding="UTF-8" standalone="no"?>
<svg width="14" height="14" viewBox="0 0 14 14" fill="none" version="1.1" id="svg4" sodipodi:docname="settings.svg" inkscape:version="1.1 (c68e22c387, 2021-05-23)"
    xmlns:inkscape="http://www.inkscape.org/namespaces/inkscape"
    xmlns:sodipodi="http://sodipodi.sourceforge.net/DTD/sodipodi-0.dtd"
    xmlns="http://www.w3.org/2000/svg"
    xmlns:svg="http://www.w3.org/2000/svg">
    <defs id="defs8" />
    <sodipodi:namedview id="namedview6" pagecolor="#505050" bordercolor="#ffffff" borderopacity="1" inkscape:pageshadow="0" inkscape:pageopacity="0" inkscape:pagecheckerboard="1" showgrid="false" inkscape:zoom="32.809755" inkscape:cx="6.339578" inkscape:cy="8.8235953" inkscape:window-width="1920" inkscape:window-height="1017" inkscape:window-x="-8" inkscape:window-y="-8" inkscape:window-maximized="1" inkscape:current-layer="svg4" width="14px" />
    <path d="M 11.758694,6.5276251 12.533539,6.0917338 C 12.751504,5.9711776 12.872781,5.7042206 12.800015,5.43781 12.533621,4.4206779 11.976495,3.500393 11.249995,2.7496633 11.056367,2.5800999 10.765718,2.5316473 10.547751,2.6527332 L 9.772907,3.1129377 C 9.5306855,2.9191273 9.2642914,2.7739434 8.9736417,2.6527332 V 1.7566291 c 0,-0.2662749 -0.1695383,-0.4842296 -0.435924,-0.5568257 -0.9928938,-0.26640458 -2.0828413,-0.26640458 -3.0757265,0 C 5.1955806,1.2718755 5.0260917,1.4903542 5.0260917,1.7566291 V 2.6527332 C 4.7355747,2.7732894 4.4690896,2.9191273 4.2269259,3.1129377 L 3.4520734,2.6527332 C 3.2340242,2.5321771 2.943499,2.5806214 2.7496886,2.7496633 2.0231976,3.500393 1.4660713,4.4206779 1.1996647,5.43781 1.1275926,5.7042206 1.2482374,5.9706478 1.4661624,6.0917338 L 2.241015,6.5276251 c -0.023593,0.1695717 -0.023518,0.314797 -0.023518,0.4843604 0,0.1453247 -7.46e-5,0.2905749 0.023518,0.4358996 L 1.4661624,7.9080896 C 1.2482374,8.0286458 1.1270686,8.2956111 1.1996647,8.562013 c 0.2664066,1.0171238 0.8235329,1.937417 1.5500239,2.688172 0.1938104,0.169373 0.4843356,0.217883 0.7023848,0.09694 l 0.7748525,-0.460107 c 0.2421637,0.193711 0.5086488,0.338995 0.7991658,0.460105 v 0.896038 c 0,0.266477 0.1694889,0.484277 0.4358995,0.557043 0.9928852,0.266395 2.0828327,0.266395 3.0757265,0 0.2663857,-0.07343 0.435924,-0.290566 0.435924,-0.557043 V 11.347123 C 9.2642914,11.226509 9.5306855,11.080729 9.772907,10.887018 l 0.774844,0.460105 c 0.217967,0.120531 0.508616,0.07211 0.702244,-0.09694 0.7265,-0.750755 1.283626,-1.6710482 1.55002,-2.688172 0.07342,-0.2664019 -0.04851,-0.5328374 -0.266476,-0.6539234 L 11.758694,7.4478851 c 0.0236,-0.290517 0.0236,-0.6053719 0,-0.92026 z m -1.283543,1.5498623 1.065494,0.6056116 c -0.193794,0.508533 -0.460022,0.9928936 -0.823272,1.404653 L 9.6518795,9.4821161 C 8.8768692,10.136015 8.7798484,10.208781 7.8111767,10.547775 v 1.235198 c -0.2664024,0.04851 -0.5328297,0.07202 -0.823479,0.07202 -0.2664024,0 -0.5327634,-0.02351 -0.7991658,-0.07202 V 10.547775 C 5.2198855,10.208781 5.0987499,10.136015 4.3480202,9.4821161 L 3.2825182,10.087752 C 2.9192769,9.6759926 2.6528497,9.191632 2.4590392,8.683099 l 1.065502,-0.6056116 c -0.193678,-1.0171321 -0.193678,-1.1381766 0,-2.155317 L 2.4590392,5.316724 C 2.6528497,4.8081579 2.9192769,4.3238306 3.2825182,3.9121035 l 1.065502,0.6054547 C 5.1229886,3.8636675 5.2198855,3.7910258 6.1885319,3.451899 V 2.2168336 c 0.2664024,-0.048486 0.5328297,-0.07198 0.823479,-0.07198 0.2664024,0 0.5327634,0.02481 0.7991658,0.07198 V 3.451899 C 8.7798484,3.7910258 8.9009592,3.8636675 9.6518795,4.5175582 L 10.717373,3.9121035 c 0.36325,0.4117271 0.629478,0.8960544 0.823272,1.4046205 l -1.065494,0.6054464 c 0.193794,1.0171404 0.193794,1.1381849 0,2.155317 z m -3.4631401,-3.41453 c -1.2835428,0 -2.3248722,1.0655847 -2.3248722,2.3248805 0,1.2835345 1.0413294,2.3249049 2.3248722,2.3249049 1.259296,0 2.3248806,-1.0413704 2.3248806,-2.3249049 0,-1.2592958 -1.0655846,-2.3248805 -2.3248806,-2.3248805 z m 0,3.4873124 c -0.6538907,0 -1.1624402,-0.5085411 -1.1624402,-1.1624319 0,-0.6296521 0.5085495,-1.1624402 1.1624402,-1.1624402 0.6296437,0 1.1624402,0.5327881 1.1624402,1.1624402 0,0.6538908 -0.5327965,1.1624319 -1.1624402,1.1624319 z" fill="#808080" id="path2" style="stroke-width:0.827828" />
</svg>
