<svg width="16" height="15" viewBox="0 0 16 15" fill="none" xmlns="http://www.w3.org/2000/svg">
<path d="M13.723 6.78422L14.659 6.25767C14.9223 6.11204 15.0688 5.78956 14.9809 5.46774C14.6591 4.23906 13.9861 3.12737 13.1085 2.2205C12.8746 2.01567 12.5235 1.95714 12.2602 2.10341L11.3242 2.65933C11.0316 2.42521 10.7098 2.24983 10.3587 2.10341V1.02093C10.3587 0.699274 10.1539 0.435988 9.83211 0.348293C8.63271 0.0264804 7.31607 0.0264804 6.11668 0.348293C5.79486 0.435355 5.59012 0.699274 5.59012 1.02093V2.10341C5.23918 2.24904 4.91727 2.42521 4.62474 2.65933L3.68873 2.10341C3.42533 1.95778 3.07438 2.0163 2.84026 2.2205C1.96267 3.12737 1.28967 4.23906 0.967855 5.46774C0.880793 5.78956 1.02653 6.1114 1.28978 6.25767L2.22579 6.78422C2.19729 6.98906 2.19738 7.16449 2.19738 7.36932C2.19738 7.54487 2.19729 7.72033 2.22579 7.89588L1.28978 8.4518C1.02653 8.59743 0.88016 8.91992 0.967855 9.24173C1.28967 10.4704 1.96267 11.5821 2.84026 12.489C3.07438 12.6936 3.42533 12.7522 3.68873 12.6061L4.62474 12.0503C4.91727 12.2843 5.23918 12.4598 5.59012 12.6061V13.6885C5.59012 14.0104 5.79486 14.2735 6.11668 14.3614C7.31607 14.6832 8.63271 14.6832 9.83211 14.3614C10.1539 14.2727 10.3587 14.0104 10.3587 13.6885V12.6061C10.7098 12.4604 11.0316 12.2843 11.3242 12.0503L12.2602 12.6061C12.5235 12.7517 12.8746 12.6932 13.1085 12.489C13.9861 11.5821 14.6591 10.4704 14.9809 9.24173C15.0696 8.91992 14.9223 8.59807 14.659 8.4518L13.723 7.89588C13.7515 7.54494 13.7515 7.1646 13.723 6.78422ZM12.1725 8.65643L13.4596 9.388C13.2255 10.0023 12.9039 10.5874 12.4651 11.0848L11.178 10.3532C10.2418 11.1431 10.1246 11.231 8.95446 11.6405V13.1326C8.63265 13.1912 8.31081 13.2196 7.95971 13.2196C7.6379 13.2196 7.31614 13.1912 6.99433 13.1326V11.6405C5.82422 11.231 5.67789 11.1431 4.77102 10.3532L3.48391 11.0848C3.04512 10.5874 2.72328 10.0023 2.48916 9.388L3.77627 8.65643C3.54231 7.42775 3.54231 7.28153 3.77627 6.05284L2.48916 5.32147C2.72328 4.70713 3.04512 4.12207 3.48391 3.62471L4.77102 4.35609C5.70717 3.5662 5.82422 3.47845 6.99433 3.06879V1.57685C7.31614 1.51828 7.63798 1.4899 7.98908 1.4899C8.31089 1.4899 8.63265 1.51987 8.95446 1.57685V3.06879C10.1246 3.47845 10.2709 3.5662 11.178 4.35609L12.4651 3.62471C12.9039 4.12207 13.2255 4.70713 13.4596 5.32147L12.1725 6.05284C12.4066 7.28153 12.4066 7.42775 12.1725 8.65643ZM7.98908 4.53173C6.43858 4.53173 5.18067 5.81894 5.18067 7.34015C5.18067 8.89064 6.43858 10.1486 7.98908 10.1486C9.51029 10.1486 10.7975 8.89064 10.7975 7.34015C10.7975 5.81894 9.51029 4.53173 7.98908 4.53173ZM7.98908 8.74435C7.19919 8.74435 6.58487 8.13004 6.58487 7.34015C6.58487 6.57954 7.19919 5.93594 7.98908 5.93594C8.74968 5.93594 9.39329 6.57954 9.39329 7.34015C9.39329 8.13004 8.74968 8.74435 7.98908 8.74435Z" fill="#808080"/>
</svg>
