<svg width="16" height="16" viewBox="0 0 16 16" fill="none" xmlns="http://www.w3.org/2000/svg">
<path d="M15.4332 6.93775L9.26024 0.764998C8.997 0.501596 8.64591 0.326172 8.26569 0.326172H2.29776C1.50787 0.326172 0.893555 0.96958 0.893555 1.73018V7.72748C0.893555 8.1077 1.03917 8.45883 1.3032 8.72223L7.47595 14.895C8.03172 15.4508 8.93862 15.4508 9.46526 14.895L15.4332 8.92706C15.989 8.40057 15.989 7.49352 15.4332 6.93775V6.93775ZM8.47051 13.9002L2.29776 7.72748V1.73018H8.26569L14.4678 7.9325L8.47051 13.9002ZM6.51038 4.53879C6.51038 3.77819 5.86678 3.13458 5.10617 3.13458C4.31628 3.13458 3.70197 3.77819 3.70197 4.53879C3.70197 5.32868 4.31628 5.943 5.10617 5.943C5.86678 5.943 6.51038 5.32868 6.51038 4.53879Z" fill="#000000"/>
</svg>
