<?xml version="1.0" encoding="UTF-8" standalone="no"?>
<svg width="14" height="14" viewBox="0 0 14 14" fill="none" version="1.1" id="svg6" sodipodi:docname="folder-starred.svg" inkscape:version="1.1 (c68e22c387, 2021-05-23)"
   xmlns:inkscape="http://www.inkscape.org/namespaces/inkscape"
   xmlns:sodipodi="http://sodipodi.sourceforge.net/DTD/sodipodi-0.dtd"
   xmlns="http://www.w3.org/2000/svg"
   xmlns:svg="http://www.w3.org/2000/svg">
   <defs id="defs10" />
   <sodipodi:namedview id="namedview8" pagecolor="#505050" bordercolor="#ffffff" borderopacity="1" inkscape:pageshadow="0" inkscape:pageopacity="0" inkscape:pagecheckerboard="1" showgrid="false" inkscape:zoom="29" inkscape:cx="3.4137931" inkscape:cy="6.3275862" inkscape:window-width="1920" inkscape:window-height="1017" inkscape:window-x="-8" inkscape:window-y="-8" inkscape:window-maximized="1" inkscape:current-layer="svg6" />
   <g id="g14" transform="matrix(0.86875143,0,0,0.86875143,0.2232727,1.7639556)">
      <path d="m 1.97048,0.640106 c -0.59584,0 -1.097099,0.480324 -1.075749,1.075754 L 1.16651,10.3389 c 0.0212,0.5954 0.47996,1.0752 1.07572,1.0752 h 2.09188 8.58819 c 0.5958,0 1.002,-0.4839 1.0752,-1.0752 L 14.707,4.6107 C 14.5098,4.38375 14.1988,4.24932 13.761,4.21816 H 2.98608 c -0.1484,0 -0.29064,0.0601 -0.42384,0.16347 C 2.42908,4.48506 2.3052,4.63199 2.19357,4.80448 1.97032,5.14946 1.79614,6.60669 1.69714,7.02171 V 3.3183 C 1.70014,3.19159 1.78104,3.05571 1.88848,2.9516 1.9959,2.8475 2.13047,2.77521 2.2408,2.77521 H 13.8276 C 13.5137,2.25746 13.1539,1.89722 12.5213,1.89722 H 5.6752 L 5.6812,1.71586 C 5.6862,1.567 5.6587,1.42523 5.6056,1.29649 5.5524,1.16775 5.47313,1.05185 5.37457,0.954643 5.27607,0.857443 5.15817,0.778889 5.02775,0.724579 4.89734,0.670279 4.75436,0.640083 4.6054,0.640083 Z" fill="#007fff" id="path2" />
      <path d="M 10.3625,6.92114 8.98735,6.72334 8.3657,5.47062 c -0.10361,-0.21664 -0.42385,-0.22606 -0.53688,0 L 7.21658,6.72334 5.83199,6.92114 C 5.5871,6.95882 5.49291,7.26022 5.67187,7.43918 l 0.989,0.97016 -0.23548,1.36575 C 6.38771,10.02 6.65144,10.2084 6.86808,10.0953 L 8.10197,9.44543 9.32644,10.0953 C 9.54307,10.2084 9.80681,10.02 9.76913,9.77509 L 9.53366,8.40934 10.5226,7.43918 C 10.7016,7.26022 10.6074,6.95882 10.3625,6.92114 Z M 9.04387,8.24922 9.26992,9.54904 8.10197,8.9368 6.9246,9.54904 7.15065,8.24922 6.19933,7.32615 7.50857,7.13778 8.10197,5.95099 8.68595,7.13778 9.99518,7.32615 Z" fill="#ffffff" id="path4" />
   </g>
</svg>
