<?xml version="1.0" encoding="UTF-8" standalone="no"?>
<svg width="14" height="14" viewBox="0 0 14 14" version="1.1" id="svg4" sodipodi:docname="folder.svg" inkscape:version="1.1 (c68e22c387, 2021-05-23)"
   xmlns:inkscape="http://www.inkscape.org/namespaces/inkscape"
   xmlns:sodipodi="http://sodipodi.sourceforge.net/DTD/sodipodi-0.dtd"
   xmlns="http://www.w3.org/2000/svg"
   xmlns:svg="http://www.w3.org/2000/svg">
   <defs id="defs8" />
   <sodipodi:namedview id="namedview6" pagecolor="#505050" bordercolor="#ffffff" borderopacity="1" inkscape:pageshadow="0" inkscape:pageopacity="0" inkscape:pagecheckerboard="1" showgrid="false" inkscape:zoom="43.5" inkscape:cx="8" inkscape:cy="7.9885057" inkscape:window-width="1920" inkscape:window-height="1017" inkscape:window-x="-8" inkscape:window-y="-8" inkscape:window-maximized="1" inkscape:current-layer="svg4" />
   <path fill="#007fff" d="m 1.9351039,2.3200977 c -0.5176735,0 -0.95308492,0.4172551 -0.9345319,0.9345353 l 0.2361316,7.491146 c 0.018163,0.517427 0.41686,0.934123 0.9345254,0.934123 h 1.8172917 7.4609173 c 0.517592,0 0.87044,-0.420302 0.934124,-0.934123 L 13,5.7695464 C 12.828617,5.5723371 12.558387,5.4555654 12.178083,5.4284522 H 2.8173456 c -0.128443,0 -0.2524765,0.051882 -0.3682072,0.1420653 C 2.33367,5.6600448 2.2258486,5.7879633 2.1289365,5.9378149 1.9349728,6.2375181 1.7836951,7.5035399 1.6976757,7.8640918 V 4.6467619 c 0,-0.1102802 0.072652,-0.2280928 0.1661949,-0.3185217 0.09342,-0.090814 0.2101839,-0.1532203 0.3060634,-0.1532203 H 12.235948 C 11.96326,3.7250717 11.650574,3.4122628 11.101099,3.4122628 H 5.1534748 L 5.1664498,3.254633 c 0,-0.1297462 -0.019458,-0.2524766 -0.066168,-0.364314 C 5.0548742,2.7787355 4.9848129,2.677799 4.8996951,2.593337 4.8140691,2.5090061 4.7117065,2.4406331 4.5983116,2.3934064 4.4854333,2.3466854 4.3608834,2.3207042 4.2313994,2.3207042 Z" id="path2" style="stroke-width:0.819622" />
</svg>
