<?xml version="1.0" encoding="UTF-8" standalone="no"?>
<svg width="14" height="14" viewBox="0 0 14 14" fill="none" version="1.1" id="svg6" sodipodi:docname="folder-drag-accept.svg" inkscape:version="1.1 (c68e22c387, 2021-05-23)"
   xmlns:inkscape="http://www.inkscape.org/namespaces/inkscape"
   xmlns:sodipodi="http://sodipodi.sourceforge.net/DTD/sodipodi-0.dtd"
   xmlns="http://www.w3.org/2000/svg"
   xmlns:svg="http://www.w3.org/2000/svg">
   <defs id="defs10" />
   <sodipodi:namedview id="namedview8" pagecolor="#505050" bordercolor="#ffffff" borderopacity="1" inkscape:pageshadow="0" inkscape:pageopacity="0" inkscape:pagecheckerboard="1" showgrid="false" height="14px" inkscape:zoom="44.740575" inkscape:cx="6.1465459" inkscape:cy="8.6386909" inkscape:window-width="1920" inkscape:window-height="1017" inkscape:window-x="-8" inkscape:window-y="-8" inkscape:window-maximized="1" inkscape:current-layer="svg6" />
   <g id="g14" transform="matrix(0.86874683,0,0,0.86874683,1,2.3200174)">
      <path d="M 1.07641,2.28882e-5 C 0.480568,2.28882e-5 -0.0206922,0.480345 6.57847e-4,1.07578 L 0.272438,9.69881 c 0.0212,0.59539 0.47996,1.07529 1.075722,1.07529 h 2.09188 8.58816 c 0.5958,0 1.002,-0.484 1.0753,-1.07529 L 13.813,3.97062 C 13.6157,3.74367 13.3047,3.60924 12.8669,3.57808 H 2.09201 c -0.1484,0 -0.29064,0.0601 -0.42384,0.16347 C 1.53501,3.84498 1.41113,3.99191 1.2995,4.1644 1.07625,4.50938 0.902068,5.96661 0.803068,6.38163 V 2.67822 C 0.806068,2.55151 0.886969,2.41563 0.994409,2.31152 1.10183,2.20742 1.2364,2.13512 1.34673,2.13512 H 12.9335 C 12.6196,1.61737 12.2598,1.25713 11.6272,1.25713 H 4.78113 l 0.006,-0.18135 C 4.79213,0.926915 4.76463,0.78515 4.71153,0.65641 4.65833,0.52767 4.57906,0.41177 4.4805,0.31456 4.382,0.21736 4.2641,0.138806 4.13368,0.0844955 4.00327,0.0301955 3.86029,0 3.71133,0 Z" fill="#007fff" id="path2" />
      <path d="m 2.66405,4.48598 h 9.64185 c 0.2671,0 0.4471,0.21217 0.4037,0.47573 L 11.971,9.43924 C 11.9275,9.7028 11.6775,9.91497 11.4104,9.91497 H 1.76854 C 1.50142,9.91497 1.32138,9.7028 1.36485,9.43924 L 2.10341,4.96171 C 2.14689,4.69815 2.39693,4.48598 2.66405,4.48598 Z" fill="#ffffff" id="path4" />
   </g>
</svg>
