<?xml version="1.0" encoding="UTF-8" standalone="no"?>
<svg width="14" height="14" viewBox="0 0 14 14" fill="none" version="1.1" id="svg4" sodipodi:docname="add-color.svg" inkscape:version="1.1 (c68e22c387, 2021-05-23)"
   xmlns:inkscape="http://www.inkscape.org/namespaces/inkscape"
   xmlns:sodipodi="http://sodipodi.sourceforge.net/DTD/sodipodi-0.dtd"
   xmlns="http://www.w3.org/2000/svg"
   xmlns:svg="http://www.w3.org/2000/svg">
   <defs id="defs8" />
   <sodipodi:namedview id="namedview6" pagecolor="#505050" bordercolor="#ffffff" borderopacity="1" inkscape:pageshadow="0" inkscape:pageopacity="0" inkscape:pagecheckerboard="1" showgrid="false" inkscape:zoom="15.379573" inkscape:cx="-4.5514919" inkscape:cy="7.9000895" inkscape:window-width="1920" inkscape:window-height="1017" inkscape:window-x="-8" inkscape:window-y="-8" inkscape:window-maximized="1" inkscape:current-layer="svg4" width="14px" />
   <path d="M 12.499983,6.0001248 H 7.999875 V 1.5000132 c 0,-0.2506277 -0.2506564,-0.5000131 -0.5000175,-0.5000131 H 6.4998228 c -0.2812508,0 -0.5000014,0.250652 -0.5000014,0.5000131 V 6.0001248 H 1.5000122 c -0.2812589,0 -0.5000127,0.2503364 -0.5000127,0.4996974 v 1.0000345 c 0,0.2812511 0.2177414,0.5003213 0.5000127,0.5003213 h 4.4998092 v 4.499805 C 5.9998214,12.781234 6.2175644,13 6.4998228,13 H 7.4998575 C 7.750482,13 7.999875,12.782257 7.999875,12.499983 V 8.0001782 h 4.500108 C 12.750608,8.0001782 13,7.782387 13,7.4998567 V 6.4998222 C 13,6.2491978 12.749344,6.0001248 12.499983,6.0001248 Z" fill="#00d400" id="path2" style="stroke-width:1.59929" />
</svg>
