<svg width="73" height="72" viewBox="0 0 73 72" fill="none" xmlns="http://www.w3.org/2000/svg">
<g clip-path="url(#clip0_397_631)">
<rect x="0.666992" width="72" height="24" fill="#01BCFF"/>
<rect x="4.66699" y="4" width="64" height="68" rx="12" fill="white"/>
<path d="M45.3743 12C47.7467 12 52.0233 14.9898 53.5002 17C55.2541 19.3863 58.2141 20 61.5002 20H72.667V72H0.666992L0.666998 17.5247C0.665785 16.7996 0.857936 16.0813 1.23175 15.4111C1.60557 14.7408 2.15394 14.1317 2.84578 13.6186C3.53763 13.1055 4.35907 12.6984 5.26345 12.4207C6.16784 12.1429 7.13749 12 8.11652 12L45.3743 12Z" fill="url(#paint0_linear_397_631)"/>
<g style="mix-blend-mode:luminosity" filter="url(#filter0_i_397_631)">
<path d="M37 28.0001C41.3667 28.0001 45.1333 31.1001 45.9833 35.3834L46.4833 37.8834L49.0333 38.0667C51.6333 38.2334 53.6667 40.4167 53.6667 43.0001C53.6667 45.7501 51.4167 48.0001 48.6667 48.0001H27C23.3167 48.0001 20.3333 45.0167 20.3333 41.3334C20.3333 37.9167 22.8833 35.0667 26.2667 34.7167L28.05 34.5334L28.8833 32.9501C30.4667 29.9001 33.5667 28.0001 37 28.0001ZM37 24.6667C32.1833 24.6667 28 27.4001 25.9167 31.4001C20.9 31.9334 17 36.1834 17 41.3334C17 46.8501 21.4833 51.3334 27 51.3334H48.6667C53.2667 51.3334 57 47.6001 57 43.0001C57 38.6001 53.5833 35.0334 49.25 34.7334C48.1167 28.9834 43.0667 24.6667 37 24.6667Z" fill="#F9F9F9"/>
</g>
</g>
<defs>
<filter id="filter0_i_397_631" x="17" y="18" width="40" height="40.5" filterUnits="userSpaceOnUse" color-interpolation-filters="sRGB">
<feFlood flood-opacity="0" result="BackgroundImageFix"/>
<feBlend mode="normal" in="SourceGraphic" in2="BackgroundImageFix" result="shape"/>
<feColorMatrix in="SourceAlpha" type="matrix" values="0 0 0 0 0 0 0 0 0 0 0 0 0 0 0 0 0 0 127 0" result="hardAlpha"/>
<feOffset dy="0.5"/>
<feGaussianBlur stdDeviation="0.25"/>
<feComposite in2="hardAlpha" operator="arithmetic" k2="-1" k3="1"/>
<feColorMatrix type="matrix" values="0 0 0 0 0.4 0 0 0 0 0.411765 0 0 0 0 0.423529 0 0 0 1 0"/>
<feBlend mode="normal" in2="shape" result="effect1_innerShadow_397_631"/>
</filter>
<linearGradient id="paint0_linear_397_631" x1="36.667" y1="5" x2="36.667" y2="116" gradientUnits="userSpaceOnUse">
<stop stop-color="#00C4FF"/>
<stop offset="1" stop-color="#0086FF"/>
</linearGradient>
<clipPath id="clip0_397_631">
<rect x="0.666992" width="72" height="72" rx="15.12" fill="white"/>
</clipPath>
</defs>
</svg>
