<svg width="72" height="72" viewBox="0 0 72 72" fill="none" xmlns="http://www.w3.org/2000/svg">
<g clip-path="url(#clip0_3002_5964)">
<rect width="72" height="72" fill="url(#paint0_linear_3002_5964)"/>
<g filter="url(#filter0_d_3002_5964)">
<path d="M5.37936 16.1379C5.37936 9.96757 10.3814 4.96552 16.5518 4.96552H56.2759C62.4463 4.96552 67.4483 9.96758 67.4483 16.1379V55.8621C67.4483 62.0324 62.4463 67.0345 56.2759 67.0345H16.5518C10.3814 67.0345 5.37936 62.0324 5.37936 55.8621V16.1379Z" fill="white"/>
</g>
<g filter="url(#filter1_di_3002_5964)">
<path fill-rule="evenodd" clip-rule="evenodd" d="M0 21.1034C0 14.9331 5.00206 9.93103 11.1724 9.93103H31.0345C33.7769 9.93103 36 12.1542 36 14.8965C36 17.6389 38.2231 19.8621 40.9655 19.8621H45.8182H60.8276C66.9979 19.8621 72 24.8641 72 31.0345V72L36 72H0V21.1034Z" fill="url(#paint1_linear_3002_5964)"/>
</g>
<g style="mix-blend-mode:luminosity" clip-path="url(#clip1_3002_5964)">
<g filter="url(#filter2_i_3002_5964)">
<path d="M35.6665 31.3333C40.0332 31.3333 43.7998 34.4333 44.6498 38.7167L45.1498 41.2167L47.6998 41.4C50.2998 41.5667 52.3332 43.75 52.3332 46.3333C52.3332 49.0833 50.0832 51.3333 47.3332 51.3333H25.6665C21.9832 51.3333 18.9998 48.35 18.9998 44.6667C18.9998 41.25 21.5498 38.4 24.9332 38.05L26.7165 37.8667L27.5498 36.2833C29.1332 33.2333 32.2332 31.3333 35.6665 31.3333ZM35.6665 28C30.8498 28 26.6665 30.7333 24.5832 34.7333C19.5665 35.2667 15.6665 39.5167 15.6665 44.6667C15.6665 50.1833 20.1498 54.6667 25.6665 54.6667H47.3332C51.9332 54.6667 55.6665 50.9333 55.6665 46.3333C55.6665 41.9333 52.2498 38.3667 47.9165 38.0667C46.7832 32.3167 41.7332 28 35.6665 28Z" fill="#F9F9F9"/>
</g>
</g>
</g>
<defs>
<filter id="filter0_d_3002_5964" x="0.413847" y="4.96552" width="72" height="72" filterUnits="userSpaceOnUse" color-interpolation-filters="sRGB">
<feFlood flood-opacity="0" result="BackgroundImageFix"/>
<feColorMatrix in="SourceAlpha" type="matrix" values="0 0 0 0 0 0 0 0 0 0 0 0 0 0 0 0 0 0 127 0" result="hardAlpha"/>
<feOffset dy="4.96552"/>
<feGaussianBlur stdDeviation="2.48276"/>
<feComposite in2="hardAlpha" operator="out"/>
<feColorMatrix type="matrix" values="0 0 0 0 0 0 0 0 0 0 0 0 0 0 0 0 0 0 0.25 0"/>
<feBlend mode="normal" in2="BackgroundImageFix" result="effect1_dropShadow_3002_5964"/>
<feBlend mode="normal" in="SourceGraphic" in2="effect1_dropShadow_3002_5964" result="shape"/>
</filter>
<filter id="filter1_di_3002_5964" x="-4.96552" y="4.96551" width="81.931" height="72" filterUnits="userSpaceOnUse" color-interpolation-filters="sRGB">
<feFlood flood-opacity="0" result="BackgroundImageFix"/>
<feColorMatrix in="SourceAlpha" type="matrix" values="0 0 0 0 0 0 0 0 0 0 0 0 0 0 0 0 0 0 127 0" result="hardAlpha"/>
<feOffset/>
<feGaussianBlur stdDeviation="2.48276"/>
<feComposite in2="hardAlpha" operator="out"/>
<feColorMatrix type="matrix" values="0 0 0 0 0.242653 0 0 0 0 0.237656 0 0 0 0 0.4875 0 0 0 0.15 0"/>
<feBlend mode="normal" in2="BackgroundImageFix" result="effect1_dropShadow_3002_5964"/>
<feBlend mode="normal" in="SourceGraphic" in2="effect1_dropShadow_3002_5964" result="shape"/>
<feColorMatrix in="SourceAlpha" type="matrix" values="0 0 0 0 0 0 0 0 0 0 0 0 0 0 0 0 0 0 127 0" result="hardAlpha"/>
<feOffset dy="1.24138"/>
<feGaussianBlur stdDeviation="1.24138"/>
<feComposite in2="hardAlpha" operator="arithmetic" k2="-1" k3="1"/>
<feColorMatrix type="matrix" values="0 0 0 0 1 0 0 0 0 1 0 0 0 0 1 0 0 0 0.25 0"/>
<feBlend mode="normal" in2="shape" result="effect2_innerShadow_3002_5964"/>
</filter>
<filter id="filter2_i_3002_5964" x="15.6665" y="28" width="40" height="27.1667" filterUnits="userSpaceOnUse" color-interpolation-filters="sRGB">
<feFlood flood-opacity="0" result="BackgroundImageFix"/>
<feBlend mode="normal" in="SourceGraphic" in2="BackgroundImageFix" result="shape"/>
<feColorMatrix in="SourceAlpha" type="matrix" values="0 0 0 0 0 0 0 0 0 0 0 0 0 0 0 0 0 0 127 0" result="hardAlpha"/>
<feOffset dy="0.5"/>
<feGaussianBlur stdDeviation="0.25"/>
<feComposite in2="hardAlpha" operator="arithmetic" k2="-1" k3="1"/>
<feColorMatrix type="matrix" values="0 0 0 0 0.4 0 0 0 0 0.411765 0 0 0 0 0.423529 0 0 0 1 0"/>
<feBlend mode="normal" in2="shape" result="effect1_innerShadow_3002_5964"/>
</filter>
<linearGradient id="paint0_linear_3002_5964" x1="36" y1="-8.4" x2="36" y2="124.8" gradientUnits="userSpaceOnUse">
<stop stop-color="#00C4FF"/>
<stop offset="1" stop-color="#0086FF"/>
</linearGradient>
<linearGradient id="paint1_linear_3002_5964" x1="35.5862" y1="9.93103" x2="35.5862" y2="72" gradientUnits="userSpaceOnUse">
<stop stop-color="#00C4FF"/>
<stop offset="1" stop-color="#0085FF"/>
</linearGradient>
<clipPath id="clip0_3002_5964">
<rect width="72" height="72" rx="16.1379" fill="white"/>
</clipPath>
<clipPath id="clip1_3002_5964">
<rect width="40" height="26.6667" fill="white" transform="translate(15.6665 28)"/>
</clipPath>
</defs>
</svg>
