<svg width="18" height="14" viewBox="0 0 18 14" fill="none" xmlns="http://www.w3.org/2000/svg">
<path d="M17.6213 6.30266L15.9245 4.89843V2.08997C15.9245 1.97283 15.8074 1.85585 15.6904 1.85585H14.7543C14.6086 1.88434 14.5203 1.97299 14.5203 2.08997V3.75744L10.3953 0.363928C10.1321 0.129968 9.75169 0.0128307 9.37146 0.0128307C8.9618 0.0128307 8.58158 0.129968 8.31818 0.363928L1.09235 6.30266C1.00529 6.38972 0.946716 6.50749 0.946716 6.65376C0.946716 6.7709 0.975213 6.88772 1.03378 6.94629L1.35559 7.32651C1.41416 7.41515 1.56042 7.47214 1.70669 7.47214C1.82383 7.47214 1.91152 7.44365 1.99921 7.38508L2.81839 6.71217V12.1535C2.81839 12.6802 3.2279 13.0897 3.75455 13.0897H7.49916C7.99652 13.0897 8.40603 12.6802 8.43531 12.1535V9.11112H10.3076V12.1535C10.3076 12.6802 10.7171 13.0897 11.2438 13.0897H14.9884C15.4856 13.0897 15.8952 12.6802 15.9245 12.1828V6.71217L16.7144 7.38508C16.8015 7.44365 16.8898 7.50222 17.007 7.50222C17.1526 7.50222 17.2995 7.41516 17.3872 7.32667L17.6797 6.94645C17.7383 6.88788 17.7968 6.7709 17.7968 6.65392C17.7968 6.50829 17.7097 6.39052 17.6213 6.30282V6.30266ZM14.491 11.6855H11.7119V8.64304C11.6834 8.14568 11.2729 7.73617 10.7757 7.70689H7.96723C7.44059 7.73538 7.03108 8.14568 7.03108 8.64304V11.6855H4.22263V5.57134L9.37146 1.32936L14.5203 5.57134L14.491 11.6855Z" fill="#000000"/>
</svg>
