<svg width="11" height="13" viewBox="0 0 11 13" fill="none" xmlns="http://www.w3.org/2000/svg">
<path d="M10.0542 4.12342C9.85796 3.77976 9.48971 3.5588 9.09698 3.5588H6.76546L7.47713 1.42341C7.57527 1.07991 7.501 0.736382 7.28081 0.441796C7.05999 0.171904 6.74082 -0.00012207 6.39717 -0.00012207H3.18181C2.61733 -0.00012207 2.1511 0.441731 2.0775 0.932602L0.80121 6.13591C0.752138 6.47957 0.850174 6.79875 1.07115 7.06864C1.29197 7.31415 1.63568 7.46128 1.97934 7.46128H4.38467L3.52557 11.192C3.45275 11.5356 3.52564 11.8792 3.72208 12.1492C3.9429 12.4193 4.26203 12.5664 4.60553 12.5664C5.0228 12.5664 5.39085 12.3702 5.5626 12.0511L10.0542 5.25227C10.2751 4.90877 10.2751 4.49161 10.0542 4.12342V4.12342ZM4.72823 11.2411L5.85728 6.28335H1.9548L3.18181 1.1782H6.32354L5.14561 4.73692H8.99882L4.72823 11.2411Z" fill="black"/>
</svg>
