<svg width="21" height="24" viewBox="0 0 21 24" fill="none" xmlns="http://www.w3.org/2000/svg">
<path d="M15 16.5H14.7656C14.2031 16.5 13.6406 16.6406 13.0781 16.8281C12.2812 17.1094 11.3906 17.25 10.5 17.25C9.56251 17.25 8.67187 17.1094 7.875 16.8281C7.3125 16.6406 6.75 16.5469 6.1875 16.5469H6C2.67188 16.5469 0 19.2187 0 22.5C0 23.3437 0.656247 24 1.5 24H19.5C20.2969 24 21 23.3437 21 22.5C21 19.2187 18.2812 16.5 15 16.5V16.5ZM2.29687 21.75C2.67187 20.0625 4.17188 18.7969 6 18.75H6.1875C6.42188 18.75 6.75 18.8438 7.125 18.9844C8.20313 19.3125 9.32813 19.5 10.4531 19.5C11.625 19.5 12.75 19.3125 13.8281 18.9844C14.2031 18.8438 14.5312 18.75 14.7656 18.75H15C16.7812 18.7969 18.2812 20.0625 18.6562 21.75H2.29687ZM2.57813 10.5C3.1875 10.5 3.65625 10.0313 3.65625 9.42188V9.00001C3.65625 5.25 6.70313 2.20314 10.5 2.20314C14.25 2.20314 17.2969 5.25 17.2969 9.00001V9.60937C17.2969 11.3906 15.8438 12.8438 14.0625 12.8438H12.9844C12.7969 12 12.0469 11.3906 11.2031 11.3906H9.75C8.71875 11.3906 7.92188 12.1875 7.92188 13.2188C7.92188 14.2031 8.71875 15.0469 9.75 15.0469C9.75 15.0469 9.75 15.0469 9.75 15H14.0625C17.0625 15 19.4531 12.6094 19.5 9.60937V9.00001C19.5 4.07813 15.4219 0 10.5 0C5.53126 0 1.5 4.07813 1.5 9.00001V9.42188C1.5 10.0313 1.96875 10.5 2.57813 10.5V10.5ZM10.5 6.00001C12.1406 6.04689 13.4531 7.35938 13.5 9.00001C13.4531 9.5625 13.3125 10.0781 13.0781 10.5C13.4062 10.7344 13.6875 11.0156 13.9219 11.3438H14.0625C14.6719 11.3438 15.1875 11.0156 15.4688 10.5469C15.6094 10.0781 15.75 9.5625 15.75 9.00001C15.75 6.14063 13.3594 3.75002 10.5 3.75002C7.59375 3.75002 5.25 6.14063 5.25 9.00001C5.25 10.3594 5.71875 11.5313 6.5625 12.4688C6.75 11.6719 7.21875 10.9688 7.875 10.5C7.64062 10.0781 7.5 9.5625 7.5 9.00001C7.5 7.35938 8.81251 6.04689 10.5 6.00001V6.00001Z" fill="black"/>
</svg>
