<?xml version="1.0" encoding="UTF-8" standalone="no"?>
<svg width="14" height="14" viewBox="0 0 14 14" fill="none" version="1.1" id="svg4" sodipodi:docname="admin.svg" inkscape:version="1.1 (c68e22c387, 2021-05-23)"
   xmlns:inkscape="http://www.inkscape.org/namespaces/inkscape"
   xmlns:sodipodi="http://sodipodi.sourceforge.net/DTD/sodipodi-0.dtd"
   xmlns="http://www.w3.org/2000/svg"
   xmlns:svg="http://www.w3.org/2000/svg">
   <defs id="defs8" />
   <sodipodi:namedview id="namedview6" pagecolor="#505050" bordercolor="#ffffff" borderopacity="1" inkscape:pageshadow="0" inkscape:pageopacity="0" inkscape:pagecheckerboard="1" showgrid="false" height="15px" inkscape:zoom="26.769231" inkscape:cx="2.5775862" inkscape:cy="7.4525861" inkscape:window-width="1920" inkscape:window-height="1017" inkscape:window-x="-8" inkscape:window-y="-8" inkscape:window-maximized="1" inkscape:current-layer="svg4" width="14px" />
   <path d="M 2.8750127,2.1250005 H 1.3749409 c -0.2108974,0 -0.3749408,0.1876601 -0.3749408,0.3750958 v 1.4999156 c 0,0.2110223 0.1640434,0.3750974 0.3749408,0.3750974 h 1.5000718 c 0.1875646,0 0.3749452,-0.1640751 0.3749452,-0.3750974 V 2.5000963 c 0,-0.1874357 -0.1873806,-0.3750958 -0.3749452,-0.3750958 z m 0,3.7500259 H 1.3749409 c -0.2108974,0 -0.3749408,0.1876609 -0.3749408,0.3750975 V 7.750041 c 0,0.2110223 0.1640434,0.3749372 0.3749408,0.3749372 h 1.5000718 c 0.1875646,0 0.3749452,-0.1639149 0.3749452,-0.3749372 V 6.2501239 c 0,-0.1874366 -0.1873806,-0.3750975 -0.3749452,-0.3750975 z m 0,3.7500291 H 1.3749409 c -0.2108974,0 -0.3749408,0.1874686 -0.3749408,0.3749372 v 1.5000703 c 0,0.211022 0.1640434,0.374937 0.3749408,0.374937 h 1.5000718 c 0.1875646,0 0.3749452,-0.163915 0.3749452,-0.374937 V 9.9999927 c 0,-0.1874686 -0.1873806,-0.3749372 -0.3749452,-0.3749372 z M 12.624903,6.4375925 H 5.1249644 c -0.2108942,0 -0.3749373,0.1875327 -0.3749373,0.3750974 v 0.3749372 c 0,0.2109022 0.1640431,0.3749453 0.3749373,0.3749453 H 12.624903 C 12.812291,7.5625724 13,7.3985293 13,7.1876271 V 6.8126899 C 13,6.6251252 12.812291,6.4375925 12.624903,6.4375925 Z m 0,3.7500295 H 5.1249644 c -0.2108942,0 -0.3749373,0.187388 -0.3749373,0.374937 v 0.375097 c 0,0.210863 0.1640431,0.374937 0.3749373,0.374937 H 12.624903 C 12.812291,11.312594 13,11.148519 13,10.937657 v -0.375098 c 0,-0.187549 -0.187709,-0.374937 -0.375097,-0.374937 z m 0,-7.5000586 H 5.1249644 c -0.2108942,0 -0.3749373,0.1875327 -0.3749373,0.3750974 V 3.437606 c 0,0.2108942 0.1640431,0.3750895 0.3749373,0.3750895 H 12.624903 C 12.812291,3.8126955 13,3.6485002 13,3.437606 V 3.0626608 C 13,2.8750961 12.812291,2.6875634 12.624903,2.6875634 Z" fill="#808080" id="path2" style="stroke-width:0.801148" />
</svg>
