<?xml version="1.0" encoding="UTF-8" standalone="no"?>
<svg width="14" height="14" viewBox="0 0 14 14" fill="none" version="1.1" id="svg4" sodipodi:docname="users.svg" inkscape:version="1.1 (c68e22c387, 2021-05-23)"
   xmlns:inkscape="http://www.inkscape.org/namespaces/inkscape"
   xmlns:sodipodi="http://sodipodi.sourceforge.net/DTD/sodipodi-0.dtd"
   xmlns="http://www.w3.org/2000/svg"
   xmlns:svg="http://www.w3.org/2000/svg">
   <defs id="defs8" />
   <sodipodi:namedview id="namedview6" pagecolor="#505050" bordercolor="#ffffff" borderopacity="1" inkscape:pageshadow="0" inkscape:pageopacity="0" inkscape:pagecheckerboard="1" showgrid="false" inkscape:zoom="41.012193" inkscape:cx="6.1688971" inkscape:cy="8.253643" inkscape:window-width="1920" inkscape:window-height="1017" inkscape:window-x="-8" inkscape:window-y="-8" inkscape:window-maximized="1" inkscape:current-layer="svg4" />
   <path d="m 11.21558,6.3991676 c 0.826241,0 1.502444,-0.6573739 1.502444,-1.5023754 0,-0.8262334 -0.676203,-1.50223 -1.502444,-1.50223 -0.845062,0 -1.5022143,0.6759966 -1.5022143,1.50223 0,0.8450015 0.6571523,1.5023754 1.5022143,1.5023754 z m 0,-2.1032077 c 0.31928,0 0.60084,0.2815754 0.60084,0.6008323 0,0.3380251 -0.28156,0.6009777 -0.60084,0.6009777 -0.338025,0 -0.600916,-0.2629526 -0.600916,-0.6009777 0,-0.3192569 0.262891,-0.6008323 0.600916,-0.6008323 z M 2.8026424,6.3991676 c 0.8263482,0 1.5025208,-0.6573739 1.5025208,-1.5023754 0,-0.8262334 -0.6761726,-1.50223 -1.5025208,-1.50223 -0.8450015,0 -1.5022269,0.6759966 -1.5022269,1.50223 0,0.8450015 0.6572254,1.5023754 1.5022269,1.5023754 z m 0,-2.1032077 c 0.3192494,0 0.6009777,0.2815754 0.6009777,0.6008323 0,0.3380251 -0.2817283,0.6009777 -0.6009777,0.6009777 -0.338025,0 -0.6008323,-0.2629526 -0.6008323,-0.6009777 0,-0.3192569 0.2628073,-0.6008323 0.6008323,-0.6008323 z m 7.4365066,3.9623226 c -0.5257833,-0.751138 -1.5211135,-1.051673 -2.4038042,-0.76996 -0.2628149,0.07509 -0.5444362,0.112655 -0.8449174,0.112655 -0.281713,0 -0.5634797,-0.03757 -0.8262945,-0.112655 -0.8826679,-0.281713 -1.8966437,4.6e-5 -2.4036201,0.76996 -0.2253934,0.356801 -0.3756684,0.769806 -0.3756684,1.220586 v 0.8263255 c 0,0.506961 0.41322,0.901222 0.901543,0.901222 H 9.694621 c 0.506961,0 0.901222,-0.394261 0.901222,-0.901222 V 9.4788685 c 0.01821,-0.45078 -0.13137,-0.863785 -0.356694,-1.220586 z M 9.7133657,10.305194 H 4.3051632 V 9.4788685 c 0,-0.694818 0.5443903,-1.258137 1.2204404,-1.276913 0.4694326,0.206617 0.9766232,0.300412 1.4835996,0.300412 0.4882007,0 0.9952383,-0.0944 1.4646705,-0.300412 0.6760658,0.01816 1.239492,0.582095 1.239492,1.276913 z M 11.440905,7.0001453 h -0.450573 c -0.338025,0 -0.638636,0.1125398 -0.882629,0.2814912 0.243993,0.187842 0.469394,0.413266 0.63833,0.676081 0.07513,-0.01816 0.150421,-0.05574 0.225478,-0.05574 h 0.450648 c 0.375593,0 0.676051,0.319287 0.676051,0.676088 0,0.262938 0.206579,0.450619 0.450649,0.450619 0.262968,0 0.450802,-0.187681 0.450802,-0.450619 0.01814,-0.863777 -0.694872,-1.5773329 -1.558756,-1.5773329 z m -4.4317018,0 c 1.1454827,0 2.1031695,-0.9391023 2.1031695,-2.1033531 0,-1.1454827 -0.9576868,-2.1032077 -2.1031695,-2.1032077 -1.1642585,0 -2.1032077,0.957725 -2.1032077,2.1032077 0,1.1642508 0.9389492,2.1033531 2.1032077,2.1033531 z m 0,-3.3050178 c 0.6572744,0 1.20181,0.5443826 1.20181,1.2016647 0,0.6760502 -0.5445356,1.20181 -1.20181,1.20181 -0.6760502,0 -1.20181,-0.5257598 -1.20181,-1.20181 0,-0.6572821 0.5257598,-1.2016647 1.20181,-1.2016647 z M 3.8917978,7.2816365 C 3.6477587,7.1126851 3.3473541,7.0001453 3.0281047,7.0001453 H 2.5774786 c -0.8826679,0 -1.5774785,0.7135562 -1.5774785,1.5773332 0,0.26293 0.1878365,0.450618 0.4507715,0.450618 0.2440414,0 0.4506261,-0.187688 0.4506261,-0.450618 0,-0.356801 0.3005119,-0.676089 0.6760809,-0.676089 h 0.4506261 c 0.075088,0 0.1500991,0.03758 0.2253092,0.05574 0.1689514,-0.262816 0.3943448,-0.48824 0.6383839,-0.676082 z" fill="#000000" id="path2" style="stroke-width:0.765112" />
</svg>
