<svg width="73" height="72" viewBox="0 0 73 72" fill="none" xmlns="http://www.w3.org/2000/svg">
<g clip-path="url(#clip0_802_573)">
<path d="M57.7996 0H16.1996C7.80491 0 0.999634 6.80527 0.999634 15.2V56.8C0.999634 65.1947 7.80491 72 16.1996 72H57.7996C66.1944 72 72.9996 65.1947 72.9996 56.8V15.2C72.9996 6.80527 66.1944 0 57.7996 0Z" fill="url(#paint0_linear_802_573)"/>
<path fill-rule="evenodd" clip-rule="evenodd" d="M38.3323 26.8185C38.3323 25.0287 39.6636 23.5431 40.8768 22.2272C41.7804 21.2472 42.3323 19.938 42.3323 18.5C42.3323 15.4624 39.8698 13 36.8323 13C33.7947 13 31.3323 15.4624 31.3323 18.5C31.3323 19.938 31.8842 21.2472 32.7877 22.2272C34.001 23.5431 35.3323 25.0287 35.3323 26.8185V27.1815C35.3323 28.9713 34.001 30.4569 32.7877 31.7728C31.8842 32.7528 31.3323 34.062 31.3323 35.5C31.3323 36.938 31.8842 38.2472 32.7877 39.2272C34.001 40.5431 35.3323 42.0287 35.3323 43.8185V45.1815C35.3323 46.9713 34.001 48.4569 32.7877 49.7728C31.8842 50.7528 31.3323 52.062 31.3323 53.5C31.3323 56.5376 33.7947 59 36.8323 59C39.8698 59 42.3323 56.5376 42.3323 53.5C42.3323 52.062 41.7804 50.7528 40.8769 49.7728C39.6636 48.4569 38.3323 46.9713 38.3323 45.1815V43.8185C38.3323 42.0287 39.6636 40.5431 40.8768 39.2272C41.7804 38.2472 42.3323 36.938 42.3323 35.5C42.3323 34.062 41.7804 32.7528 40.8768 31.7728C39.6636 30.4569 38.3323 28.9713 38.3323 27.1815V26.8185ZM36.8323 56C38.213 56 39.3323 54.8807 39.3323 53.5C39.3323 52.1193 38.213 51 36.8323 51C35.4516 51 34.3323 52.1193 34.3323 53.5C34.3323 54.8807 35.4516 56 36.8323 56Z" fill="url(#paint1_linear_802_573)"/>
</g>
<defs>
<linearGradient id="paint0_linear_802_573" x1="36.9996" y1="1.408" x2="36.9996" y2="72.216" gradientUnits="userSpaceOnUse">
<stop stop-color="white"/>
<stop offset="1" stop-color="#E6E8E9"/>
</linearGradient>
<linearGradient id="paint1_linear_802_573" x1="36.8323" y1="13" x2="36.8323" y2="59" gradientUnits="userSpaceOnUse">
<stop stop-color="#128FFD"/>
<stop offset="1" stop-color="#2B72F9"/>
</linearGradient>
<clipPath id="clip0_802_573">
<rect x="0.666626" width="72" height="72" rx="15.12" fill="white"/>
</clipPath>
</defs>
</svg>
