<svg width="72" height="72" viewBox="0 0 72 72" fill="none" xmlns="http://www.w3.org/2000/svg">
<path d="M56.8 0H15.2C6.80527 0 0 6.80527 0 15.2V56.8C0 65.1947 6.80527 72 15.2 72H56.8C65.1947 72 72 65.1947 72 56.8V15.2C72 6.80527 65.1947 0 56.8 0Z" fill="url(#paint0_linear_509_2149)"/>
<path fill-rule="evenodd" clip-rule="evenodd" d="M37.333 26.8185C37.333 25.0287 38.6643 23.5431 39.8776 22.2272C40.7811 21.2472 41.333 19.938 41.333 18.5C41.333 15.4624 38.8706 13 35.833 13C32.7954 13 30.333 15.4624 30.333 18.5C30.333 19.938 30.8849 21.2472 31.7884 22.2272C33.0017 23.5431 34.333 25.0287 34.333 26.8185V27.1815C34.333 28.9713 33.0017 30.4569 31.7884 31.7728C30.8849 32.7528 30.333 34.062 30.333 35.5C30.333 36.938 30.8849 38.2472 31.7884 39.2272C33.0017 40.5431 34.333 42.0287 34.333 43.8185V45.1815C34.333 46.9713 33.0017 48.4569 31.7884 49.7728C30.8849 50.7528 30.333 52.062 30.333 53.5C30.333 56.5376 32.7954 59 35.833 59C38.8706 59 41.333 56.5376 41.333 53.5C41.333 52.062 40.7811 50.7528 39.8776 49.7728C38.6643 48.4569 37.333 46.9713 37.333 45.1815V43.8185C37.333 42.0287 38.6643 40.5431 39.8776 39.2272C40.7811 38.2472 41.333 36.938 41.333 35.5C41.333 34.062 40.7811 32.7528 39.8776 31.7728C38.6643 30.4569 37.333 28.9713 37.333 27.1815V26.8185ZM35.833 56C37.2137 56 38.333 54.8807 38.333 53.5C38.333 52.1193 37.2137 51 35.833 51C34.4523 51 33.333 52.1193 33.333 53.5C33.333 54.8807 34.4523 56 35.833 56Z" fill="url(#paint1_linear_509_2149)"/>
<defs>
<linearGradient id="paint0_linear_509_2149" x1="36" y1="1.408" x2="36" y2="72.216" gradientUnits="userSpaceOnUse">
<stop stop-color="white"/>
<stop offset="1" stop-color="#E6E8E9"/>
</linearGradient>
<linearGradient id="paint1_linear_509_2149" x1="35.833" y1="13" x2="35.833" y2="59" gradientUnits="userSpaceOnUse">
<stop stop-color="#128FFD"/>
<stop offset="1" stop-color="#2B72F9"/>
</linearGradient>
</defs>
</svg>
