<svg width="24" height="24" viewBox="0 0 24 24" fill="none" xmlns="http://www.w3.org/2000/svg">
<path fill-rule="evenodd" clip-rule="evenodd" d="M12.6433 8.14018C12.6433 7.32653 13.2548 6.65119 13.7864 6.03526C14.1432 5.62197 14.3589 5.08357 14.3589 4.49478C14.3589 3.19206 13.3028 2.136 12.0001 2.136C10.6974 2.136 9.64131 3.19206 9.64131 4.49478C9.64131 5.0835 9.85698 5.62183 10.2136 6.0351C10.7452 6.65111 11.3567 7.3265 11.3567 8.14018C11.3567 8.95386 10.7452 9.62924 10.2136 10.2453C9.85698 10.6585 9.64131 11.1969 9.64131 11.7856C9.64131 12.2973 9.80424 12.7709 10.0811 13.1574C10.6287 13.9221 11.3567 14.7049 11.3567 15.6454C11.3567 16.5859 10.6287 17.3687 10.0811 18.1334C9.80424 18.5199 9.64131 18.9935 9.64131 19.5052C9.64131 20.8079 10.6974 21.864 12.0001 21.864C13.3028 21.864 14.3589 20.8079 14.3589 19.5052C14.3589 18.9935 14.1959 18.5198 13.919 18.1332C13.3714 17.3686 12.6433 16.5859 12.6433 15.6454C12.6433 14.7049 13.3714 13.9222 13.919 13.1576C14.1959 12.771 14.3589 12.2973 14.3589 11.7856C14.3589 11.1968 14.1432 10.6584 13.7864 10.2451C13.2548 9.62916 12.6433 8.95382 12.6433 8.14018ZM12.0001 18.864C11.646 18.864 11.3589 19.1511 11.3589 19.5052C11.3589 19.8594 11.646 20.1464 12.0001 20.1464C12.3542 20.1464 12.6413 19.8594 12.6413 19.5052C12.6413 19.1511 12.3542 18.864 12.0001 18.864Z" fill="#808080"/>
</svg>
