<svg width="72" height="72" viewBox="0 0 72 72" fill="none" xmlns="http://www.w3.org/2000/svg">
<g clip-path="url(#clip0_3001_5722)">
<path d="M57.133 0H15.533C7.13828 0 0.333008 6.80527 0.333008 15.2V56.8C0.333008 65.1947 7.13828 72 15.533 72H57.133C65.5277 72 72.333 65.1947 72.333 56.8V15.2C72.333 6.80527 65.5277 0 57.133 0Z" fill="url(#paint0_linear_3001_5722)"/>
<path d="M57.133 0H15.533C7.13828 0 0.333008 6.80527 0.333008 15.2V56.8C0.333008 65.1947 7.13828 72 15.533 72H57.133C65.5277 72 72.333 65.1947 72.333 56.8V15.2C72.333 6.80527 65.5277 0 57.133 0Z" fill="url(#paint1_linear_3001_5722)"/>
<path fill-rule="evenodd" clip-rule="evenodd" d="M37.6656 26.8185C37.6656 25.0287 38.997 23.5431 40.2102 22.2272C41.1138 21.2472 41.6656 19.938 41.6656 18.5C41.6656 15.4624 39.2032 13 36.1656 13C33.1281 13 30.6656 15.4624 30.6656 18.5C30.6656 19.938 31.2175 21.2472 32.1211 22.2272C33.3343 23.5431 34.6656 25.0287 34.6656 26.8185V27.1815C34.6656 28.9713 33.3343 30.4569 32.1211 31.7728C31.2175 32.7528 30.6656 34.062 30.6656 35.5C30.6656 36.938 31.2175 38.2472 32.1211 39.2272C33.3343 40.5431 34.6656 42.0287 34.6656 43.8185V45.1815C34.6656 46.9713 33.3343 48.4569 32.1211 49.7728C31.2175 50.7528 30.6656 52.062 30.6656 53.5C30.6656 56.5376 33.1281 59 36.1656 59C39.2032 59 41.6656 56.5376 41.6656 53.5C41.6656 52.062 41.1138 50.7528 40.2102 49.7728C38.997 48.4569 37.6656 46.9713 37.6656 45.1815V43.8185C37.6656 42.0287 38.997 40.5431 40.2102 39.2272C41.1138 38.2472 41.6656 36.938 41.6656 35.5C41.6656 34.062 41.1138 32.7528 40.2102 31.7728C38.997 30.4569 37.6656 28.9713 37.6656 27.1815V26.8185ZM36.1656 56C37.5464 56 38.6656 54.8807 38.6656 53.5C38.6656 52.1193 37.5464 51 36.1656 51C34.7849 51 33.6656 52.1193 33.6656 53.5C33.6656 54.8807 34.7849 56 36.1656 56Z" fill="url(#paint2_linear_3001_5722)"/>
<path fill-rule="evenodd" clip-rule="evenodd" d="M37.6656 26.8185C37.6656 25.0287 38.997 23.5431 40.2102 22.2272C41.1138 21.2472 41.6656 19.938 41.6656 18.5C41.6656 15.4624 39.2032 13 36.1656 13C33.1281 13 30.6656 15.4624 30.6656 18.5C30.6656 19.938 31.2175 21.2472 32.1211 22.2272C33.3343 23.5431 34.6656 25.0287 34.6656 26.8185V27.1815C34.6656 28.9713 33.3343 30.4569 32.1211 31.7728C31.2175 32.7528 30.6656 34.062 30.6656 35.5C30.6656 36.938 31.2175 38.2472 32.1211 39.2272C33.3343 40.5431 34.6656 42.0287 34.6656 43.8185V45.1815C34.6656 46.9713 33.3343 48.4569 32.1211 49.7728C31.2175 50.7528 30.6656 52.062 30.6656 53.5C30.6656 56.5376 33.1281 59 36.1656 59C39.2032 59 41.6656 56.5376 41.6656 53.5C41.6656 52.062 41.1138 50.7528 40.2102 49.7728C38.997 48.4569 37.6656 46.9713 37.6656 45.1815V43.8185C37.6656 42.0287 38.997 40.5431 40.2102 39.2272C41.1138 38.2472 41.6656 36.938 41.6656 35.5C41.6656 34.062 41.1138 32.7528 40.2102 31.7728C38.997 30.4569 37.6656 28.9713 37.6656 27.1815V26.8185ZM36.1656 56C37.5464 56 38.6656 54.8807 38.6656 53.5C38.6656 52.1193 37.5464 51 36.1656 51C34.7849 51 33.6656 52.1193 33.6656 53.5C33.6656 54.8807 34.7849 56 36.1656 56Z" fill="url(#paint3_linear_3001_5722)"/>
</g>
<defs>
<linearGradient id="paint0_linear_3001_5722" x1="36.333" y1="1.408" x2="36.333" y2="72.216" gradientUnits="userSpaceOnUse">
<stop stop-color="white"/>
<stop offset="1" stop-color="#E6E8E9"/>
</linearGradient>
<linearGradient id="paint1_linear_3001_5722" x1="36.3749" y1="0" x2="36.3749" y2="72" gradientUnits="userSpaceOnUse">
<stop stop-color="white"/>
<stop offset="1" stop-color="#E8E9F6"/>
</linearGradient>
<linearGradient id="paint2_linear_3001_5722" x1="36.1656" y1="13" x2="36.1656" y2="59" gradientUnits="userSpaceOnUse">
<stop stop-color="#128FFD"/>
<stop offset="1" stop-color="#2B72F9"/>
</linearGradient>
<linearGradient id="paint3_linear_3001_5722" x1="36.1657" y1="-12.7759" x2="36.1657" y2="46.7069" gradientUnits="userSpaceOnUse">
<stop stop-color="#00C4FF"/>
<stop offset="1" stop-color="#0085FF"/>
</linearGradient>
<clipPath id="clip0_3001_5722">
<rect width="72" height="72" rx="15.12" fill="white"/>
</clipPath>
</defs>
</svg>
