<?xml version="1.0" encoding="UTF-8" standalone="no"?>
<svg width="14" height="14" viewBox="0 0 14 14" fill="none" version="1.1" id="svg4" sodipodi:docname="home.svg" inkscape:version="1.1 (c68e22c387, 2021-05-23)"
    xmlns:inkscape="http://www.inkscape.org/namespaces/inkscape"
    xmlns:sodipodi="http://sodipodi.sourceforge.net/DTD/sodipodi-0.dtd"
    xmlns="http://www.w3.org/2000/svg"
    xmlns:svg="http://www.w3.org/2000/svg">
    <defs id="defs8" />
    <sodipodi:namedview id="namedview6" pagecolor="#505050" bordercolor="#ffffff" borderopacity="1" inkscape:pageshadow="0" inkscape:pageopacity="0" inkscape:pagecheckerboard="1" showgrid="false" inkscape:zoom="24.857142" inkscape:cx="4.1436783" inkscape:cy="6.4568968" inkscape:window-width="1920" inkscape:window-height="1017" inkscape:window-x="-8" inkscape:window-y="-8" inkscape:window-maximized="1" inkscape:current-layer="svg4" />
    <path d="M 12.875015,6.8229528 11.666618,5.8229126 V 3.8228324 c 0,-0.083423 -0.08339,-0.1667315 -0.166717,-0.1667315 h -0.666656 c -0.103762,0.020289 -0.166646,0.083423 -0.166646,0.1667315 V 5.0103422 L 7.7289287,2.5936098 C 7.5414873,2.4269923 7.2705733,2.3435714 6.9997878,2.3435714 c -0.2917445,0 -0.5625231,0.083421 -0.7501067,0.2500384 l -5.145966,4.229343 C 1.0417142,6.8849537 1,6.9688251 1,7.072993 1,7.156416 1.020295,7.2396106 1.062004,7.281322 l 0.2291811,0.2707785 c 0.041711,0.063126 0.1458723,0.1037122 0.2500403,0.1037122 0.083423,0 0.1458722,-0.020289 0.2083218,-0.062001 l 0.5833894,-0.479221 v 3.8751123 c 0,0.375096 0.2916377,0.666726 0.6666981,0.666726 H 5.666406 c 0.3542012,0 0.6458389,-0.29163 0.666691,-0.666726 V 8.8230329 h 1.333375 v 2.1666701 c 0,0.375096 0.29163,0.666726 0.6667267,0.666726 h 2.6667643 c 0.354087,0 0.645788,-0.29163 0.666655,-0.64586 V 7.1145905 l 0.562537,0.4792214 c 0.06203,0.041711 0.124914,0.083423 0.208379,0.083423 0.103691,0 0.208307,-0.062001 0.270764,-0.1250204 L 12.916606,7.2814359 C 12.958339,7.2397246 13,7.1564158 13,7.073107 13,6.9693947 12.937973,6.8855234 12.875015,6.8230667 Z M 10.645733,10.656411 H 8.6665613 V 8.4896842 C 8.646268,8.1354829 8.353922,7.8438449 7.9998353,7.8229929 H 5.9997477 C 5.6246943,7.8432795 5.3330566,8.1354829 5.3330566,8.4896842 V 10.656411 H 3.3329835 V 6.3021339 L 6.9997878,3.2811543 10.666599,6.3021339 Z" fill="#000000" id="path2" style="stroke-width:0.71216" />
</svg>
