<svg width="15" height="13" viewBox="0 0 15 13" fill="none" xmlns="http://www.w3.org/2000/svg">
<path d="M2.3553 0.466064H0.482897C0.219653 0.466064 0.0148926 0.700303 0.0148926 0.934262V2.80647C0.0148926 3.06987 0.219653 3.27467 0.482897 3.27467H2.3553C2.58942 3.27467 2.82331 3.06987 2.82331 2.80647V0.934262C2.82331 0.700303 2.58942 0.466064 2.3553 0.466064ZM2.3553 5.14688H0.482897C0.219653 5.14688 0.0148926 5.38112 0.0148926 5.61508V7.48729C0.0148926 7.75069 0.219653 7.95529 0.482897 7.95529H2.3553C2.58942 7.95529 2.82331 7.75069 2.82331 7.48729V5.61508C2.82331 5.38112 2.58942 5.14688 2.3553 5.14688ZM2.3553 9.8277H0.482897C0.219653 9.8277 0.0148926 10.0617 0.0148926 10.2957V12.1681C0.0148926 12.4315 0.219653 12.6361 0.482897 12.6361H2.3553C2.58942 12.6361 2.82331 12.4315 2.82331 12.1681V10.2957C2.82331 10.0617 2.58942 9.8277 2.3553 9.8277ZM14.5252 5.84908H5.16371C4.90047 5.84908 4.69571 6.08316 4.69571 6.31728V6.78528C4.69571 7.04853 4.90047 7.25329 5.16371 7.25329H14.5252C14.7591 7.25329 14.9934 7.04853 14.9934 6.78528V6.31728C14.9934 6.08316 14.7591 5.84908 14.5252 5.84908ZM14.5252 10.5299H5.16371C4.90047 10.5299 4.69571 10.7638 4.69571 10.9979V11.4661C4.69571 11.7293 4.90047 11.9341 5.16371 11.9341H14.5252C14.7591 11.9341 14.9934 11.7293 14.9934 11.4661V10.9979C14.9934 10.7638 14.7591 10.5299 14.5252 10.5299ZM14.5252 1.16826H5.16371C4.90047 1.16826 4.69571 1.40234 4.69571 1.63646V2.10447C4.69571 2.36771 4.90047 2.57266 5.16371 2.57266H14.5252C14.7591 2.57266 14.9934 2.36771 14.9934 2.10447V1.63646C14.9934 1.40234 14.7591 1.16826 14.5252 1.16826Z" fill="#808080"/>
</svg>
