<?xml version="1.0" encoding="UTF-8" standalone="no"?>
<svg
   width="14"
   height="14"
   viewBox="0 0 14 14"
   fill="none"
   version="1.1"
   id="svg4"
   sodipodi:docname="apps.svg"
   inkscape:version="1.1 (c68e22c387, 2021-05-23)"
   xmlns:inkscape="http://www.inkscape.org/namespaces/inkscape"
   xmlns:sodipodi="http://sodipodi.sourceforge.net/DTD/sodipodi-0.dtd"
   xmlns="http://www.w3.org/2000/svg"
   xmlns:svg="http://www.w3.org/2000/svg">
  <defs
     id="defs8" />
  <sodipodi:namedview
     id="namedview6"
     pagecolor="#505050"
     bordercolor="#ffffff"
     borderopacity="1"
     inkscape:pageshadow="0"
     inkscape:pageopacity="0"
     inkscape:pagecheckerboard="1"
     showgrid="false"
     inkscape:zoom="30.759145"
     inkscape:cx="4.3239173"
     inkscape:cy="4.9253645"
     inkscape:window-width="1920"
     inkscape:window-height="1017"
     inkscape:window-x="-8"
     inkscape:window-y="-8"
     inkscape:window-maximized="1"
     inkscape:current-layer="svg4"
     width="14px" />
  <path
     d="M 12.499983,6.0001247 H 7.9998747 v -4.500111 c 0,-0.2506276 -0.2506564,-0.500013 -0.5000173,-0.500013 H 6.4998227 c -0.2812507,0 -0.5000012,0.250652 -0.5000012,0.500013 v 4.500111 H 1.5000125 C 1.2187538,6.0001247 1,6.2504612 1,6.4998223 v 1.0000345 c 0,0.2812508 0.2177414,0.5003213 0.5000125,0.5003213 h 4.4998089 v 4.4998039 c 0,0.281251 0.217743,0.500017 0.5000013,0.500017 h 1.0000347 c 0.2506244,0 0.5000172,-0.217743 0.5000172,-0.500017 V 8.0001781 H 12.499983 C 12.750607,8.0001781 13,7.7823871 13,7.4998568 V 6.4998223 C 13,6.2491978 12.749344,6.0001247 12.499983,6.0001247 Z"
     fill="#808080"
     id="path2"
     style="stroke-width:1.59929" />
</svg>
