<svg width="10" height="12" viewBox="0 0 10 12" fill="none" xmlns="http://www.w3.org/2000/svg">
<path d="M8.47871 4.57741H7.81726V3.62656C7.81726 1.97292 6.49434 0.629343 4.8407 0.608673C3.18706 0.608673 1.86415 1.95225 1.86415 3.58522V4.57741H1.20269C0.64459 4.57741 0.21051 5.03216 0.21051 5.56959V10.1998C0.21051 10.7579 0.64459 11.192 1.20269 11.192H8.47871C9.01615 11.192 9.4709 10.7579 9.4709 10.1998V5.56959C9.4709 5.03216 9.01615 4.57741 8.47871 4.57741V4.57741ZM2.85633 3.58522C2.85633 2.51036 3.74517 1.60085 4.8407 1.60085C5.91557 1.60085 6.82507 2.51036 6.82507 3.58522V4.57741H2.85633V3.58522ZM8.47871 10.1998H1.20269V5.56959H8.47871V10.1998Z" fill="#808080"/>
</svg>
