<svg width="73" height="72" viewBox="0 0 73 72" fill="none" xmlns="http://www.w3.org/2000/svg">
<g clip-path="url(#clip0_802_601)">
<path d="M56.7993 0H15.1993C6.80454 0 -0.000732422 6.80527 -0.000732422 15.2V56.8C-0.000732422 65.1947 6.80454 72 15.1993 72H56.7993C65.194 72 71.9993 65.1947 71.9993 56.8V15.2C71.9993 6.80527 65.194 0 56.7993 0Z" fill="url(#paint0_linear_802_601)"/>
<path fill-rule="evenodd" clip-rule="evenodd" d="M24.8649 15C24.0364 15 23.3649 15.6716 23.3649 16.5C23.3649 17.3284 24.0364 18 24.8649 18H47.134C47.9624 18 48.634 17.3284 48.634 16.5C48.634 15.6716 47.9624 15 47.134 15H24.8649ZM20.3033 22.5C20.3033 21.6716 20.9749 21 21.8033 21H50.1949C51.0233 21 51.6949 21.6716 51.6949 22.5C51.6949 23.3284 51.0233 24 50.1949 24H21.8033C20.9749 24 20.3033 23.3284 20.3033 22.5ZM18.6803 27.0381C17.8519 27.0381 17.1803 27.7097 17.1803 28.5381C17.1803 29.3665 17.8519 30.0381 18.6803 30.0381H53.3176C54.146 30.0381 54.8176 29.3665 54.8176 28.5381C54.8176 27.7097 54.146 27.0381 53.3176 27.0381H18.6803ZM18.0289 32.9082C15.8198 32.9082 14.0289 34.6991 14.0289 36.9082V53.9998C14.0289 56.209 15.8198 57.9998 18.0289 57.9998H53.9697C56.1788 57.9998 57.9697 56.209 57.9697 53.9998V36.9082C57.9697 34.6991 56.1788 32.9082 53.9697 32.9082H18.0289Z" fill="url(#paint1_linear_802_601)"/>
</g>
<defs>
<linearGradient id="paint0_linear_802_601" x1="35.9993" y1="1.408" x2="35.9993" y2="72.216" gradientUnits="userSpaceOnUse">
<stop stop-color="white"/>
<stop offset="1" stop-color="#E6E8E9"/>
</linearGradient>
<linearGradient id="paint1_linear_802_601" x1="35.9993" y1="15" x2="35.9993" y2="57.9998" gradientUnits="userSpaceOnUse">
<stop stop-color="#128FFD"/>
<stop offset="1" stop-color="#2B72F9"/>
</linearGradient>
<clipPath id="clip0_802_601">
<rect x="0.333252" width="72" height="72" rx="15.12" fill="white"/>
</clipPath>
</defs>
</svg>
