<svg width="24" height="24" viewBox="0 0 24 24" fill="none" xmlns="http://www.w3.org/2000/svg">
<path fill-rule="evenodd" clip-rule="evenodd" d="M7.32741 2.34723C6.77513 2.34723 6.32741 2.79494 6.32741 3.34723V3.41235C6.32741 3.96464 6.77513 4.41235 7.32741 4.41235H16.6725C17.2247 4.41235 17.6725 3.96464 17.6725 3.41235V3.34723C17.6725 2.79494 17.2247 2.34723 16.6725 2.34723H7.32741ZM4.95278 6.04104C4.95278 5.48875 5.4005 5.04104 5.95278 5.04104H18.0466C18.5989 5.04104 19.0466 5.48876 19.0466 6.04104V6.10616C19.0466 6.65845 18.5989 7.10616 18.0466 7.10616H5.95278C5.4005 7.10616 4.95278 6.65845 4.95278 6.10616V6.04104ZM4.55086 7.75195C3.99858 7.75195 3.55086 8.19966 3.55086 8.75195V8.81707C3.55086 9.36935 3.99858 9.81707 4.55086 9.81707H19.4488C20.0011 9.81707 20.4488 9.36936 20.4488 8.81707V8.75195C20.4488 8.19966 20.0011 7.75195 19.4488 7.75195H4.55086ZM3.83589 19.9528V12.0874H20.1639V19.9528H3.83589ZM2.13589 11.3874C2.13589 10.8352 2.58361 10.3874 3.13589 10.3874H20.8639C21.4162 10.3874 21.8639 10.8352 21.8639 11.3874V20.6528C21.8639 21.2051 21.4162 21.6528 20.8639 21.6528H3.13589C2.58361 21.6528 2.13589 21.2051 2.13589 20.6528V11.3874Z" fill="#808080"/>
</svg>
