<svg width="73" height="72" viewBox="0 0 73 72" fill="none" xmlns="http://www.w3.org/2000/svg">
<g clip-path="url(#clip0_334_1841)">
<path d="M56.8 0H15.2C6.80527 0 0 6.80527 0 15.2V56.8C0 65.1947 6.80527 72 15.2 72H56.8C65.1947 72 72 65.1947 72 56.8V15.2C72 6.80527 65.1947 0 56.8 0Z" fill="url(#paint0_linear_334_1841)"/>
<path fill-rule="evenodd" clip-rule="evenodd" d="M24.8652 15C24.0368 15 23.3652 15.6716 23.3652 16.5C23.3652 17.3284 24.0368 18 24.8652 18H47.1344C47.9628 18 48.6344 17.3284 48.6344 16.5C48.6344 15.6716 47.9628 15 47.1344 15H24.8652ZM20.3037 22.5C20.3037 21.6716 20.9753 21 21.8037 21H50.1952C51.0237 21 51.6952 21.6716 51.6952 22.5C51.6952 23.3284 51.0237 24 50.1952 24H21.8037C20.9753 24 20.3037 23.3284 20.3037 22.5ZM18.6807 27.0381C17.8522 27.0381 17.1807 27.7097 17.1807 28.5381C17.1807 29.3665 17.8522 30.0381 18.6807 30.0381H53.318C54.1464 30.0381 54.818 29.3665 54.818 28.5381C54.818 27.7097 54.1464 27.0381 53.318 27.0381H18.6807ZM18.0293 32.9082C15.8202 32.9082 14.0293 34.6991 14.0293 36.9082V53.9998C14.0293 56.209 15.8202 57.9998 18.0293 57.9998H53.9701C56.1792 57.9998 57.9701 56.209 57.9701 53.9998V36.9082C57.9701 34.6991 56.1792 32.9082 53.9701 32.9082H18.0293Z" fill="url(#paint1_linear_334_1841)"/>
</g>
<defs>
<linearGradient id="paint0_linear_334_1841" x1="36" y1="1.408" x2="36" y2="72.216" gradientUnits="userSpaceOnUse">
<stop stop-color="white"/>
<stop offset="1" stop-color="#E6E8E9"/>
</linearGradient>
<linearGradient id="paint1_linear_334_1841" x1="35.9997" y1="15" x2="35.9997" y2="57.9998" gradientUnits="userSpaceOnUse">
<stop stop-color="#128FFD"/>
<stop offset="1" stop-color="#2B72F9"/>
</linearGradient>
<clipPath id="clip0_334_1841">
<rect x="0.333984" width="72" height="72" rx="15.12" fill="white"/>
</clipPath>
</defs>
</svg>
