<svg width="73" height="72" viewBox="0 0 73 72" fill="none" xmlns="http://www.w3.org/2000/svg">
<g clip-path="url(#clip0_3001_5750)">
<path d="M57.1328 0H15.5328C7.13804 0 0.332764 6.80527 0.332764 15.2V56.8C0.332764 65.1947 7.13804 72 15.5328 72H57.1328C65.5275 72 72.3328 65.1947 72.3328 56.8V15.2C72.3328 6.80527 65.5275 0 57.1328 0Z" fill="url(#paint0_linear_3001_5750)"/>
<path d="M57.1328 0H15.5328C7.13804 0 0.332764 6.80527 0.332764 15.2V56.8C0.332764 65.1947 7.13804 72 15.5328 72H57.1328C65.5275 72 72.3328 65.1947 72.3328 56.8V15.2C72.3328 6.80527 65.5275 0 57.1328 0Z" fill="url(#paint1_linear_3001_5750)"/>
<path fill-rule="evenodd" clip-rule="evenodd" d="M25.1983 15C24.3699 15 23.6983 15.6716 23.6983 16.5C23.6983 17.3284 24.3699 18 25.1983 18H47.4674C48.2959 18 48.9674 17.3284 48.9674 16.5C48.9674 15.6716 48.2959 15 47.4674 15H25.1983ZM20.6368 22.5C20.6368 21.6716 21.3084 21 22.1368 21H50.5283C51.3567 21 52.0283 21.6716 52.0283 22.5C52.0283 23.3284 51.3567 24 50.5283 24H22.1368C21.3084 24 20.6368 23.3284 20.6368 22.5ZM19.0137 27.0381C18.1853 27.0381 17.5137 27.7097 17.5137 28.5381C17.5137 29.3665 18.1853 30.0381 19.0137 30.0381H53.6511C54.4795 30.0381 55.1511 29.3665 55.1511 28.5381C55.1511 27.7097 54.4795 27.0381 53.6511 27.0381H19.0137ZM18.3624 32.9082C16.1532 32.9082 14.3624 34.6991 14.3624 36.9082V53.9998C14.3624 56.209 16.1532 57.9998 18.3624 57.9998H54.3031C56.5123 57.9998 58.3031 56.209 58.3031 53.9998V36.9082C58.3031 34.6991 56.5123 32.9082 54.3031 32.9082H18.3624Z" fill="url(#paint2_linear_3001_5750)"/>
<path fill-rule="evenodd" clip-rule="evenodd" d="M25.1983 15C24.3699 15 23.6983 15.6716 23.6983 16.5C23.6983 17.3284 24.3699 18 25.1983 18H47.4674C48.2959 18 48.9674 17.3284 48.9674 16.5C48.9674 15.6716 48.2959 15 47.4674 15H25.1983ZM20.6368 22.5C20.6368 21.6716 21.3084 21 22.1368 21H50.5283C51.3567 21 52.0283 21.6716 52.0283 22.5C52.0283 23.3284 51.3567 24 50.5283 24H22.1368C21.3084 24 20.6368 23.3284 20.6368 22.5ZM19.0137 27.0381C18.1853 27.0381 17.5137 27.7097 17.5137 28.5381C17.5137 29.3665 18.1853 30.0381 19.0137 30.0381H53.6511C54.4795 30.0381 55.1511 29.3665 55.1511 28.5381C55.1511 27.7097 54.4795 27.0381 53.6511 27.0381H19.0137ZM18.3624 32.9082C16.1532 32.9082 14.3624 34.6991 14.3624 36.9082V53.9998C14.3624 56.209 16.1532 57.9998 18.3624 57.9998H54.3031C56.5123 57.9998 58.3031 56.209 58.3031 53.9998V36.9082C58.3031 34.6991 56.5123 32.9082 54.3031 32.9082H18.3624Z" fill="url(#paint3_linear_3001_5750)"/>
</g>
<defs>
<linearGradient id="paint0_linear_3001_5750" x1="36.3328" y1="1.408" x2="36.3328" y2="72.216" gradientUnits="userSpaceOnUse">
<stop stop-color="white"/>
<stop offset="1" stop-color="#E6E8E9"/>
</linearGradient>
<linearGradient id="paint1_linear_3001_5750" x1="36.3746" y1="0" x2="36.3746" y2="72" gradientUnits="userSpaceOnUse">
<stop stop-color="white"/>
<stop offset="1" stop-color="#E8E9F6"/>
</linearGradient>
<linearGradient id="paint2_linear_3001_5750" x1="36.3327" y1="15" x2="36.3327" y2="57.9998" gradientUnits="userSpaceOnUse">
<stop stop-color="#128FFD"/>
<stop offset="1" stop-color="#2B72F9"/>
</linearGradient>
<linearGradient id="paint3_linear_3001_5750" x1="36.3327" y1="-9.09473" x2="36.3327" y2="46.5085" gradientUnits="userSpaceOnUse">
<stop stop-color="#00C4FF"/>
<stop offset="1" stop-color="#0085FF"/>
</linearGradient>
<clipPath id="clip0_3001_5750">
<rect x="0.666748" width="72" height="72" rx="15.12" fill="white"/>
</clipPath>
</defs>
</svg>
