<svg width="14" height="11" viewBox="0 0 14 11" fill="none" xmlns="http://www.w3.org/2000/svg">
<path d="M1.07641 2.28882e-05C0.480568 2.28882e-05 -0.0206922 0.480345 0.000657847 1.07578L0.272438 9.69881C0.293638 10.2942 0.752398 10.7741 1.34816 10.7741H3.44004H12.0282C12.624 10.7741 13.0302 10.2901 13.1035 9.69881L13.813 3.97062C13.6157 3.74367 13.3047 3.60924 12.8669 3.57808H2.09201C1.94361 3.57808 1.80137 3.63818 1.66817 3.74155C1.53501 3.84498 1.41113 3.99191 1.2995 4.1644C1.07625 4.50938 0.902068 5.96661 0.803068 6.38163V2.67822C0.806068 2.55151 0.886969 2.41563 0.994409 2.31152C1.10183 2.20742 1.2364 2.13512 1.34673 2.13512H12.9335C12.6196 1.61737 12.2598 1.25713 11.6272 1.25713H4.78113L4.78713 1.07578C4.79213 0.926915 4.76463 0.78515 4.71153 0.65641C4.65833 0.52767 4.57906 0.41177 4.4805 0.31456C4.382 0.21736 4.2641 0.138806 4.13368 0.0844955C4.00327 0.0301955 3.86029 0 3.71133 0L1.07641 2.28882e-05Z" fill="#007FFF"/>
<path d="M2.66405 4.48598H12.3059C12.573 4.48598 12.753 4.69815 12.7096 4.96171L11.971 9.43924C11.9275 9.7028 11.6775 9.91497 11.4104 9.91497H1.76854C1.50142 9.91497 1.32138 9.7028 1.36485 9.43924L2.10341 4.96171C2.14689 4.69815 2.39693 4.48598 2.66405 4.48598Z" fill="white"/>
</svg>
