<svg version="1.2" xmlns="http://www.w3.org/2000/svg" viewBox="0 0 4 4" width="30" height="30">
	<title>download-svg</title>
	<style>
		.s0 { fill: #000000 } 
		.s1 { fill: #fe7102 } 
	</style>
	<g id="layer1">
		<g id="g3269">
			<g id="g3353">
				<path id="text3158-3" class="s0" d="m2.2 3c0 0.3-0.1 0.4-0.3 0.4-0.3 0-0.4-0.1-0.4-0.4z"/>
				<path id="path3181" class="s0" d="m2 0.5v0.1q0.1 0 0.2 0 0 0 0 0-0.1 0-0.1 0 0 0 0 0 0 0 0 0 0 0.1 0 0.1 0 0 0 0 0 0.1 0 0.1-0.1 0-0.1 0 0 0 0 0 0 0.1 0 0.1 0 0 0 0 0 0 0 0-0.1 0-0.1 0c-0.4 0-0.7 0.3-0.7 0.7 0 0.5-0.2 0.8-0.3 0.9h1.9c-0.1-0.1-0.2-0.4-0.3-0.8q0.1 0 0.1 0 0 0 0 0 0 0 0 0 0.1 0 0.1 0 0 0 0 0 0 0 0.1 0 0 0 0 0 0 0 0 0c0.1 0.5 0.3 0.7 0.4 0.8q0 0.1 0 0.1c0 0.2 0 0.2-0.2 0.2h-2.3c-0.2 0-0.2 0-0.2-0.2q0 0 0-0.1c0.1-0.1 0.4-0.3 0.4-0.9 0-0.5 0.3-0.9 0.8-1v-0.1c0-0.1 0-0.2 0.2-0.2 0.1 0 0.1 0.1 0.1 0.2z"/>
			</g>
			<path id="path3096" class="s1" d="m2.7 1.6c-0.3 0-0.5-0.3-0.5-0.6 0-0.2 0.2-0.5 0.5-0.5 0.3 0 0.5 0.3 0.5 0.5 0 0.3-0.2 0.6-0.5 0.6z"/>
		</g>
	</g>
</svg>